NotoSansArabic.glyphspackage
{
glyphname = guillemetleft;
layers = (
{
layerId = "A7E21968-E455-4749-BB19-379F5EDC3B9B";
paths = (
{
closed = 1;
nodes = (
"22 273 LINE",
"177 42 LINE",
"294 104 LINE",
"193 280 LINE",
"294 457 LINE",
"177 519 LINE",
"22 287 LINE"
);
},
{
closed = 1;
nodes = (
"261 273 LINE",
"416 42 LINE",
"533 104 LINE",
"433 280 LINE",
"533 457 LINE",
"416 519 LINE",
"261 287 LINE"
);
}
);
width = 560;
},
{
layerId = "9B455188-434F-489F-9A18-4C18DBE88840";
paths = (
{
closed = 1;
nodes = (
"35 257 LINE",
"179 63 LINE",
"236 94 LINE",
"130 264 LINE",
"236 436 LINE",
"179 465 LINE",
"35 271 LINE"
);
},
{
closed = 1;
nodes = (
"224 257 LINE",
"369 63 LINE",
"425 94 LINE",
"320 264 LINE",
"425 436 LINE",
"369 465 LINE",
"224 271 LINE"
);
}
);
width = 460;
},
{
layerId = "D3B47D5E-6A85-4361-9DF6-638C8B7E2782";
paths = (
{
closed = 1;
nodes = (
"40 271 LINE",
"181 98 LINE",
"199 108 LINE",
"75 278 LINE",
"198 449 LINE",
"181 459 LINE",
"40 284 LINE"
);
},
{
closed = 1;
nodes = (
"210 271 LINE",
"351 98 LINE",
"369 108 LINE",
"245 278 LINE",
"368 449 LINE",
"351 459 LINE",
"210 284 LINE"
);
}
);
width = 408;
},
{
layerId = "08F1692B-9525-48D2-9816-1987B1C44D50";
paths = (
{
closed = 1;
nodes = (
"27 268 LINE",
"178 51 LINE",
"272 101 LINE",
"168 275 LINE",
"271 450 LINE",
"178 500 LINE",
"27 282 LINE"
);
},
{
closed = 1;
nodes = (
"247 268 LINE",
"398 51 LINE",
"492 101 LINE",
"389 275 LINE",
"491 450 LINE",
"398 500 LINE",
"247 282 LINE"
);
}
);
width = 522;
},
{
layerId = "A2AC38AA-6CC4-4B2B-B5AB-64A49772F2D3";
paths = (
{
closed = 1;
nodes = (
"26 272 LINE",
"178 87 LINE",
"194 98 LINE",
"57 279 LINE",
"194 460 LINE",
"178 472 LINE",
"26 285 LINE"
);
},
{
closed = 1;
nodes = (
"195 272 LINE",
"347 87 LINE",
"363 98 LINE",
"226 279 LINE",
"363 460 LINE",
"347 472 LINE",
"195 285 LINE"
);
}
);
width = 389;
},
{
layerId = "6D0603BE-7277-4DA4-8C59-7934AF28E45B";
paths = (
{
closed = 1;
nodes = (
"40 257 LINE",
"208 56 LINE",
"271 93 LINE",
"131 264 LINE",
"271 435 LINE",
"208 471 LINE",
"40 270 LINE"
);
},
{
closed = 1;
nodes = (
"238 257 LINE",
"408 56 LINE",
"470 93 LINE",
"330 264 LINE",
"470 435 LINE",
"408 471 LINE",
"238 270 LINE"
);
}
);
width = 509;
},
{
layerId = "E1555194-BAFD-4DCC-A026-E2F9BA1917F2";
paths = (
{
closed = 1;
nodes = (
"40 267 LINE",
"221 46 LINE",
"328 104 LINE",
"192 274 LINE",
"328 444 LINE",
"221 502 LINE",
"40 280 LINE"
);
},
{
closed = 1;
nodes = (
"287 267 LINE",
"468 46 LINE",
"575 104 LINE",
"439 274 LINE",
"575 444 LINE",
"468 502 LINE",
"287 280 LINE"
);
}
);
width = 615;
},
{
layerId = "8594390A-478C-48BC-BAB2-0B8797A53DFB";
paths = (
{
closed = 1;
nodes = (
"36 274 LINE",
"226 39 LINE",
"363 111 LINE",
"230 281 LINE",
"363 450 LINE",
"226 523 LINE",
"36 287 LINE"
);
},
{
closed = 1;
nodes = (
"317 274 LINE",
"506 39 LINE",
"644 111 LINE",
"510 281 LINE",
"644 450 LINE",
"506 523 LINE",
"317 287 LINE"
);
}
);
width = 681;
}
);
unicode = 00AB;
}
{
glyphname = guillemetright;
layers = (
{
layerId = "A7E21968-E455-4749-BB19-379F5EDC3B9B";
paths = (
{
closed = 1;
nodes = (
"538 287 LINE",
"383 519 LINE",
"266 457 LINE",
"367 280 LINE",
"266 104 LINE",
"383 42 LINE",
"538 273 LINE"
);
},
{
closed = 1;
nodes = (
"299 287 LINE",
"144 519 LINE",
"27 457 LINE",
"127 280 LINE",
"27 104 LINE",
"144 42 LINE",
"299 273 LINE"
);
}
);
width = 560;
},
{
layerId = "9B455188-434F-489F-9A18-4C18DBE88840";
paths = (
{
closed = 1;
nodes = (
"426 271 LINE",
"281 465 LINE",
"225 436 LINE",
"330 264 LINE",
"225 94 LINE",
"281 63 LINE",
"426 257 LINE"
);
},
{
closed = 1;
nodes = (
"237 271 LINE",
"91 465 LINE",
"36 436 LINE",
"140 264 LINE",
"36 94 LINE",
"91 63 LINE",
"237 257 LINE"
);
}
);
width = 460;
},
{
layerId = "D3B47D5E-6A85-4361-9DF6-638C8B7E2782";
paths = (
{
closed = 1;
nodes = (
"358 284 LINE",
"217 459 LINE",
"199 449 LINE",
"323 278 LINE",
"199 108 LINE",
"217 98 LINE",
"358 271 LINE"
);
},
{
closed = 1;
nodes = (
"199 284 LINE",
"58 459 LINE",
"40 449 LINE",
"164 278 LINE",
"40 108 LINE",
"58 98 LINE",
"199 271 LINE"
);
}
);
width = 397;
},
{
layerId = "08F1692B-9525-48D2-9816-1987B1C44D50";
paths = (
{
closed = 1;
nodes = (
"495 282 LINE",
"343 500 LINE",
"250 450 LINE",
"354 275 LINE",
"250 101 LINE",
"343 51 LINE",
"495 268 LINE"
);
},
{
closed = 1;
nodes = (
"275 282 LINE",
"123 500 LINE",
"30 450 LINE",
"133 275 LINE",
"30 101 LINE",
"123 51 LINE",
"275 268 LINE"
);
}
);
width = 521;
},
{
layerId = "A2AC38AA-6CC4-4B2B-B5AB-64A49772F2D3";
paths = (
{
closed = 1;
nodes = (
"363 287 LINE",
"211 472 LINE",
"195 461 LINE",
"332 280 LINE",
"195 99 LINE",
"211 87 LINE",
"363 274 LINE"
);
},
{
closed = 1;
nodes = (
"194 287 LINE",
"42 472 LINE",
"26 461 LINE",
"163 280 LINE",
"26 99 LINE",
"42 87 LINE",
"194 274 LINE"
);
}
);
width = 389;
},
{
layerId = "6D0603BE-7277-4DA4-8C59-7934AF28E45B";
paths = (
{
closed = 1;
nodes = (
"469 270 LINE",
"299 471 LINE",
"237 435 LINE",
"377 264 LINE",
"237 93 LINE",
"299 56 LINE",
"469 257 LINE"
);
},
{
closed = 1;
nodes = (
"270 270 LINE",
"101 471 LINE",
"39 435 LINE",
"179 264 LINE",
"39 93 LINE",
"101 56 LINE",
"270 257 LINE"
);
}
);
width = 509;
},
{
layerId = "E1555194-BAFD-4DCC-A026-E2F9BA1917F2";
paths = (
{
closed = 1;
nodes = (
"575 280 LINE",
"394 502 LINE",
"287 444 LINE",
"423 274 LINE",
"287 104 LINE",
"394 46 LINE",
"575 267 LINE"
);
},
{
closed = 1;
nodes = (
"328 280 LINE",
"147 502 LINE",
"40 444 LINE",
"176 274 LINE",
"40 104 LINE",
"147 46 LINE",
"328 267 LINE"
);
}
);
width = 615;
},
{
layerId = "8594390A-478C-48BC-BAB2-0B8797A53DFB";
paths = (
{
closed = 1;
nodes = (
"645 287 LINE",
"456 523 LINE",
"317 450 LINE",
"451 281 LINE",
"317 111 LINE",
"456 39 LINE",
"645 274 LINE"
);
},
{
closed = 1;
nodes = (
"364 287 LINE",
"175 523 LINE",
"37 450 LINE",
"170 281 LINE",
"37 111 LINE",
"175 39 LINE",
"364 274 LINE"
);
}
);
width = 681;
}
);
unicode = 00BB;
}
{
glyphname = comma;
layers = (
{
layerId = "A7E21968-E455-4749-BB19-379F5EDC3B9B";
paths = (
{
closed = 1;
nodes = (
"67 146 LINE",
"63 71 OFFCURVE",
"45 -62 OFFCURVE",
"31 -139 CURVE",
"165 -139 LINE",
"194 -66 OFFCURVE",
"215 25 OFFCURVE",
"230 135 CURVE",
"225 146 LINE"
);
}
);
width = 273;
},
{
layerId = "9B455188-434F-489F-9A18-4C18DBE88840";
paths = (
{
closed = 1;
nodes = (
"81 114 LINE",
"74 42 OFFCURVE",
"57 -51 OFFCURVE",
"36 -132 CURVE",
"98 -132 LINE",
"130 -60 OFFCURVE",
"154 19 OFFCURVE",
"174 103 CURVE",
"167 114 LINE"
);
}
);
width = 226;
},
{
layerId = "D3B47D5E-6A85-4361-9DF6-638C8B7E2782";
paths = (
{
closed = 1;
nodes = (
"94 116 LINE",
"83 40 OFFCURVE",
"67 -32 OFFCURVE",
"38 -129 CURVE",
"60 -129 LINE",
"88 -60 OFFCURVE",
"110 30 OFFCURVE",
"125 104 CURVE",
"122 116 LINE"
);
}
);
width = 183;
},
{
layerId = "08F1692B-9525-48D2-9816-1987B1C44D50";
paths = (
{
closed = 1;
nodes = (
"73 135 LINE",
"68 61 OFFCURVE",
"50 -57 OFFCURVE",
"33 -136 CURVE",
"139 -136 LINE",
"169 -64 OFFCURVE",
"191 24 OFFCURVE",
"208 124 CURVE",
"202 135 LINE"
);
}
);
width = 254;
},
{
layerId = "A2AC38AA-6CC4-4B2B-B5AB-64A49772F2D3";
paths = (
{
closed = 1;
nodes = (
"94 116 LINE",
"83 40 OFFCURVE",
"67 -32 OFFCURVE",
"38 -129 CURVE",
"60 -129 LINE",
"88 -60 OFFCURVE",
"110 30 OFFCURVE",
"125 104 CURVE",
"122 116 LINE"
);
}
);
width = 183;
},
{
layerId = "6D0603BE-7277-4DA4-8C59-7934AF28E45B";
paths = (
{
closed = 1;
nodes = (
"91 116 LINE",
"81 46 OFFCURVE",
"60 -53 OFFCURVE",
"41 -129 CURVE",
"106 -129 LINE",
"138 -57 OFFCURVE",
"174 34 OFFCURVE",
"192 105 CURVE",
"185 116 LINE"
);
}
);
width = 268;
},
{
layerId = "E1555194-BAFD-4DCC-A026-E2F9BA1917F2";
paths = (
{
closed = 1;
nodes = (
"80 116 LINE",
"70 47 OFFCURVE",
"50 -50 OFFCURVE",
"31 -129 CURVE",
"138 -129 LINE",
"171 -56 OFFCURVE",
"206 34 OFFCURVE",
"224 105 CURVE",
"217 116 LINE"
);
}
);
width = 285;
},
{
layerId = "8594390A-478C-48BC-BAB2-0B8797A53DFB";
paths = (
{
closed = 1;
nodes = (
"76 146 LINE",
"67 66 OFFCURVE",
"47 -48 OFFCURVE",
"28 -139 CURVE",
"164 -139 LINE",
"197 -65 OFFCURVE",
"232 63 OFFCURVE",
"250 135 CURVE",
"243 146 LINE"
);
}
);
width = 309;
}
);
unicode = 002C;
}
{
glyphname = period;
layers = (
{
layerId = "A7E21968-E455-4749-BB19-379F5EDC3B9B";
paths = (
{
closed = 1;
nodes = (
"45 22 OFFCURVE",
"81 -12 OFFCURVE",
"138 -12 CURVE SMOOTH",
"195 -12 OFFCURVE",
"228 22 OFFCURVE",
"228 81 CURVE SMOOTH",
"228 141 OFFCURVE",
"196 175 OFFCURVE",
"138 175 CURVE SMOOTH",
"78 175 OFFCURVE",
"45 141 OFFCURVE",
"45 81 CURVE SMOOTH"
);
}
);
width = 273;
},
{
layerId = "9B455188-434F-489F-9A18-4C18DBE88840";
paths = (
{
closed = 1;
nodes = (
"59 13 OFFCURVE",
"79 -9 OFFCURVE",
"113 -9 CURVE SMOOTH",
"145 -9 OFFCURVE",
"167 11 OFFCURVE",
"167 55 CURVE SMOOTH",
"167 100 OFFCURVE",
"146 119 OFFCURVE",
"113 119 CURVE SMOOTH",
"78 119 OFFCURVE",
"59 97 OFFCURVE",
"59 55 CURVE SMOOTH"
);
}
);
width = 226;
},
{
layerId = "D3B47D5E-6A85-4361-9DF6-638C8B7E2782";
paths = (
{
closed = 1;
nodes = (
"65 9 OFFCURVE",
"70 -6 OFFCURVE",
"90 -6 CURVE SMOOTH",
"108 -6 OFFCURVE",
"116 7 OFFCURVE",
"116 30 CURVE SMOOTH",
"116 53 OFFCURVE",
"109 65 OFFCURVE",
"90 65 CURVE SMOOTH",
"70 65 OFFCURVE",
"65 49 OFFCURVE",
"65 30 CURVE SMOOTH"
);
}
);
width = 180;
},
{
layerId = "08F1692B-9525-48D2-9816-1987B1C44D50";
paths = (
{
closed = 1;
nodes = (
"50 19 OFFCURVE",
"79 -11 OFFCURVE",
"128 -11 CURVE SMOOTH",
"175 -11 OFFCURVE",
"203 18 OFFCURVE",
"203 70 CURVE SMOOTH",
"203 124 OFFCURVE",
"176 152 OFFCURVE",
"128 152 CURVE SMOOTH",
"77 152 OFFCURVE",
"50 123 OFFCURVE",
"50 70 CURVE SMOOTH"
);
}
);
width = 254;
},
{
layerId = "A2AC38AA-6CC4-4B2B-B5AB-64A49772F2D3";
paths = (
{
closed = 1;
nodes = (
"85 6 OFFCURVE",
"90 -8 OFFCURVE",
"110 -8 CURVE SMOOTH",
"134 -8 OFFCURVE",
"137 6 OFFCURVE",
"137 23 CURVE SMOOTH",
"137 39 OFFCURVE",
"134 54 OFFCURVE",
"110 54 CURVE SMOOTH",
"90 54 OFFCURVE",
"85 39 OFFCURVE",
"85 23 CURVE SMOOTH"
);
}
);
width = 220;
},
{
layerId = "6D0603BE-7277-4DA4-8C59-7934AF28E45B";
paths = (
{
closed = 1;
nodes = (
"72 6 OFFCURVE",
"99 -14 OFFCURVE",
"133 -14 CURVE SMOOTH",
"167 -14 OFFCURVE",
"196 6 OFFCURVE",
"196 54 CURVE SMOOTH",
"196 103 OFFCURVE",
"167 121 OFFCURVE",
"133 121 CURVE SMOOTH",
"99 121 OFFCURVE",
"72 103 OFFCURVE",
"72 54 CURVE SMOOTH"
);
}
);
width = 268;
},
{
layerId = "E1555194-BAFD-4DCC-A026-E2F9BA1917F2";
paths = (
{
closed = 1;
nodes = (
"57 11 OFFCURVE",
"95 -13 OFFCURVE",
"143 -13 CURVE SMOOTH",
"189 -13 OFFCURVE",
"228 11 OFFCURVE",
"228 70 CURVE SMOOTH",
"228 131 OFFCURVE",
"189 153 OFFCURVE",
"143 153 CURVE SMOOTH",
"95 153 OFFCURVE",
"57 131 OFFCURVE",
"57 70 CURVE SMOOTH"
);
}
);
width = 285;
},
{
layerId = "8594390A-478C-48BC-BAB2-0B8797A53DFB";
paths = (
{
closed = 1;
nodes = (
"42 15 OFFCURVE",
"89 -12 OFFCURVE",
"146 -12 CURVE SMOOTH",
"200 -12 OFFCURVE",
"246 15 OFFCURVE",
"246 81 CURVE SMOOTH",
"246 150 OFFCURVE",
"200 175 OFFCURVE",
"146 175 CURVE SMOOTH",
"89 175 OFFCURVE",
"42 150 OFFCURVE",
"42 81 CURVE SMOOTH"
);
}
);
width = 289;
}
);
unicode = 002E;
}
{
glyphname = colon;
layers = (
{
layerId = "A7E21968-E455-4749-BB19-379F5EDC3B9B";
paths = (
{
closed = 1;
nodes = (
"49 22 OFFCURVE",
"84 -12 OFFCURVE",
"142 -12 CURVE SMOOTH",
"198 -12 OFFCURVE",
"231 22 OFFCURVE",
"231 81 CURVE SMOOTH",
"231 141 OFFCURVE",
"200 175 OFFCURVE",
"142 175 CURVE SMOOTH",
"81 175 OFFCURVE",
"49 141 OFFCURVE",
"49 81 CURVE SMOOTH"
);
},
{
closed = 1;
nodes = (
"49 408 OFFCURVE",
"84 374 OFFCURVE",
"142 374 CURVE SMOOTH",
"198 374 OFFCURVE",
"231 408 OFFCURVE",
"231 467 CURVE SMOOTH",
"231 527 OFFCURVE",
"200 561 OFFCURVE",
"142 561 CURVE SMOOTH",
"81 561 OFFCURVE",
"49 527 OFFCURVE",
"49 467 CURVE SMOOTH"
);
}
);
width = 280;
},
{
layerId = "9B455188-434F-489F-9A18-4C18DBE88840";
paths = (
{
closed = 1;
nodes = (
"60 13 OFFCURVE",
"79 -9 OFFCURVE",
"114 -9 CURVE SMOOTH",
"145 -9 OFFCURVE",
"168 11 OFFCURVE",
"168 55 CURVE SMOOTH",
"168 100 OFFCURVE",
"147 119 OFFCURVE",
"114 119 CURVE SMOOTH",
"78 119 OFFCURVE",
"60 97 OFFCURVE",
"60 55 CURVE SMOOTH"
);
},
{
closed = 1;
nodes = (
"60 433 OFFCURVE",
"79 411 OFFCURVE",
"114 411 CURVE SMOOTH",
"145 411 OFFCURVE",
"168 432 OFFCURVE",
"168 476 CURVE SMOOTH",
"168 518 OFFCURVE",
"149 540 OFFCURVE",
"114 540 CURVE SMOOTH",
"78 540 OFFCURVE",
"60 518 OFFCURVE",
"60 476 CURVE SMOOTH"
);
}
);
width = 228;
},
{
layerId = "D3B47D5E-6A85-4361-9DF6-638C8B7E2782";
paths = (
{
closed = 1;
nodes = (
"65 12 OFFCURVE",
"67 -5 OFFCURVE",
"90 -5 CURVE SMOOTH",
"112 -5 OFFCURVE",
"116 11 OFFCURVE",
"116 31 CURVE SMOOTH",
"116 50 OFFCURVE",
"112 66 OFFCURVE",
"90 66 CURVE SMOOTH",
"69 66 OFFCURVE",
"65 50 OFFCURVE",
"65 31 CURVE SMOOTH"
);
},
{
closed = 1;
nodes = (
"65 476 OFFCURVE",
"70 461 OFFCURVE",
"90 461 CURVE SMOOTH",
"108 461 OFFCURVE",
"116 474 OFFCURVE",
"116 497 CURVE SMOOTH",
"116 521 OFFCURVE",
"109 532 OFFCURVE",
"91 532 CURVE SMOOTH",
"70 532 OFFCURVE",
"65 516 OFFCURVE",
"65 496 CURVE SMOOTH"
);
}
);
width = 180;
},
{
layerId = "08F1692B-9525-48D2-9816-1987B1C44D50";
paths = (
{
closed = 1;
nodes = (
"53 19 OFFCURVE",
"81 -11 OFFCURVE",
"131 -11 CURVE SMOOTH",
"177 -11 OFFCURVE",
"206 18 OFFCURVE",
"206 70 CURVE SMOOTH",
"206 124 OFFCURVE",
"179 152 OFFCURVE",
"131 152 CURVE SMOOTH",
"79 152 OFFCURVE",
"53 123 OFFCURVE",
"53 70 CURVE SMOOTH"
);
},
{
closed = 1;
nodes = (
"53 419 OFFCURVE",
"82 390 OFFCURVE",
"131 390 CURVE SMOOTH",
"177 390 OFFCURVE",
"206 419 OFFCURVE",
"206 471 CURVE SMOOTH",
"206 524 OFFCURVE",
"180 553 OFFCURVE",
"131 553 CURVE SMOOTH",
"79 553 OFFCURVE",
"53 524 OFFCURVE",
"53 471 CURVE SMOOTH"
);
}
);
width = 259;
},
{
layerId = "A2AC38AA-6CC4-4B2B-B5AB-64A49772F2D3";
paths = (
{
closed = 1;
nodes = (
"85 6 OFFCURVE",
"90 -8 OFFCURVE",
"110 -8 CURVE SMOOTH",
"134 -8 OFFCURVE",
"137 6 OFFCURVE",
"137 23 CURVE SMOOTH",
"137 39 OFFCURVE",
"134 54 OFFCURVE",
"110 54 CURVE SMOOTH",
"90 54 OFFCURVE",
"85 39 OFFCURVE",
"85 23 CURVE SMOOTH"
);
},
{
closed = 1;
nodes = (
"85 484 OFFCURVE",
"90 470 OFFCURVE",
"110 470 CURVE SMOOTH",
"134 470 OFFCURVE",
"137 484 OFFCURVE",
"137 501 CURVE SMOOTH",
"137 517 OFFCURVE",
"134 532 OFFCURVE",
"110 532 CURVE SMOOTH",
"90 532 OFFCURVE",
"85 517 OFFCURVE",
"85 501 CURVE SMOOTH"
);
}
);
width = 220;
},
{
layerId = "6D0603BE-7277-4DA4-8C59-7934AF28E45B";
paths = (
{
closed = 1;
nodes = (
"72 6 OFFCURVE",
"99 -14 OFFCURVE",
"133 -14 CURVE SMOOTH",
"167 -14 OFFCURVE",
"196 6 OFFCURVE",
"196 54 CURVE SMOOTH",
"196 103 OFFCURVE",
"167 121 OFFCURVE",
"133 121 CURVE SMOOTH",
"99 121 OFFCURVE",
"72 103 OFFCURVE",
"72 54 CURVE SMOOTH"
);
},
{
closed = 1;
nodes = (
"72 434 OFFCURVE",
"99 414 OFFCURVE",
"133 414 CURVE SMOOTH",
"167 414 OFFCURVE",
"196 434 OFFCURVE",
"196 482 CURVE SMOOTH",
"196 532 OFFCURVE",
"167 550 OFFCURVE",
"133 550 CURVE SMOOTH",
"99 550 OFFCURVE",
"72 532 OFFCURVE",
"72 482 CURVE SMOOTH"
);
}
);
width = 268;
},
{
layerId = "E1555194-BAFD-4DCC-A026-E2F9BA1917F2";
paths = (
{
closed = 1;
nodes = (
"57 11 OFFCURVE",
"95 -13 OFFCURVE",
"143 -13 CURVE SMOOTH",
"189 -13 OFFCURVE",
"228 11 OFFCURVE",
"228 70 CURVE SMOOTH",
"228 131 OFFCURVE",
"189 153 OFFCURVE",
"143 153 CURVE SMOOTH",
"95 153 OFFCURVE",
"57 131 OFFCURVE",
"57 70 CURVE"
);
},
{
closed = 1;
nodes = (
"57 414 OFFCURVE",
"95 390 OFFCURVE",
"143 390 CURVE SMOOTH",
"189 390 OFFCURVE",
"228 414 OFFCURVE",
"228 473 CURVE SMOOTH",
"228 534 OFFCURVE",
"189 556 OFFCURVE",
"143 556 CURVE SMOOTH",
"95 556 OFFCURVE",
"57 534 OFFCURVE",
"57 473 CURVE"
);
}
);
width = 285;
},
{
layerId = "8594390A-478C-48BC-BAB2-0B8797A53DFB";
paths = (
{
closed = 1;
nodes = (
"42 15 OFFCURVE",
"89 -12 OFFCURVE",
"146 -12 CURVE SMOOTH",
"200 -12 OFFCURVE",
"246 15 OFFCURVE",
"246 81 CURVE SMOOTH",
"246 150 OFFCURVE",
"200 175 OFFCURVE",
"146 175 CURVE SMOOTH",
"89 175 OFFCURVE",
"42 150 OFFCURVE",
"42 81 CURVE"
);
},
{
closed = 1;
nodes = (
"42 400 OFFCURVE",
"89 373 OFFCURVE",
"146 373 CURVE SMOOTH",
"200 373 OFFCURVE",
"246 400 OFFCURVE",
"246 467 CURVE SMOOTH",
"246 535 OFFCURVE",
"200 560 OFFCURVE",
"146 560 CURVE SMOOTH",
"89 560 OFFCURVE",
"42 535 OFFCURVE",
"42 467 CURVE"
);
}
);
width = 289;
}
);
unicode = 003A;
}
{
glyphname = "endofayah-ar";
layers = (
{
anchors = (
{
name = digits;
position = "{572, 80}";
}
);
layerId = "9B455188-434F-489F-9A18-4C18DBE88840";
paths = (
{
closed = 1;
nodes = (
"1042 721 LINE",
"937 802 OFFCURVE",
"811 842 OFFCURVE",
"685 842 CURVE SMOOTH",
"561 842 OFFCURVE",
"438 804 OFFCURVE",
"335 726 CURVE",
"371 684 LINE",
"465 753 OFFCURVE",
"576 788 OFFCURVE",
"687 788 CURVE SMOOTH",
"800 788 OFFCURVE",
"912 752 OFFCURVE",
"1007 681 CURVE"
);
},
{
closed = 1;
nodes = (
"262 -66 LINE",
"191 29 OFFCURVE",
"155 142 OFFCURVE",
"155 255 CURVE SMOOTH",
"155 370 OFFCURVE",
"192 485 OFFCURVE",
"266 581 CURVE",
"224 618 LINE",
"142 512 OFFCURVE",
"100 385 OFFCURVE",
"100 257 CURVE SMOOTH",
"100 130 OFFCURVE",
"142 3 OFFCURVE",
"224 -103 CURVE"
);
},
{
closed = 1;
nodes = (
"816 -329 OFFCURVE",
"942 -289 OFFCURVE",
"1047 -208 CURVE",
"1012 -168 LINE",
"917 -239 OFFCURVE",
"805 -275 OFFCURVE",
"692 -275 CURVE SMOOTH",
"581 -275 OFFCURVE",
"470 -240 OFFCURVE",
"376 -171 CURVE",
"340 -213 LINE",
"443 -291 OFFCURVE",
"566 -329 OFFCURVE",
"690 -329 CURVE SMOOTH"
);
},
{
closed = 1;
nodes = (
"1230 4 OFFCURVE",
"1270 130 OFFCURVE",
"1270 257 CURVE SMOOTH",
"1270 384 OFFCURVE",
"1230 511 OFFCURVE",
"1147 616 CURVE",
"1112 576 LINE",
"1184 481 OFFCURVE",
"1220 367 OFFCURVE",
"1220 254 CURVE SMOOTH",
"1220 143 OFFCURVE",
"1186 32 OFFCURVE",
"1117 -61 CURVE",
"1149 -101 LINE"
);
},
{
closed = 1;
nodes = (
"1009 619 LINE",
"1009 674 LINE",
"378 674 LINE",
"378 619 LINE"
);
},
{
closed = 1;
nodes = (
"1009 -163 LINE",
"1009 -108 LINE",
"378 -108 LINE",
"378 -163 LINE"
);
},
{
closed = 1;
nodes = (
"1126 552 OFFCURVE",
"1172 591 OFFCURVE",
"1172 647 CURVE SMOOTH",
"1172 699 OFFCURVE",
"1130 742 OFFCURVE",
"1077 742 CURVE SMOOTH",
"1025 742 OFFCURVE",
"982 699 OFFCURVE",
"982 647 CURVE SMOOTH",
"982 595 OFFCURVE",
"1026 552 OFFCURVE",
"1077 552 CURVE SMOOTH"
);
},
{
closed = 1;
nodes = (
"1047 588 OFFCURVE",
"1018 611 OFFCURVE",
"1018 647 CURVE SMOOTH",
"1018 679 OFFCURVE",
"1046 707 OFFCURVE",
"1078 707 CURVE SMOOTH",
"1107 707 OFFCURVE",
"1137 682 OFFCURVE",
"1137 647 CURVE SMOOTH",
"1137 617 OFFCURVE",
"1113 588 OFFCURVE",
"1077 588 CURVE SMOOTH"
);
},
{
closed = 1;
nodes = (
"352 552 OFFCURVE",
"396 595 OFFCURVE",
"396 647 CURVE SMOOTH",
"396 699 OFFCURVE",
"353 742 OFFCURVE",
"301 742 CURVE SMOOTH",
"248 742 OFFCURVE",
"206 699 OFFCURVE",
"206 647 CURVE SMOOTH",
"206 591 OFFCURVE",
"252 552 OFFCURVE",
"301 552 CURVE SMOOTH"
);
},
{
closed = 1;
nodes = (
"265 588 OFFCURVE",
"241 617 OFFCURVE",
"241 647 CURVE SMOOTH",
"241 682 OFFCURVE",
"271 707 OFFCURVE",
"300 707 CURVE SMOOTH",
"332 707 OFFCURVE",
"360 679 OFFCURVE",
"360 647 CURVE SMOOTH",
"360 611 OFFCURVE",
"331 588 OFFCURVE",
"301 588 CURVE SMOOTH"
);
},
{
closed = 1;
nodes = (
"347 -230 OFFCURVE",
"390 -187 OFFCURVE",
"390 -135 CURVE SMOOTH",
"390 -84 OFFCURVE",
"346 -40 OFFCURVE",
"295 -40 CURVE SMOOTH",
"246 -40 OFFCURVE",
"200 -80 OFFCURVE",
"200 -135 CURVE SMOOTH",
"200 -188 OFFCURVE",
"243 -230 OFFCURVE",
"295 -230 CURVE SMOOTH"
);
},
{
closed = 1;
nodes = (
"265 -194 OFFCURVE",
"236 -171 OFFCURVE",
"236 -135 CURVE SMOOTH",
"236 -102 OFFCURVE",
"264 -76 OFFCURVE",
"296 -76 CURVE SMOOTH",
"325 -76 OFFCURVE",
"355 -99 OFFCURVE",
"355 -135 CURVE SMOOTH",
"355 -165 OFFCURVE",
"331 -194 OFFCURVE",
"295 -194 CURVE SMOOTH"
);
},
{
closed = 1;
nodes = (
"1135 -230 OFFCURVE",
"1178 -188 OFFCURVE",
"1178 -135 CURVE SMOOTH",
"1178 -80 OFFCURVE",
"1132 -40 OFFCURVE",
"1083 -40 CURVE SMOOTH",
"1032 -40 OFFCURVE",
"988 -84 OFFCURVE",
"988 -135 CURVE SMOOTH",
"988 -187 OFFCURVE",
"1031 -230 OFFCURVE",
"1083 -230 CURVE SMOOTH"
);
},
{
closed = 1;
nodes = (
"1047 -194 OFFCURVE",
"1023 -165 OFFCURVE",
"1023 -135 CURVE SMOOTH",
"1023 -99 OFFCURVE",
"1053 -76 OFFCURVE",
"1082 -76 CURVE SMOOTH",
"1114 -76 OFFCURVE",
"1142 -102 OFFCURVE",
"1142 -135 CURVE SMOOTH",
"1142 -171 OFFCURVE",
"1113 -194 OFFCURVE",
"1083 -194 CURVE SMOOTH"
);
}
);
width = 1370;
},
{
anchors = (
{
name = digits;
position = "{558, 80}";
}
);
layerId = "A7E21968-E455-4749-BB19-379F5EDC3B9B";
paths = (
{
closed = 1;
nodes = (
"1042 721 LINE",
"937 802 OFFCURVE",
"811 842 OFFCURVE",
"685 842 CURVE SMOOTH",
"561 842 OFFCURVE",
"438 804 OFFCURVE",
"335 726 CURVE",
"371 684 LINE",
"465 753 OFFCURVE",
"576 788 OFFCURVE",
"687 788 CURVE SMOOTH",
"800 788 OFFCURVE",
"912 752 OFFCURVE",
"1007 681 CURVE"
);
},
{
closed = 1;
nodes = (
"262 -66 LINE",
"191 29 OFFCURVE",
"155 142 OFFCURVE",
"155 255 CURVE SMOOTH",
"155 370 OFFCURVE",
"192 485 OFFCURVE",
"266 581 CURVE",
"224 618 LINE",
"142 512 OFFCURVE",
"100 385 OFFCURVE",
"100 257 CURVE SMOOTH",
"100 130 OFFCURVE",
"142 3 OFFCURVE",
"224 -103 CURVE"
);
},
{
closed = 1;
nodes = (
"816 -329 OFFCURVE",
"942 -289 OFFCURVE",
"1047 -208 CURVE",
"1012 -168 LINE",
"917 -239 OFFCURVE",
"805 -275 OFFCURVE",
"692 -275 CURVE SMOOTH",
"581 -275 OFFCURVE",
"470 -240 OFFCURVE",
"376 -171 CURVE",
"340 -213 LINE",
"443 -291 OFFCURVE",
"566 -329 OFFCURVE",
"690 -329 CURVE SMOOTH"
);
},
{
closed = 1;
nodes = (
"1230 4 OFFCURVE",
"1270 130 OFFCURVE",
"1270 257 CURVE SMOOTH",
"1270 384 OFFCURVE",
"1230 511 OFFCURVE",
"1147 616 CURVE",
"1112 576 LINE",
"1184 481 OFFCURVE",
"1220 367 OFFCURVE",
"1220 254 CURVE SMOOTH",
"1220 143 OFFCURVE",
"1186 32 OFFCURVE",
"1117 -61 CURVE",
"1149 -101 LINE"
);
},
{
closed = 1;
nodes = (
"1009 619 LINE",
"1009 674 LINE",
"378 674 LINE",
"378 619 LINE"
);
},
{
closed = 1;
nodes = (
"1009 -163 LINE",
"1009 -108 LINE",
"378 -108 LINE",
"378 -163 LINE"
);
},
{
closed = 1;
nodes = (
"1126 552 OFFCURVE",
"1172 591 OFFCURVE",
"1172 647 CURVE SMOOTH",
"1172 699 OFFCURVE",
"1130 742 OFFCURVE",
"1077 742 CURVE SMOOTH",
"1025 742 OFFCURVE",
"982 699 OFFCURVE",
"982 647 CURVE SMOOTH",
"982 595 OFFCURVE",
"1026 552 OFFCURVE",
"1077 552 CURVE SMOOTH"
);
},
{
closed = 1;
nodes = (
"1047 588 OFFCURVE",
"1018 611 OFFCURVE",
"1018 647 CURVE SMOOTH",
"1018 679 OFFCURVE",
"1046 707 OFFCURVE",
"1078 707 CURVE SMOOTH",
"1107 707 OFFCURVE",
"1137 682 OFFCURVE",
"1137 647 CURVE SMOOTH",
"1137 617 OFFCURVE",
"1113 588 OFFCURVE",
"1077 588 CURVE SMOOTH"
);
},
{
closed = 1;
nodes = (
"352 552 OFFCURVE",
"396 595 OFFCURVE",
"396 647 CURVE SMOOTH",
"396 699 OFFCURVE",
"353 742 OFFCURVE",
"301 742 CURVE SMOOTH",
"248 742 OFFCURVE",
"206 699 OFFCURVE",
"206 647 CURVE SMOOTH",
"206 591 OFFCURVE",
"252 552 OFFCURVE",
"301 552 CURVE SMOOTH"
);
},
{
closed = 1;
nodes = (
"265 588 OFFCURVE",
"241 617 OFFCURVE",
"241 647 CURVE SMOOTH",
"241 682 OFFCURVE",
"271 707 OFFCURVE",
"300 707 CURVE SMOOTH",
"332 707 OFFCURVE",
"360 679 OFFCURVE",
"360 647 CURVE SMOOTH",
"360 611 OFFCURVE",
"331 588 OFFCURVE",
"301 588 CURVE SMOOTH"
);
},
{
closed = 1;
nodes = (
"347 -230 OFFCURVE",
"390 -187 OFFCURVE",
"390 -135 CURVE SMOOTH",
"390 -84 OFFCURVE",
"346 -40 OFFCURVE",
"295 -40 CURVE SMOOTH",
"246 -40 OFFCURVE",
"200 -80 OFFCURVE",
"200 -135 CURVE SMOOTH",
"200 -188 OFFCURVE",
"243 -230 OFFCURVE",
"295 -230 CURVE SMOOTH"
);
},
{
closed = 1;
nodes = (
"265 -194 OFFCURVE",
"236 -171 OFFCURVE",
"236 -135 CURVE SMOOTH",
"236 -102 OFFCURVE",
"264 -76 OFFCURVE",
"296 -76 CURVE SMOOTH",
"325 -76 OFFCURVE",
"355 -99 OFFCURVE",
"355 -135 CURVE SMOOTH",
"355 -165 OFFCURVE",
"331 -194 OFFCURVE",
"295 -194 CURVE SMOOTH"
);
},
{
closed = 1;
nodes = (
"1135 -230 OFFCURVE",
"1178 -188 OFFCURVE",
"1178 -135 CURVE SMOOTH",
"1178 -80 OFFCURVE",
"1132 -40 OFFCURVE",
"1083 -40 CURVE SMOOTH",
"1032 -40 OFFCURVE",
"988 -84 OFFCURVE",
"988 -135 CURVE SMOOTH",
"988 -187 OFFCURVE",
"1031 -230 OFFCURVE",
"1083 -230 CURVE SMOOTH"
);
},
{
closed = 1;
nodes = (
"1047 -194 OFFCURVE",
"1023 -165 OFFCURVE",
"1023 -135 CURVE SMOOTH",
"1023 -99 OFFCURVE",
"1053 -76 OFFCURVE",
"1082 -76 CURVE SMOOTH",
"1114 -76 OFFCURVE",
"1142 -102 OFFCURVE",
"1142 -135 CURVE SMOOTH",
"1142 -171 OFFCURVE",
"1113 -194 OFFCURVE",
"1083 -194 CURVE SMOOTH"
);
}
);
width = 1370;
},
{
anchors = (
{
name = digits;
position = "{602, 80}";
}
);
layerId = "D3B47D5E-6A85-4361-9DF6-638C8B7E2782";
paths = (
{
closed = 1;
nodes = (
"1062 721 LINE",
"957 802 OFFCURVE",
"831 842 OFFCURVE",
"705 842 CURVE SMOOTH",
"581 842 OFFCURVE",
"458 804 OFFCURVE",
"355 726 CURVE",
"380 714 LINE",
"474 784 OFFCURVE",
"592 818 OFFCURVE",
"706 818 CURVE SMOOTH",
"822 818 OFFCURVE",
"939 782 OFFCURVE",
"1034 711 CURVE"
);
},
{
closed = 1;
nodes = (
"254 -73 LINE",
"183 22 OFFCURVE",
"144 140 OFFCURVE",
"144 255 CURVE SMOOTH",
"144 370 OFFCURVE",
"181 495 OFFCURVE",
"255 591 CURVE",
"244 618 LINE",
"162 512 OFFCURVE",
"120 385 OFFCURVE",
"120 257 CURVE SMOOTH",
"120 130 OFFCURVE",
"162 3 OFFCURVE",
"244 -103 CURVE"
);
},
{
closed = 1;
nodes = (
"836 -329 OFFCURVE",
"962 -289 OFFCURVE",
"1067 -208 CURVE",
"1039 -198 LINE",
"944 -269 OFFCURVE",
"827 -305 OFFCURVE",
"711 -305 CURVE SMOOTH",
"585 -305 OFFCURVE",
"470 -264 OFFCURVE",
"376 -194 CURVE",
"359 -212 LINE",
"462 -290 OFFCURVE",
"586 -329 OFFCURVE",
"710 -329 CURVE SMOOTH"
);
},
{
closed = 1;
nodes = (
"1249 3 OFFCURVE",
"1290 130 OFFCURVE",
"1290 257 CURVE SMOOTH",
"1290 385 OFFCURVE",
"1248 512 OFFCURVE",
"1166 618 CURVE",
"1155 591 LINE",
"1229 495 OFFCURVE",
"1266 370 OFFCURVE",
"1266 255 CURVE SMOOTH",
"1266 140 OFFCURVE",
"1228 22 OFFCURVE",
"1157 -73 CURVE",
"1167 -103 LINE"
);
},
{
closed = 1;
nodes = (
"1029 636 LINE",
"1029 659 LINE",
"398 659 LINE",
"398 636 LINE"
);
},
{
closed = 1;
nodes = (
"1029 -146 LINE",
"1029 -123 LINE",
"398 -123 LINE",
"398 -146 LINE"
);
},
{
closed = 1;
nodes = (
"1146 557 OFFCURVE",
"1187 598 OFFCURVE",
"1187 647 CURVE SMOOTH",
"1187 696 OFFCURVE",
"1147 737 OFFCURVE",
"1097 737 CURVE SMOOTH",
"1048 737 OFFCURVE",
"1007 696 OFFCURVE",
"1007 647 CURVE SMOOTH",
"1007 598 OFFCURVE",
"1047 557 OFFCURVE",
"1096 557 CURVE SMOOTH"
);
},
{
closed = 1;
nodes = (
"1060 581 OFFCURVE",
"1031 611 OFFCURVE",
"1031 647 CURVE SMOOTH",
"1031 683 OFFCURVE",
"1060 713 OFFCURVE",
"1096 713 CURVE SMOOTH",
"1132 713 OFFCURVE",
"1162 683 OFFCURVE",
"1162 647 CURVE SMOOTH",
"1162 611 OFFCURVE",
"1132 581 OFFCURVE",
"1096 581 CURVE SMOOTH"
);
},
{
closed = 1;
nodes = (
"370 558 OFFCURVE",
"411 599 OFFCURVE",
"411 648 CURVE SMOOTH",
"411 697 OFFCURVE",
"371 738 OFFCURVE",
"321 738 CURVE SMOOTH",
"272 738 OFFCURVE",
"231 697 OFFCURVE",
"231 648 CURVE SMOOTH",
"231 599 OFFCURVE",
"271 558 OFFCURVE",
"320 558 CURVE SMOOTH"
);
},
{
closed = 1;
nodes = (
"284 582 OFFCURVE",
"255 612 OFFCURVE",
"255 648 CURVE SMOOTH",
"255 684 OFFCURVE",
"284 714 OFFCURVE",
"320 714 CURVE SMOOTH",
"356 714 OFFCURVE",
"386 684 OFFCURVE",
"386 648 CURVE SMOOTH",
"386 612 OFFCURVE",
"356 582 OFFCURVE",
"320 582 CURVE SMOOTH"
);
},
{
closed = 1;
nodes = (
"365 -225 OFFCURVE",
"406 -184 OFFCURVE",
"406 -135 CURVE SMOOTH",
"406 -86 OFFCURVE",
"366 -45 OFFCURVE",
"316 -45 CURVE SMOOTH",
"267 -45 OFFCURVE",
"226 -86 OFFCURVE",
"226 -135 CURVE SMOOTH",
"226 -184 OFFCURVE",
"266 -225 OFFCURVE",
"315 -225 CURVE SMOOTH"
);
},
{
closed = 1;
nodes = (
"279 -201 OFFCURVE",
"250 -171 OFFCURVE",
"250 -135 CURVE SMOOTH",
"250 -99 OFFCURVE",
"279 -69 OFFCURVE",
"315 -69 CURVE SMOOTH",
"351 -69 OFFCURVE",
"381 -99 OFFCURVE",
"381 -135 CURVE SMOOTH",
"381 -171 OFFCURVE",
"351 -201 OFFCURVE",
"315 -201 CURVE SMOOTH"
);
},
{
closed = 1;
nodes = (
"1152 -225 OFFCURVE",
"1193 -184 OFFCURVE",
"1193 -135 CURVE SMOOTH",
"1193 -86 OFFCURVE",
"1153 -45 OFFCURVE",
"1103 -45 CURVE SMOOTH",
"1054 -45 OFFCURVE",
"1013 -86 OFFCURVE",
"1013 -135 CURVE SMOOTH",
"1013 -184 OFFCURVE",
"1053 -225 OFFCURVE",
"1102 -225 CURVE SMOOTH"
);
},
{
closed = 1;
nodes = (
"1066 -201 OFFCURVE",
"1037 -171 OFFCURVE",
"1037 -135 CURVE SMOOTH",
"1037 -99 OFFCURVE",
"1066 -69 OFFCURVE",
"1102 -69 CURVE SMOOTH",
"1138 -69 OFFCURVE",
"1168 -99 OFFCURVE",
"1168 -135 CURVE SMOOTH",
"1168 -171 OFFCURVE",
"1138 -201 OFFCURVE",
"1102 -201 CURVE SMOOTH"
);
}
);
width = 1410;
},
{
anchors = (
{
name = digits;
position = "{564, 80}";
}
);
layerId = "08F1692B-9525-48D2-9816-1987B1C44D50";
paths = (
{
closed = 1;
nodes = (
"1042 721 LINE",
"937 802 OFFCURVE",
"811 842 OFFCURVE",
"685 842 CURVE SMOOTH",
"561 842 OFFCURVE",
"438 804 OFFCURVE",
"335 726 CURVE",
"371 684 LINE",
"465 753 OFFCURVE",
"576 788 OFFCURVE",
"687 788 CURVE SMOOTH",
"800 788 OFFCURVE",
"912 752 OFFCURVE",
"1007 681 CURVE"
);
},
{
closed = 1;
nodes = (
"262 -66 LINE",
"191 29 OFFCURVE",
"155 142 OFFCURVE",
"155 255 CURVE SMOOTH",
"155 370 OFFCURVE",
"192 485 OFFCURVE",
"266 581 CURVE",
"224 618 LINE",
"142 512 OFFCURVE",
"100 385 OFFCURVE",
"100 257 CURVE SMOOTH",
"100 130 OFFCURVE",
"142 3 OFFCURVE",
"224 -103 CURVE"
);
},
{
closed = 1;
nodes = (
"816 -329 OFFCURVE",
"942 -289 OFFCURVE",
"1047 -208 CURVE",
"1012 -168 LINE",
"917 -239 OFFCURVE",
"805 -275 OFFCURVE",
"692 -275 CURVE SMOOTH",
"581 -275 OFFCURVE",
"470 -240 OFFCURVE",
"376 -171 CURVE",
"340 -213 LINE",
"443 -291 OFFCURVE",
"566 -329 OFFCURVE",
"690 -329 CURVE SMOOTH"
);
},
{
closed = 1;
nodes = (
"1230 4 OFFCURVE",
"1270 130 OFFCURVE",
"1270 257 CURVE SMOOTH",
"1270 384 OFFCURVE",
"1230 511 OFFCURVE",
"1147 616 CURVE",
"1112 576 LINE",
"1184 481 OFFCURVE",
"1220 367 OFFCURVE",
"1220 254 CURVE SMOOTH",
"1220 143 OFFCURVE",
"1186 32 OFFCURVE",
"1117 -61 CURVE",
"1149 -101 LINE"
);
},
{
closed = 1;
nodes = (
"1009 619 LINE",
"1009 674 LINE",
"378 674 LINE",
"378 619 LINE"
);
},
{
closed = 1;
nodes = (
"1009 -163 LINE",
"1009 -108 LINE",
"378 -108 LINE",
"378 -163 LINE"
);
},
{
closed = 1;
nodes = (
"1126 552 OFFCURVE",
"1172 591 OFFCURVE",
"1172 647 CURVE SMOOTH",
"1172 699 OFFCURVE",
"1130 742 OFFCURVE",
"1077 742 CURVE SMOOTH",
"1025 742 OFFCURVE",
"982 699 OFFCURVE",
"982 647 CURVE SMOOTH",
"982 595 OFFCURVE",
"1026 552 OFFCURVE",
"1077 552 CURVE SMOOTH"
);
},
{
closed = 1;
nodes = (
"1047 588 OFFCURVE",
"1018 611 OFFCURVE",
"1018 647 CURVE SMOOTH",
"1018 679 OFFCURVE",
"1046 707 OFFCURVE",
"1078 707 CURVE SMOOTH",
"1107 707 OFFCURVE",
"1137 682 OFFCURVE",
"1137 647 CURVE SMOOTH",
"1137 617 OFFCURVE",
"1113 588 OFFCURVE",
"1077 588 CURVE SMOOTH"
);
},
{
closed = 1;
nodes = (
"352 552 OFFCURVE",
"396 595 OFFCURVE",
"396 647 CURVE SMOOTH",
"396 699 OFFCURVE",
"353 742 OFFCURVE",
"301 742 CURVE SMOOTH",
"248 742 OFFCURVE",
"206 699 OFFCURVE",
"206 647 CURVE SMOOTH",
"206 591 OFFCURVE",
"252 552 OFFCURVE",
"301 552 CURVE SMOOTH"
);
},
{
closed = 1;
nodes = (
"265 588 OFFCURVE",
"241 617 OFFCURVE",
"241 647 CURVE SMOOTH",
"241 682 OFFCURVE",
"271 707 OFFCURVE",
"300 707 CURVE SMOOTH",
"332 707 OFFCURVE",
"360 679 OFFCURVE",
"360 647 CURVE SMOOTH",
"360 611 OFFCURVE",
"331 588 OFFCURVE",
"301 588 CURVE SMOOTH"
);
},
{
closed = 1;
nodes = (
"347 -230 OFFCURVE",
"390 -187 OFFCURVE",
"390 -135 CURVE SMOOTH",
"390 -84 OFFCURVE",
"346 -40 OFFCURVE",
"295 -40 CURVE SMOOTH",
"246 -40 OFFCURVE",
"200 -80 OFFCURVE",
"200 -135 CURVE SMOOTH",
"200 -188 OFFCURVE",
"243 -230 OFFCURVE",
"295 -230 CURVE SMOOTH"
);
},
{
closed = 1;
nodes = (
"265 -194 OFFCURVE",
"236 -171 OFFCURVE",
"236 -135 CURVE SMOOTH",
"236 -102 OFFCURVE",
"264 -76 OFFCURVE",
"296 -76 CURVE SMOOTH",
"325 -76 OFFCURVE",
"355 -99 OFFCURVE",
"355 -135 CURVE SMOOTH",
"355 -165 OFFCURVE",
"331 -194 OFFCURVE",
"295 -194 CURVE SMOOTH"
);
},
{
closed = 1;
nodes = (
"1135 -230 OFFCURVE",
"1178 -188 OFFCURVE",
"1178 -135 CURVE SMOOTH",
"1178 -80 OFFCURVE",
"1132 -40 OFFCURVE",
"1083 -40 CURVE SMOOTH",
"1032 -40 OFFCURVE",
"988 -84 OFFCURVE",
"988 -135 CURVE SMOOTH",
"988 -187 OFFCURVE",
"1031 -230 OFFCURVE",
"1083 -230 CURVE SMOOTH"
);
},
{
closed = 1;
nodes = (
"1047 -194 OFFCURVE",
"1023 -165 OFFCURVE",
"1023 -135 CURVE SMOOTH",
"1023 -99 OFFCURVE",
"1053 -76 OFFCURVE",
"1082 -76 CURVE SMOOTH",
"1114 -76 OFFCURVE",
"1142 -102 OFFCURVE",
"1142 -135 CURVE SMOOTH",
"1142 -171 OFFCURVE",
"1113 -194 OFFCURVE",
"1083 -194 CURVE SMOOTH"
);
}
);
width = 1370;
},
{
anchors = (
{
name = digits;
position = "{558, 80}";
}
);
layerId = "A2AC38AA-6CC4-4B2B-B5AB-64A49772F2D3";
paths = (
{
closed = 1;
nodes = (
"1062 721 LINE",
"957 802 OFFCURVE",
"831 842 OFFCURVE",
"705 842 CURVE SMOOTH",
"581 842 OFFCURVE",
"458 804 OFFCURVE",
"355 726 CURVE",
"380 714 LINE",
"474 784 OFFCURVE",
"592 818 OFFCURVE",
"706 818 CURVE SMOOTH",
"822 818 OFFCURVE",
"939 782 OFFCURVE",
"1034 711 CURVE"
);
},
{
closed = 1;
nodes = (
"254 -73 LINE",
"183 22 OFFCURVE",
"144 140 OFFCURVE",
"144 255 CURVE SMOOTH",
"144 370 OFFCURVE",
"181 495 OFFCURVE",
"255 591 CURVE",
"244 618 LINE",
"162 512 OFFCURVE",
"120 385 OFFCURVE",
"120 257 CURVE SMOOTH",
"120 130 OFFCURVE",
"162 3 OFFCURVE",
"244 -103 CURVE"
);
},
{
closed = 1;
nodes = (
"836 -329 OFFCURVE",
"962 -289 OFFCURVE",
"1067 -208 CURVE",
"1039 -198 LINE",
"944 -269 OFFCURVE",
"827 -305 OFFCURVE",
"711 -305 CURVE SMOOTH",
"585 -305 OFFCURVE",
"470 -264 OFFCURVE",
"376 -194 CURVE",
"359 -212 LINE",
"462 -290 OFFCURVE",
"586 -329 OFFCURVE",
"710 -329 CURVE SMOOTH"
);
},
{
closed = 1;
nodes = (
"1249 3 OFFCURVE",
"1290 130 OFFCURVE",
"1290 257 CURVE SMOOTH",
"1290 385 OFFCURVE",
"1248 512 OFFCURVE",
"1166 618 CURVE",
"1155 591 LINE",
"1229 495 OFFCURVE",
"1266 370 OFFCURVE",
"1266 255 CURVE SMOOTH",
"1266 140 OFFCURVE",
"1228 22 OFFCURVE",
"1157 -73 CURVE",
"1167 -103 LINE"
);
},
{
closed = 1;
nodes = (
"1029 636 LINE",
"1029 659 LINE",
"398 659 LINE",
"398 636 LINE"
);
},
{
closed = 1;
nodes = (
"1029 -146 LINE",
"1029 -123 LINE",
"398 -123 LINE",
"398 -146 LINE"
);
},
{
closed = 1;
nodes = (
"1146 557 OFFCURVE",
"1187 598 OFFCURVE",
"1187 647 CURVE SMOOTH",
"1187 696 OFFCURVE",
"1147 737 OFFCURVE",
"1097 737 CURVE SMOOTH",
"1048 737 OFFCURVE",
"1007 696 OFFCURVE",
"1007 647 CURVE SMOOTH",
"1007 598 OFFCURVE",
"1047 557 OFFCURVE",
"1096 557 CURVE SMOOTH"
);
},
{
closed = 1;
nodes = (
"1060 581 OFFCURVE",
"1031 611 OFFCURVE",
"1031 647 CURVE SMOOTH",
"1031 683 OFFCURVE",
"1060 713 OFFCURVE",
"1096 713 CURVE SMOOTH",
"1132 713 OFFCURVE",
"1162 683 OFFCURVE",
"1162 647 CURVE SMOOTH",
"1162 611 OFFCURVE",
"1132 581 OFFCURVE",
"1096 581 CURVE SMOOTH"
);
},
{
closed = 1;
nodes = (
"370 558 OFFCURVE",
"411 599 OFFCURVE",
"411 648 CURVE SMOOTH",
"411 697 OFFCURVE",
"371 738 OFFCURVE",
"321 738 CURVE SMOOTH",
"272 738 OFFCURVE",
"231 697 OFFCURVE",
"231 648 CURVE SMOOTH",
"231 599 OFFCURVE",
"271 558 OFFCURVE",
"320 558 CURVE SMOOTH"
);
},
{
closed = 1;
nodes = (
"284 582 OFFCURVE",
"255 612 OFFCURVE",
"255 648 CURVE SMOOTH",
"255 684 OFFCURVE",
"284 714 OFFCURVE",
"320 714 CURVE SMOOTH",
"356 714 OFFCURVE",
"386 684 OFFCURVE",
"386 648 CURVE SMOOTH",
"386 612 OFFCURVE",
"356 582 OFFCURVE",
"320 582 CURVE SMOOTH"
);
},
{
closed = 1;
nodes = (
"365 -225 OFFCURVE",
"406 -184 OFFCURVE",
"406 -135 CURVE SMOOTH",
"406 -86 OFFCURVE",
"366 -45 OFFCURVE",
"316 -45 CURVE SMOOTH",
"267 -45 OFFCURVE",
"226 -86 OFFCURVE",
"226 -135 CURVE SMOOTH",
"226 -184 OFFCURVE",
"266 -225 OFFCURVE",
"315 -225 CURVE SMOOTH"
);
},
{
closed = 1;
nodes = (
"279 -201 OFFCURVE",
"250 -171 OFFCURVE",
"250 -135 CURVE SMOOTH",
"250 -99 OFFCURVE",
"279 -69 OFFCURVE",
"315 -69 CURVE SMOOTH",
"351 -69 OFFCURVE",
"381 -99 OFFCURVE",
"381 -135 CURVE SMOOTH",
"381 -171 OFFCURVE",
"351 -201 OFFCURVE",
"315 -201 CURVE SMOOTH"
);
},
{
closed = 1;
nodes = (
"1152 -225 OFFCURVE",
"1193 -184 OFFCURVE",
"1193 -135 CURVE SMOOTH",
"1193 -86 OFFCURVE",
"1153 -45 OFFCURVE",
"1103 -45 CURVE SMOOTH",
"1054 -45 OFFCURVE",
"1013 -86 OFFCURVE",
"1013 -135 CURVE SMOOTH",
"1013 -184 OFFCURVE",
"1053 -225 OFFCURVE",
"1102 -225 CURVE SMOOTH"
);
},
{
closed = 1;
nodes = (
"1066 -201 OFFCURVE",
"1037 -171 OFFCURVE",
"1037 -135 CURVE SMOOTH",
"1037 -99 OFFCURVE",
"1066 -69 OFFCURVE",
"1102 -69 CURVE SMOOTH",
"1138 -69 OFFCURVE",
"1168 -99 OFFCURVE",
"1168 -135 CURVE SMOOTH",
"1168 -171 OFFCURVE",
"1138 -201 OFFCURVE",
"1102 -201 CURVE SMOOTH"
);
}
);
width = 1410;
},
{
anchors = (
{
name = digits;
position = "{538, 80}";
}
);
layerId = "6D0603BE-7277-4DA4-8C59-7934AF28E45B";
paths = (
{
closed = 1;
nodes = (
"1042 721 LINE",
"937 802 OFFCURVE",
"811 842 OFFCURVE",
"685 842 CURVE SMOOTH",
"561 842 OFFCURVE",
"438 804 OFFCURVE",
"335 726 CURVE",
"371 684 LINE",
"465 753 OFFCURVE",
"576 788 OFFCURVE",
"687 788 CURVE SMOOTH",
"800 788 OFFCURVE",
"912 752 OFFCURVE",
"1007 681 CURVE"
);
},
{
closed = 1;
nodes = (
"262 -66 LINE",
"191 29 OFFCURVE",
"155 142 OFFCURVE",
"155 255 CURVE SMOOTH",
"155 370 OFFCURVE",
"192 485 OFFCURVE",
"266 581 CURVE",
"224 618 LINE",
"142 512 OFFCURVE",
"100 385 OFFCURVE",
"100 257 CURVE SMOOTH",
"100 130 OFFCURVE",
"142 3 OFFCURVE",
"224 -103 CURVE"
);
},
{
closed = 1;
nodes = (
"816 -329 OFFCURVE",
"942 -289 OFFCURVE",
"1047 -208 CURVE",
"1012 -168 LINE",
"917 -239 OFFCURVE",
"805 -275 OFFCURVE",
"692 -275 CURVE SMOOTH",
"581 -275 OFFCURVE",
"470 -240 OFFCURVE",
"376 -171 CURVE",
"340 -213 LINE",
"443 -291 OFFCURVE",
"566 -329 OFFCURVE",
"690 -329 CURVE SMOOTH"
);
},
{
closed = 1;
nodes = (
"1230 4 OFFCURVE",
"1270 130 OFFCURVE",
"1270 257 CURVE SMOOTH",
"1270 384 OFFCURVE",
"1230 511 OFFCURVE",
"1147 616 CURVE",
"1112 576 LINE",
"1184 481 OFFCURVE",
"1220 367 OFFCURVE",
"1220 254 CURVE SMOOTH",
"1220 143 OFFCURVE",
"1186 32 OFFCURVE",
"1117 -61 CURVE",
"1149 -101 LINE"
);
},
{
closed = 1;
nodes = (
"1009 619 LINE",
"1009 674 LINE",
"378 674 LINE",
"378 619 LINE"
);
},
{
closed = 1;
nodes = (
"1009 -163 LINE",
"1009 -108 LINE",
"378 -108 LINE",
"378 -163 LINE"
);
},
{
closed = 1;
nodes = (
"1126 552 OFFCURVE",
"1172 591 OFFCURVE",
"1172 647 CURVE SMOOTH",
"1172 699 OFFCURVE",
"1130 742 OFFCURVE",
"1077 742 CURVE SMOOTH",
"1025 742 OFFCURVE",
"982 699 OFFCURVE",
"982 647 CURVE SMOOTH",
"982 595 OFFCURVE",
"1026 552 OFFCURVE",
"1077 552 CURVE SMOOTH"
);
},
{
closed = 1;
nodes = (
"1047 588 OFFCURVE",
"1018 611 OFFCURVE",
"1018 647 CURVE SMOOTH",
"1018 679 OFFCURVE",
"1046 707 OFFCURVE",
"1078 707 CURVE SMOOTH",
"1107 707 OFFCURVE",
"1137 682 OFFCURVE",
"1137 647 CURVE SMOOTH",
"1137 617 OFFCURVE",
"1113 588 OFFCURVE",
"1077 588 CURVE SMOOTH"
);
},
{
closed = 1;
nodes = (
"352 552 OFFCURVE",
"396 595 OFFCURVE",
"396 647 CURVE SMOOTH",
"396 699 OFFCURVE",
"353 742 OFFCURVE",
"301 742 CURVE SMOOTH",
"248 742 OFFCURVE",
"206 699 OFFCURVE",
"206 647 CURVE SMOOTH",
"206 591 OFFCURVE",
"252 552 OFFCURVE",
"301 552 CURVE SMOOTH"
);
},
{
closed = 1;
nodes = (
"265 588 OFFCURVE",
"241 617 OFFCURVE",
"241 647 CURVE SMOOTH",
"241 682 OFFCURVE",
"271 707 OFFCURVE",
"300 707 CURVE SMOOTH",
"332 707 OFFCURVE",
"360 679 OFFCURVE",
"360 647 CURVE SMOOTH",
"360 611 OFFCURVE",
"331 588 OFFCURVE",
"301 588 CURVE SMOOTH"
);
},
{
closed = 1;
nodes = (
"347 -230 OFFCURVE",
"390 -187 OFFCURVE",
"390 -135 CURVE SMOOTH",
"390 -84 OFFCURVE",
"346 -40 OFFCURVE",
"295 -40 CURVE SMOOTH",
"246 -40 OFFCURVE",
"200 -80 OFFCURVE",
"200 -135 CURVE SMOOTH",
"200 -188 OFFCURVE",
"243 -230 OFFCURVE",
"295 -230 CURVE SMOOTH"
);
},
{
closed = 1;
nodes = (
"265 -194 OFFCURVE",
"236 -171 OFFCURVE",
"236 -135 CURVE SMOOTH",
"236 -102 OFFCURVE",
"264 -76 OFFCURVE",
"296 -76 CURVE SMOOTH",
"325 -76 OFFCURVE",
"355 -99 OFFCURVE",
"355 -135 CURVE SMOOTH",
"355 -165 OFFCURVE",
"331 -194 OFFCURVE",
"295 -194 CURVE SMOOTH"
);
},
{
closed = 1;
nodes = (
"1135 -230 OFFCURVE",
"1178 -188 OFFCURVE",
"1178 -135 CURVE SMOOTH",
"1178 -80 OFFCURVE",
"1132 -40 OFFCURVE",
"1083 -40 CURVE SMOOTH",
"1032 -40 OFFCURVE",
"988 -84 OFFCURVE",
"988 -135 CURVE SMOOTH",
"988 -187 OFFCURVE",
"1031 -230 OFFCURVE",
"1083 -230 CURVE SMOOTH"
);
},
{
closed = 1;
nodes = (
"1047 -194 OFFCURVE",
"1023 -165 OFFCURVE",
"1023 -135 CURVE SMOOTH",
"1023 -99 OFFCURVE",
"1053 -76 OFFCURVE",
"1082 -76 CURVE SMOOTH",
"1114 -76 OFFCURVE",
"1142 -102 OFFCURVE",
"1142 -135 CURVE SMOOTH",
"1142 -171 OFFCURVE",
"1113 -194 OFFCURVE",
"1083 -194 CURVE SMOOTH"
);
}
);
width = 1370;
},
{
anchors = (
{
name = digits;
position = "{539, 80}";
}
);
layerId = "E1555194-BAFD-4DCC-A026-E2F9BA1917F2";
paths = (
{
closed = 1;
nodes = (
"1042 721 LINE",
"937 802 OFFCURVE",
"811 842 OFFCURVE",
"685 842 CURVE SMOOTH",
"561 842 OFFCURVE",
"438 804 OFFCURVE",
"335 726 CURVE",
"371 684 LINE",
"465 753 OFFCURVE",
"576 788 OFFCURVE",
"687 788 CURVE SMOOTH",
"800 788 OFFCURVE",
"912 752 OFFCURVE",
"1007 681 CURVE"
);
},
{
closed = 1;
nodes = (
"262 -66 LINE",
"191 29 OFFCURVE",
"155 142 OFFCURVE",
"155 255 CURVE SMOOTH",
"155 370 OFFCURVE",
"192 485 OFFCURVE",
"266 581 CURVE",
"224 618 LINE",
"142 512 OFFCURVE",
"100 385 OFFCURVE",
"100 257 CURVE SMOOTH",
"100 130 OFFCURVE",
"142 3 OFFCURVE",
"224 -103 CURVE"
);
},
{
closed = 1;
nodes = (
"816 -329 OFFCURVE",
"942 -289 OFFCURVE",
"1047 -208 CURVE",
"1012 -168 LINE",
"917 -239 OFFCURVE",
"805 -275 OFFCURVE",
"692 -275 CURVE SMOOTH",
"581 -275 OFFCURVE",
"470 -240 OFFCURVE",
"376 -171 CURVE",
"340 -213 LINE",
"443 -291 OFFCURVE",
"566 -329 OFFCURVE",
"690 -329 CURVE SMOOTH"
);
},
{
closed = 1;
nodes = (
"1230 4 OFFCURVE",
"1270 130 OFFCURVE",
"1270 257 CURVE SMOOTH",
"1270 384 OFFCURVE",
"1230 511 OFFCURVE",
"1147 616 CURVE",
"1112 576 LINE",
"1184 481 OFFCURVE",
"1220 367 OFFCURVE",
"1220 254 CURVE SMOOTH",
"1220 143 OFFCURVE",
"1186 32 OFFCURVE",
"1117 -61 CURVE",
"1149 -101 LINE"
);
},
{
closed = 1;
nodes = (
"1009 619 LINE",
"1009 674 LINE",
"378 674 LINE",
"378 619 LINE"
);
},
{
closed = 1;
nodes = (
"1009 -163 LINE",
"1009 -108 LINE",
"378 -108 LINE",
"378 -163 LINE"
);
},
{
closed = 1;
nodes = (
"1126 552 OFFCURVE",
"1172 591 OFFCURVE",
"1172 647 CURVE SMOOTH",
"1172 699 OFFCURVE",
"1130 742 OFFCURVE",
"1077 742 CURVE SMOOTH",
"1025 742 OFFCURVE",
"982 699 OFFCURVE",
"982 647 CURVE SMOOTH",
"982 595 OFFCURVE",
"1026 552 OFFCURVE",
"1077 552 CURVE SMOOTH"
);
},
{
closed = 1;
nodes = (
"1047 588 OFFCURVE",
"1018 611 OFFCURVE",
"1018 647 CURVE SMOOTH",
"1018 679 OFFCURVE",
"1046 707 OFFCURVE",
"1078 707 CURVE SMOOTH",
"1107 707 OFFCURVE",
"1137 682 OFFCURVE",
"1137 647 CURVE SMOOTH",
"1137 617 OFFCURVE",
"1113 588 OFFCURVE",
"1077 588 CURVE SMOOTH"
);
},
{
closed = 1;
nodes = (
"352 552 OFFCURVE",
"396 595 OFFCURVE",
"396 647 CURVE SMOOTH",
"396 699 OFFCURVE",
"353 742 OFFCURVE",
"301 742 CURVE SMOOTH",
"248 742 OFFCURVE",
"206 699 OFFCURVE",
"206 647 CURVE SMOOTH",
"206 591 OFFCURVE",
"252 552 OFFCURVE",
"301 552 CURVE SMOOTH"
);
},
{
closed = 1;
nodes = (
"265 588 OFFCURVE",
"241 617 OFFCURVE",
"241 647 CURVE SMOOTH",
"241 682 OFFCURVE",
"271 707 OFFCURVE",
"300 707 CURVE SMOOTH",
"332 707 OFFCURVE",
"360 679 OFFCURVE",
"360 647 CURVE SMOOTH",
"360 611 OFFCURVE",
"331 588 OFFCURVE",
"301 588 CURVE SMOOTH"
);
},
{
closed = 1;
nodes = (
"347 -230 OFFCURVE",
"390 -187 OFFCURVE",
"390 -135 CURVE SMOOTH",
"390 -84 OFFCURVE",
"346 -40 OFFCURVE",
"295 -40 CURVE SMOOTH",
"246 -40 OFFCURVE",
"200 -80 OFFCURVE",
"200 -135 CURVE SMOOTH",
"200 -188 OFFCURVE",
"243 -230 OFFCURVE",
"295 -230 CURVE SMOOTH"
);
},
{
closed = 1;
nodes = (
"265 -194 OFFCURVE",
"236 -171 OFFCURVE",
"236 -135 CURVE SMOOTH",
"236 -102 OFFCURVE",
"264 -76 OFFCURVE",
"296 -76 CURVE SMOOTH",
"325 -76 OFFCURVE",
"355 -99 OFFCURVE",
"355 -135 CURVE SMOOTH",
"355 -165 OFFCURVE",
"331 -194 OFFCURVE",
"295 -194 CURVE SMOOTH"
);
},
{
closed = 1;
nodes = (
"1135 -230 OFFCURVE",
"1178 -188 OFFCURVE",
"1178 -135 CURVE SMOOTH",
"1178 -80 OFFCURVE",
"1132 -40 OFFCURVE",
"1083 -40 CURVE SMOOTH",
"1032 -40 OFFCURVE",
"988 -84 OFFCURVE",
"988 -135 CURVE SMOOTH",
"988 -187 OFFCURVE",
"1031 -230 OFFCURVE",
"1083 -230 CURVE SMOOTH"
);
},
{
closed = 1;
nodes = (
"1047 -194 OFFCURVE",
"1023 -165 OFFCURVE",
"1023 -135 CURVE SMOOTH",
"1023 -99 OFFCURVE",
"1053 -76 OFFCURVE",
"1082 -76 CURVE SMOOTH",
"1114 -76 OFFCURVE",
"1142 -102 OFFCURVE",
"1142 -135 CURVE SMOOTH",
"1142 -171 OFFCURVE",
"1113 -194 OFFCURVE",
"1083 -194 CURVE SMOOTH"
);
}
);
width = 1370;
},
{
anchors = (
{
name = digits;
position = "{536, 80}";
}
);
layerId = "8594390A-478C-48BC-BAB2-0B8797A53DFB";
paths = (
{
closed = 1;
nodes = (
"1042 721 LINE",
"937 802 OFFCURVE",
"811 842 OFFCURVE",
"685 842 CURVE SMOOTH",
"561 842 OFFCURVE",
"438 804 OFFCURVE",
"335 726 CURVE",
"371 684 LINE",
"465 753 OFFCURVE",
"576 788 OFFCURVE",
"687 788 CURVE SMOOTH",
"800 788 OFFCURVE",
"912 752 OFFCURVE",
"1007 681 CURVE"
);
},
{
closed = 1;
nodes = (
"262 -66 LINE",
"191 29 OFFCURVE",
"155 142 OFFCURVE",
"155 255 CURVE SMOOTH",
"155 370 OFFCURVE",
"192 485 OFFCURVE",
"266 581 CURVE",
"224 618 LINE",
"142 512 OFFCURVE",
"100 385 OFFCURVE",
"100 257 CURVE SMOOTH",
"100 130 OFFCURVE",
"142 3 OFFCURVE",
"224 -103 CURVE"
);
},
{
closed = 1;
nodes = (
"816 -329 OFFCURVE",
"942 -289 OFFCURVE",
"1047 -208 CURVE",
"1012 -168 LINE",
"917 -239 OFFCURVE",
"805 -275 OFFCURVE",
"692 -275 CURVE SMOOTH",
"581 -275 OFFCURVE",
"470 -240 OFFCURVE",
"376 -171 CURVE",
"340 -213 LINE",
"443 -291 OFFCURVE",
"566 -329 OFFCURVE",
"690 -329 CURVE SMOOTH"
);
},
{
closed = 1;
nodes = (
"1230 4 OFFCURVE",
"1270 130 OFFCURVE",
"1270 257 CURVE SMOOTH",
"1270 384 OFFCURVE",
"1230 511 OFFCURVE",
"1147 616 CURVE",
"1112 576 LINE",
"1184 481 OFFCURVE",
"1220 367 OFFCURVE",
"1220 254 CURVE SMOOTH",
"1220 143 OFFCURVE",
"1186 32 OFFCURVE",
"1117 -61 CURVE",
"1149 -101 LINE"
);
},
{
closed = 1;
nodes = (
"1009 619 LINE",
"1009 674 LINE",
"378 674 LINE",
"378 619 LINE"
);
},
{
closed = 1;
nodes = (
"1009 -163 LINE",
"1009 -108 LINE",
"378 -108 LINE",
"378 -163 LINE"
);
},
{
closed = 1;
nodes = (
"1126 552 OFFCURVE",
"1172 591 OFFCURVE",
"1172 647 CURVE SMOOTH",
"1172 699 OFFCURVE",
"1130 742 OFFCURVE",
"1077 742 CURVE SMOOTH",
"1025 742 OFFCURVE",
"982 699 OFFCURVE",
"982 647 CURVE SMOOTH",
"982 595 OFFCURVE",
"1026 552 OFFCURVE",
"1077 552 CURVE SMOOTH"
);
},
{
closed = 1;
nodes = (
"1047 588 OFFCURVE",
"1018 611 OFFCURVE",
"1018 647 CURVE SMOOTH",
"1018 679 OFFCURVE",
"1046 707 OFFCURVE",
"1078 707 CURVE SMOOTH",
"1107 707 OFFCURVE",
"1137 682 OFFCURVE",
"1137 647 CURVE SMOOTH",
"1137 617 OFFCURVE",
"1113 588 OFFCURVE",
"1077 588 CURVE SMOOTH"
);
},
{
closed = 1;
nodes = (
"352 552 OFFCURVE",
"396 595 OFFCURVE",
"396 647 CURVE SMOOTH",
"396 699 OFFCURVE",
"353 742 OFFCURVE",
"301 742 CURVE SMOOTH",
"248 742 OFFCURVE",
"206 699 OFFCURVE",
"206 647 CURVE SMOOTH",
"206 591 OFFCURVE",
"252 552 OFFCURVE",
"301 552 CURVE SMOOTH"
);
},
{
closed = 1;
nodes = (
"265 588 OFFCURVE",
"241 617 OFFCURVE",
"241 647 CURVE SMOOTH",
"241 682 OFFCURVE",
"271 707 OFFCURVE",
"300 707 CURVE SMOOTH",
"332 707 OFFCURVE",
"360 679 OFFCURVE",
"360 647 CURVE SMOOTH",
"360 611 OFFCURVE",
"331 588 OFFCURVE",
"301 588 CURVE SMOOTH"
);
},
{
closed = 1;
nodes = (
"347 -230 OFFCURVE",
"390 -187 OFFCURVE",
"390 -135 CURVE SMOOTH",
"390 -84 OFFCURVE",
"346 -40 OFFCURVE",
"295 -40 CURVE SMOOTH",
"246 -40 OFFCURVE",
"200 -80 OFFCURVE",
"200 -135 CURVE SMOOTH",
"200 -188 OFFCURVE",
"243 -230 OFFCURVE",
"295 -230 CURVE SMOOTH"
);
},
{
closed = 1;
nodes = (
"265 -194 OFFCURVE",
"236 -171 OFFCURVE",
"236 -135 CURVE SMOOTH",
"236 -102 OFFCURVE",
"264 -76 OFFCURVE",
"296 -76 CURVE SMOOTH",
"325 -76 OFFCURVE",
"355 -99 OFFCURVE",
"355 -135 CURVE SMOOTH",
"355 -165 OFFCURVE",
"331 -194 OFFCURVE",
"295 -194 CURVE SMOOTH"
);
},
{
closed = 1;
nodes = (
"1135 -230 OFFCURVE",
"1178 -188 OFFCURVE",
"1178 -135 CURVE SMOOTH",
"1178 -80 OFFCURVE",
"1132 -40 OFFCURVE",
"1083 -40 CURVE SMOOTH",
"1032 -40 OFFCURVE",
"988 -84 OFFCURVE",
"988 -135 CURVE SMOOTH",
"988 -187 OFFCURVE",
"1031 -230 OFFCURVE",
"1083 -230 CURVE SMOOTH"
);
},
{
closed = 1;
nodes = (
"1047 -194 OFFCURVE",
"1023 -165 OFFCURVE",
"1023 -135 CURVE SMOOTH",
"1023 -99 OFFCURVE",
"1053 -76 OFFCURVE",
"1082 -76 CURVE SMOOTH",
"1114 -76 OFFCURVE",
"1142 -102 OFFCURVE",
"1142 -135 CURVE SMOOTH",
"1142 -171 OFFCURVE",
"1113 -194 OFFCURVE",
"1083 -194 CURVE SMOOTH"
);
}
);
width = 1370;
}
);
unicode = 06DD;
}
{
glyphname = "fehDotless-ar";
layers = (
{
anchors = (
{
name = bottom.dot;
position = "{619, -19}";
},
{
name = bottom.mark;
position = "{398, -31}";
},
{
name = top;
position = "{657, 501}";
}
);
components = (
{
name = _part.beh.fina;
}
);
layerId = "9B455188-434F-489F-9A18-4C18DBE88840";
paths = (
{
closed = 1;
nodes = (
"537 -21 OFFCURVE",
"663 -12 OFFCURVE",
"709 43 CURVE SMOOTH",
"748 90 OFFCURVE",
"766 155 OFFCURVE",
"766 255 CURVE SMOOTH",
"766 394 OFFCURVE",
"722 501 OFFCURVE",
"628 501 CURVE SMOOTH",
"540 501 OFFCURVE",
"483 393 OFFCURVE",
"483 289 CURVE SMOOTH",
"483 224 OFFCURVE",
"517 159 OFFCURVE",
"626 159 CURVE SMOOTH",
"654 159 OFFCURVE",
"692 166 OFFCURVE",
"713 186 CURVE",
"709 249 LINE",
"690 237 OFFCURVE",
"661 231 OFFCURVE",
"635 231 CURVE SMOOTH",
"592 231 OFFCURVE",
"557 246 OFFCURVE",
"557 300 CURVE SMOOTH",
"557 376 OFFCURVE",
"589 427 OFFCURVE",
"622 427 CURVE SMOOTH",
"671 427 OFFCURVE",
"692 349 OFFCURVE",
"692 261 CURVE SMOOTH",
"692 159 OFFCURVE",
"682 112 OFFCURVE",
"651 86 CURVE SMOOTH",
"622 62 OFFCURVE",
"531 53 OFFCURVE",
"316 53 CURVE",
"289 -21 LINE"
);
}
);
width = 804;
},
{
anchors = (
{
name = bottom.dot;
position = "{721, -18}";
},
{
name = bottom.mark;
position = "{471, -31}";
},
{
name = top;
position = "{718, 599}";
}
);
components = (
{
name = _part.beh.fina;
}
);
layerId = "A7E21968-E455-4749-BB19-379F5EDC3B9B";
paths = (
{
closed = 1;
nodes = (
"650 -21 OFFCURVE",
"778 7 OFFCURVE",
"851 95 CURVE SMOOTH",
"885 136 OFFCURVE",
"909 204 OFFCURVE",
"909 307 CURVE SMOOTH",
"909 474 OFFCURVE",
"832 599 OFFCURVE",
"708 599 CURVE SMOOTH",
"590 599 OFFCURVE",
"506 487 OFFCURVE",
"506 365 CURVE SMOOTH",
"506 251 OFFCURVE",
"590 208 OFFCURVE",
"663 208 CURVE SMOOTH",
"696 208 OFFCURVE",
"757 223 OFFCURVE",
"789 250 CURVE",
"785 362 LINE",
"757 347 OFFCURVE",
"726 341 OFFCURVE",
"705 341 CURVE SMOOTH",
"676 341 OFFCURVE",
"661 360 OFFCURVE",
"661 393 CURVE SMOOTH",
"661 429 OFFCURVE",
"676 467 OFFCURVE",
"702 467 CURVE SMOOTH",
"732 467 OFFCURVE",
"748 409 OFFCURVE",
"748 312 CURVE SMOOTH",
"748 232 OFFCURVE",
"738 207 OFFCURVE",
"722 189 CURVE SMOOTH",
"693 156 OFFCURVE",
"611 141 OFFCURVE",
"420 141 CURVE",
"394 -21 LINE"
);
}
);
width = 944;
},
{
anchors = (
{
name = bottom.dot;
position = "{541, -25}";
},
{
name = bottom.mark;
position = "{354, -31}";
},
{
name = top;
position = "{547, 481}";
}
);
components = (
{
name = _part.beh.fina;
}
);
layerId = "D3B47D5E-6A85-4361-9DF6-638C8B7E2782";
paths = (
{
closed = 1;
nodes = (
"392 -21 OFFCURVE",
"541 -15 OFFCURVE",
"590 20 CURVE SMOOTH",
"652 64 OFFCURVE",
"668 155 OFFCURVE",
"668 235 CURVE SMOOTH",
"668 367 OFFCURVE",
"625 481 OFFCURVE",
"547 481 CURVE SMOOTH",
"468 481 OFFCURVE",
"420 373 OFFCURVE",
"420 283 CURVE SMOOTH",
"420 187 OFFCURVE",
"487 156 OFFCURVE",
"544 156 CURVE SMOOTH",
"579 156 OFFCURVE",
"621 163 OFFCURVE",
"653 184 CURVE",
"649 205 LINE",
"621 190 OFFCURVE",
"582 179 OFFCURVE",
"548 179 CURVE SMOOTH",
"498 179 OFFCURVE",
"444 201 OFFCURVE",
"444 285 CURVE SMOOTH",
"444 371 OFFCURVE",
"489 456 OFFCURVE",
"543 456 CURVE SMOOTH",
"612 456 OFFCURVE",
"644 339 OFFCURVE",
"644 241 CURVE SMOOTH",
"644 121 OFFCURVE",
"614 66 OFFCURVE",
"580 42 CURVE SMOOTH",
"531 7 OFFCURVE",
"401 2 OFFCURVE",
"296 2 CURVE",
"290 -21 LINE"
);
}
);
width = 713;
},
{
anchors = (
{
name = bottom.dot;
position = "{675, -25}";
},
{
name = bottom.mark;
position = "{443, -31}";
},
{
name = top;
position = "{690, 563}";
}
);
components = (
{
name = _part.beh.fina;
}
);
layerId = "08F1692B-9525-48D2-9816-1987B1C44D50";
paths = (
{
closed = 1;
nodes = (
"621 -21 OFFCURVE",
"730 0 OFFCURVE",
"794 75 CURVE SMOOTH",
"831 118 OFFCURVE",
"853 187 OFFCURVE",
"853 287 CURVE SMOOTH",
"853 444 OFFCURVE",
"787 563 OFFCURVE",
"675 563 CURVE SMOOTH",
"568 563 OFFCURVE",
"494 453 OFFCURVE",
"494 338 CURVE SMOOTH",
"494 239 OFFCURVE",
"563 191 OFFCURVE",
"645 191 CURVE SMOOTH",
"677 191 OFFCURVE",
"730 203 OFFCURVE",
"759 227 CURVE",
"755 320 LINE",
"729 305 OFFCURVE",
"699 299 OFFCURVE",
"675 299 CURVE SMOOTH",
"641 299 OFFCURVE",
"618 317 OFFCURVE",
"618 359 CURVE SMOOTH",
"618 410 OFFCURVE",
"640 455 OFFCURVE",
"669 455 CURVE SMOOTH",
"707 455 OFFCURVE",
"725 387 OFFCURVE",
"725 293 CURVE SMOOTH",
"725 204 OFFCURVE",
"714 171 OFFCURVE",
"693 150 CURVE SMOOTH",
"663 120 OFFCURVE",
"575 107 OFFCURVE",
"382 107 CURVE",
"357 -21 LINE"
);
}
);
width = 888;
},
{
anchors = (
{
name = bottom.dot;
position = "{769, -25}";
},
{
name = bottom.mark;
position = "{484, -21}";
},
{
name = top;
position = "{762, 481}";
}
);
components = (
{
name = _part.beh.fina;
}
);
layerId = "A2AC38AA-6CC4-4B2B-B5AB-64A49772F2D3";
paths = (
{
closed = 1;
nodes = (
"694 -21 OFFCURVE",
"792 -15 OFFCURVE",
"840 20 CURVE SMOOTH",
"901 65 OFFCURVE",
"918 155 OFFCURVE",
"918 235 CURVE SMOOTH",
"918 365 OFFCURVE",
"863 481 OFFCURVE",
"772 481 CURVE SMOOTH",
"688 481 OFFCURVE",
"620 373 OFFCURVE",
"620 283 CURVE SMOOTH",
"620 187 OFFCURVE",
"697 156 OFFCURVE",
"769 156 CURVE SMOOTH",
"825 156 OFFCURVE",
"871 163 OFFCURVE",
"903 184 CURVE",
"899 205 LINE",
"871 191 OFFCURVE",
"828 180 OFFCURVE",
"773 180 CURVE SMOOTH",
"708 180 OFFCURVE",
"644 201 OFFCURVE",
"644 285 CURVE SMOOTH",
"644 369 OFFCURVE",
"709 456 OFFCURVE",
"768 456 CURVE SMOOTH",
"850 456 OFFCURVE",
"894 342 OFFCURVE",
"894 241 CURVE SMOOTH",
"894 121 OFFCURVE",
"859 63 OFFCURVE",
"830 42 CURVE SMOOTH",
"778 5 OFFCURVE",
"679 3 OFFCURVE",
"436 3 CURVE",
"410 -21 LINE"
);
}
);
width = 973;
},
{
anchors = (
{
name = bottom.dot;
position = "{770, -25}";
},
{
name = bottom.mark;
position = "{484, -31}";
},
{
name = top;
position = "{758, 501}";
}
);
components = (
{
name = _part.beh.fina;
}
);
layerId = "6D0603BE-7277-4DA4-8C59-7934AF28E45B";
paths = (
{
closed = 1;
nodes = (
"602 -21 OFFCURVE",
"824 -20 OFFCURVE",
"874 30 CURVE SMOOTH",
"921 77 OFFCURVE",
"938 155 OFFCURVE",
"938 255 CURVE SMOOTH",
"938 381 OFFCURVE",
"885 501 OFFCURVE",
"778 501 CURVE SMOOTH",
"676 501 OFFCURVE",
"610 385 OFFCURVE",
"610 283 CURVE SMOOTH",
"610 197 OFFCURVE",
"667 156 OFFCURVE",
"769 156 CURVE SMOOTH",
"813 156 OFFCURVE",
"859 164 OFFCURVE",
"891 187 CURVE",
"887 257 LINE",
"859 243 OFFCURVE",
"816 235 OFFCURVE",
"778 235 CURVE SMOOTH",
"713 235 OFFCURVE",
"689 261 OFFCURVE",
"689 303 CURVE SMOOTH",
"689 357 OFFCURVE",
"723 419 OFFCURVE",
"770 419 CURVE SMOOTH",
"826 419 OFFCURVE",
"860 344 OFFCURVE",
"860 261 CURVE SMOOTH",
"860 159 OFFCURVE",
"852 110 OFFCURVE",
"813 85 CURVE SMOOTH",
"771 58 OFFCURVE",
"579 61 OFFCURVE",
"416 61 CURVE",
"390 -21 LINE"
);
}
);
width = 983;
},
{
anchors = (
{
name = bottom.dot;
position = "{777, -18}";
},
{
name = bottom.mark;
position = "{508, -31}";
},
{
name = top;
position = "{781, 580}";
}
);
components = (
{
name = _part.beh.fina;
}
);
layerId = "E1555194-BAFD-4DCC-A026-E2F9BA1917F2";
paths = (
{
closed = 1;
nodes = (
"702 -21 OFFCURVE",
"870 0 OFFCURVE",
"921 60 CURVE SMOOTH",
"956 101 OFFCURVE",
"985 192 OFFCURVE",
"985 287 CURVE SMOOTH",
"985 448 OFFCURVE",
"921 580 OFFCURVE",
"785 580 CURVE SMOOTH",
"662 580 OFFCURVE",
"577 453 OFFCURVE",
"577 335 CURVE SMOOTH",
"577 221 OFFCURVE",
"643 183 OFFCURVE",
"749 183 CURVE SMOOTH",
"797 183 OFFCURVE",
"846 196 OFFCURVE",
"878 221 CURVE",
"874 340 LINE",
"846 326 OFFCURVE",
"811 319 OFFCURVE",
"782 319 CURVE SMOOTH",
"736 319 OFFCURVE",
"715 335 OFFCURVE",
"715 362 CURVE SMOOTH",
"715 408 OFFCURVE",
"745 442 OFFCURVE",
"777 442 CURVE SMOOTH",
"820 442 OFFCURVE",
"845 390 OFFCURVE",
"845 292 CURVE SMOOTH",
"845 213 OFFCURVE",
"835 175 OFFCURVE",
"817 157 CURVE SMOOTH",
"788 128 OFFCURVE",
"676 119 OFFCURVE",
"450 119 CURVE",
"424 -21 LINE"
);
}
);
width = 1024;
},
{
anchors = (
{
name = bottom.dot;
position = "{785, -25}";
},
{
name = bottom.mark;
position = "{519, -31}";
},
{
name = top;
position = "{779, 599}";
}
);
components = (
{
name = _part.beh.fina;
}
);
layerId = "8594390A-478C-48BC-BAB2-0B8797A53DFB";
paths = (
{
closed = 1;
nodes = (
"726 -21 OFFCURVE",
"883 4 OFFCURVE",
"953 95 CURVE SMOOTH",
"985 136 OFFCURVE",
"1005 215 OFFCURVE",
"1005 307 CURVE SMOOTH",
"1005 474 OFFCURVE",
"927 599 OFFCURVE",
"785 599 CURVE SMOOTH",
"662 599 OFFCURVE",
"570 487 OFFCURVE",
"570 365 CURVE SMOOTH",
"570 249 OFFCURVE",
"652 201 OFFCURVE",
"737 201 CURVE SMOOTH",
"786 201 OFFCURVE",
"837 216 OFFCURVE",
"869 243 CURVE",
"865 361 LINE",
"837 346 OFFCURVE",
"806 340 OFFCURVE",
"785 340 CURVE SMOOTH",
"750 340 OFFCURVE",
"731 360 OFFCURVE",
"731 393 CURVE SMOOTH",
"731 430 OFFCURVE",
"748 461 OFFCURVE",
"778 461 CURVE SMOOTH",
"813 461 OFFCURVE",
"838 416 OFFCURVE",
"838 312 CURVE SMOOTH",
"838 238 OFFCURVE",
"828 209 OFFCURVE",
"815 191 CURVE SMOOTH",
"789 155 OFFCURVE",
"703 147 OFFCURVE",
"480 147 CURVE",
"454 -21 LINE"
);
}
);
width = 1060;
}
);
leftKerningGroup = tooth;
rightMetricsKey = "sad-ar";
unicode = 06A1;
}
{
glyphname = "fiveFarsi-ar";
layers = (
{
layerId = "9B455188-434F-489F-9A18-4C18DBE88840";
paths = (
{
closed = 1;
nodes = (
"216 0 OFFCURVE",
"242 42 OFFCURVE",
"242 73 CURVE",
"221 73 LINE",
"221 40 OFFCURVE",
"239 0 OFFCURVE",
"298 0 CURVE SMOOTH",
"385 0 OFFCURVE",
"415 87 OFFCURVE",
"415 190 CURVE SMOOTH",
"415 307 OFFCURVE",
"357 512 OFFCURVE",
"211 675 CURVE",
"151 623 LINE",
"299 457 OFFCURVE",
"341 290 OFFCURVE",
"341 187 CURVE SMOOTH",
"341 94 OFFCURVE",
"318 75 OFFCURVE",
"295 75 CURVE SMOOTH",
"268 75 OFFCURVE",
"263 99 OFFCURVE",
"263 138 CURVE",
"263 151 LINE",
"202 146 LINE",
"202 133 LINE SMOOTH",
"202 101 OFFCURVE",
"194 75 OFFCURVE",
"170 75 CURVE SMOOTH",
"144 75 OFFCURVE",
"131 106 OFFCURVE",
"131 172 CURVE SMOOTH",
"131 314 OFFCURVE",
"205 499 OFFCURVE",
"283 571 CURVE",
"243 628 LINE",
"152 559 OFFCURVE",
"60 333 OFFCURVE",
"60 174 CURVE SMOOTH",
"60 54 OFFCURVE",
"104 0 OFFCURVE",
"164 0 CURVE SMOOTH"
);
}
);
width = 475;
},
{
layerId = "A7E21968-E455-4749-BB19-379F5EDC3B9B";
paths = (
{
closed = 1;
nodes = (
"257 0 OFFCURVE",
"304 52 OFFCURVE",
"304 103 CURVE",
"283 103 LINE",
"283 51 OFFCURVE",
"334 0 OFFCURVE",
"401 0 CURVE SMOOTH",
"498 0 OFFCURVE",
"550 92 OFFCURVE",
"550 182 CURVE SMOOTH",
"550 327 OFFCURVE",
"455 520 OFFCURVE",
"279 693 CURVE",
"163 581 LINE",
"312 433 OFFCURVE",
"388 280 OFFCURVE",
"390 191 CURVE SMOOTH",
"391 170 OFFCURVE",
"384 142 OFFCURVE",
"368 142 CURVE SMOOTH",
"350 142 OFFCURVE",
"346 164 OFFCURVE",
"346 208 CURVE SMOOTH",
"346 224 LINE",
"250 219 LINE",
"250 203 LINE SMOOTH",
"250 168 OFFCURVE",
"245 142 OFFCURVE",
"227 142 CURVE SMOOTH",
"212 142 OFFCURVE",
"205 172 OFFCURVE",
"205 199 CURVE SMOOTH",
"205 277 OFFCURVE",
"262 440 OFFCURVE",
"389 509 CURVE",
"259 596 LINE",
"164 534 OFFCURVE",
"45 351 OFFCURVE",
"45 173 CURVE SMOOTH",
"45 57 OFFCURVE",
"108 0 OFFCURVE",
"189 0 CURVE SMOOTH"
);
}
);
width = 595;
},
{
guideLines = (
{
position = "{144, 24}";
}
);
layerId = "D3B47D5E-6A85-4361-9DF6-638C8B7E2782";
paths = (
{
closed = 1;
nodes = (
"203 0 OFFCURVE",
"229 42 OFFCURVE",
"229 73 CURVE",
"217 73 LINE",
"217 41 OFFCURVE",
"237 0 OFFCURVE",
"285 0 CURVE SMOOTH",
"359 0 OFFCURVE",
"388 88 OFFCURVE",
"385 174 CURVE SMOOTH",
"381 298 OFFCURVE",
"331 501 OFFCURVE",
"188 670 CURVE",
"170 653 LINE",
"308 491 OFFCURVE",
"357 294 OFFCURVE",
"361 172 CURVE SMOOTH",
"364 93 OFFCURVE",
"339 24 OFFCURVE",
"284 24 CURVE SMOOTH",
"256 24 OFFCURVE",
"235 48 OFFCURVE",
"235 89 CURVE SMOOTH",
"235 152 LINE",
"211 150 LINE",
"211 85 LINE SMOOTH",
"211 48 OFFCURVE",
"184 24 OFFCURVE",
"157 24 CURVE SMOOTH",
"121 24 OFFCURVE",
"89 68 OFFCURVE",
"89 163 CURVE SMOOTH",
"89 320 OFFCURVE",
"176 478 OFFCURVE",
"245 590 CURVE",
"233 611 LINE",
"161 494 OFFCURVE",
"65 330 OFFCURVE",
"65 163 CURVE SMOOTH",
"65 75 OFFCURVE",
"92 0 OFFCURVE",
"157 0 CURVE SMOOTH"
);
}
);
width = 450;
},
{
layerId = "08F1692B-9525-48D2-9816-1987B1C44D50";
paths = (
{
closed = 1;
nodes = (
"246 0 OFFCURVE",
"286 48 OFFCURVE",
"286 92 CURVE",
"265 92 LINE",
"265 47 OFFCURVE",
"305 0 OFFCURVE",
"368 0 CURVE SMOOTH",
"461 0 OFFCURVE",
"505 86 OFFCURVE",
"505 181 CURVE SMOOTH",
"505 310 OFFCURVE",
"433 513 OFFCURVE",
"258 680 CURVE",
"164 591 LINE",
"311 440 OFFCURVE",
"377 274 OFFCURVE",
"378 186 CURVE SMOOTH",
"379 137 OFFCURVE",
"366 115 OFFCURVE",
"346 115 CURVE SMOOTH",
"325 115 OFFCURVE",
"320 138 OFFCURVE",
"320 180 CURVE SMOOTH",
"320 198 LINE",
"238 193 LINE",
"238 176 LINE SMOOTH",
"238 141 OFFCURVE",
"231 115 OFFCURVE",
"211 115 CURVE SMOOTH",
"191 115 OFFCURVE",
"181 140 OFFCURVE",
"181 186 CURVE SMOOTH",
"181 281 OFFCURVE",
"247 463 OFFCURVE",
"357 528 CURVE",
"257 600 LINE",
"164 536 OFFCURVE",
"55 335 OFFCURVE",
"55 170 CURVE SMOOTH",
"55 53 OFFCURVE",
"110 0 OFFCURVE",
"184 0 CURVE SMOOTH"
);
}
);
width = 560;
},
{
guideLines = (
{
position = "{171, 24}";
}
);
layerId = "A2AC38AA-6CC4-4B2B-B5AB-64A49772F2D3";
paths = (
{
closed = 1;
nodes = (
"230 0 OFFCURVE",
"256 42 OFFCURVE",
"256 73 CURVE",
"244 73 LINE",
"244 41 OFFCURVE",
"264 0 OFFCURVE",
"322 0 CURVE SMOOTH",
"406 0 OFFCURVE",
"430 88 OFFCURVE",
"430 163 CURVE SMOOTH",
"430 338 OFFCURVE",
"378 491 OFFCURVE",
"215 670 CURVE",
"197 653 LINE",
"355 481 OFFCURVE",
"406 334 OFFCURVE",
"406 163 CURVE SMOOTH",
"406 93 OFFCURVE",
"386 24 OFFCURVE",
"321 24 CURVE SMOOTH",
"283 24 OFFCURVE",
"262 48 OFFCURVE",
"262 89 CURVE",
"262 152 LINE",
"238 150 LINE",
"238 85 LINE SMOOTH",
"238 48 OFFCURVE",
"211 24 OFFCURVE",
"174 24 CURVE SMOOTH",
"128 24 OFFCURVE",
"94 68 OFFCURVE",
"94 163 CURVE SMOOTH",
"94 360 OFFCURVE",
"191 507 OFFCURVE",
"272 590 CURVE",
"260 611 LINE",
"176 523 OFFCURVE",
"70 370 OFFCURVE",
"70 163 CURVE SMOOTH",
"70 75 OFFCURVE",
"99 0 OFFCURVE",
"174 0 CURVE SMOOTH"
);
}
);
width = 500;
},
{
layerId = "6D0603BE-7277-4DA4-8C59-7934AF28E45B";
paths = (
{
closed = 1;
nodes = (
"250 0 OFFCURVE",
"277 42 OFFCURVE",
"277 73 CURVE",
"256 73 LINE",
"256 41 OFFCURVE",
"289 0 OFFCURVE",
"347 0 CURVE SMOOTH",
"435 0 OFFCURVE",
"480 85 OFFCURVE",
"480 173 CURVE SMOOTH",
"480 317 OFFCURVE",
"417 507 OFFCURVE",
"260 680 CURVE",
"194 628 LINE",
"350 456 OFFCURVE",
"404 291 OFFCURVE",
"404 170 CURVE SMOOTH",
"404 94 OFFCURVE",
"374 77 OFFCURVE",
"340 77 CURVE SMOOTH",
"308 77 OFFCURVE",
"298 99 OFFCURVE",
"298 140 CURVE",
"298 153 LINE",
"237 148 LINE",
"237 135 LINE SMOOTH",
"237 103 OFFCURVE",
"232 77 OFFCURVE",
"196 77 CURVE SMOOTH",
"153 77 OFFCURVE",
"136 107 OFFCURVE",
"136 177 CURVE SMOOTH",
"136 308 OFFCURVE",
"237 478 OFFCURVE",
"310 555 CURVE",
"260 603 LINE",
"184 523 OFFCURVE",
"65 341 OFFCURVE",
"65 173 CURVE SMOOTH",
"65 50 OFFCURVE",
"117 0 OFFCURVE",
"189 0 CURVE SMOOTH"
);
}
);
width = 545;
},
{
layerId = "E1555194-BAFD-4DCC-A026-E2F9BA1917F2";
paths = (
{
closed = 1;
nodes = (
"281 0 OFFCURVE",
"322 48 OFFCURVE",
"322 91 CURVE",
"301 91 LINE",
"301 47 OFFCURVE",
"348 0 OFFCURVE",
"418 0 CURVE SMOOTH",
"519 0 OFFCURVE",
"570 95 OFFCURVE",
"570 201 CURVE SMOOTH",
"570 323 OFFCURVE",
"491 486 OFFCURVE",
"298 677 CURVE",
"201 585 LINE",
"378 401 OFFCURVE",
"423 282 OFFCURVE",
"429 204 CURVE SMOOTH",
"432 163 OFFCURVE",
"421 136 OFFCURVE",
"391 136 CURVE SMOOTH",
"365 136 OFFCURVE",
"359 160 OFFCURVE",
"359 199 CURVE SMOOTH",
"359 212 LINE",
"269 207 LINE",
"269 194 LINE SMOOTH",
"269 165 OFFCURVE",
"264 136 OFFCURVE",
"238 136 CURVE SMOOTH",
"214 136 OFFCURVE",
"200 162 OFFCURVE",
"200 203 CURVE SMOOTH",
"200 301 OFFCURVE",
"283 405 OFFCURVE",
"385 505 CURVE",
"273 577 LINE",
"185 483 OFFCURVE",
"60 334 OFFCURVE",
"60 170 CURVE SMOOTH",
"60 58 OFFCURVE",
"121 0 OFFCURVE",
"203 0 CURVE SMOOTH"
);
}
);
width = 630;
},
{
layerId = "8594390A-478C-48BC-BAB2-0B8797A53DFB";
paths = (
{
closed = 1;
nodes = (
"292 0 OFFCURVE",
"339 52 OFFCURVE",
"339 103 CURVE",
"318 103 LINE",
"318 51 OFFCURVE",
"371 0 OFFCURVE",
"445 0 CURVE SMOOTH",
"559 0 OFFCURVE",
"616 85 OFFCURVE",
"616 182 CURVE SMOOTH",
"616 317 OFFCURVE",
"510 500 OFFCURVE",
"317 684 CURVE",
"190 572 LINE",
"340 414 OFFCURVE",
"446 270 OFFCURVE",
"448 200 CURVE SMOOTH",
"449 166 OFFCURVE",
"437 148 OFFCURVE",
"415 148 CURVE SMOOTH",
"391 148 OFFCURVE",
"387 170 OFFCURVE",
"387 211 CURVE SMOOTH",
"387 224 LINE",
"279 219 LINE",
"279 206 LINE SMOOTH",
"279 174 OFFCURVE",
"274 148 OFFCURVE",
"250 148 CURVE SMOOTH",
"229 148 OFFCURVE",
"218 170 OFFCURVE",
"218 197 CURVE SMOOTH",
"218 267 OFFCURVE",
"295 389 OFFCURVE",
"422 500 CURVE",
"286 587 LINE",
"191 483 OFFCURVE",
"50 341 OFFCURVE",
"50 173 CURVE SMOOTH",
"50 50 OFFCURVE",
"117 0 OFFCURVE",
"215 0 CURVE SMOOTH"
);
}
);
width = 666;
}
);
leftKerningGroup = "five-ar";
leftMetricsKey = "five-ar";
rightKerningGroup = "five-ar";
rightMetricsKey = "five-ar";
unicode = 06F5;
}
{
glyphname = "four-persian";
layers = (
{
layerId = "9B455188-434F-489F-9A18-4C18DBE88840";
paths = (
{
closed = 1;
nodes = (
"212 116 OFFCURVE",
"191 451 OFFCURVE",
"127 678 CURVE",
"55 656 LINE",
"113 446 OFFCURVE",
"144 60 OFFCURVE",
"144 -6 CURVE",
"212 0 LINE"
);
},
{
closed = 1;
nodes = (
"304 439 OFFCURVE",
"345 446 OFFCURVE",
"403 477 CURVE",
"387 538 LINE",
"351 521 OFFCURVE",
"339 517 OFFCURVE",
"306 508 CURVE",
"317 476 LINE",
"365 495 LINE",
"323 494 OFFCURVE",
"269 533 OFFCURVE",
"269 571 CURVE SMOOTH",
"269 590 OFFCURVE",
"283 606 OFFCURVE",
"315 606 CURVE SMOOTH",
"326 606 OFFCURVE",
"339 604 OFFCURVE",
"350 600 CURVE",
"360 668 LINE",
"348 673 OFFCURVE",
"330 677 OFFCURVE",
"308 677 CURVE SMOOTH",
"232 677 OFFCURVE",
"197 630 OFFCURVE",
"197 579 CURVE SMOOTH",
"197 519 OFFCURVE",
"247 481 OFFCURVE",
"294 467 CURVE",
"296 506 LINE",
"224 503 OFFCURVE",
"174 509 OFFCURVE",
"138 519 CURVE",
"142 450 LINE",
"175 443 OFFCURVE",
"209 439 OFFCURVE",
"247 439 CURVE SMOOTH"
);
}
);
width = 428;
},
{
layerId = "A7E21968-E455-4749-BB19-379F5EDC3B9B";
paths = (
{
closed = 1;
nodes = (
"280 138 OFFCURVE",
"261 469 OFFCURVE",
"191 690 CURVE",
"30 647 LINE",
"89 428 OFFCURVE",
"119 73 OFFCURVE",
"119 8 CURVE",
"280 0 LINE"
);
},
{
closed = 1;
nodes = (
"408 323 OFFCURVE",
"464 337 OFFCURVE",
"532 368 CURVE",
"498 500 LINE",
"464 482 OFFCURVE",
"436 471 OFFCURVE",
"407 461 CURVE",
"433 426 LINE",
"473 455 LINE",
"438 462 OFFCURVE",
"402 492 OFFCURVE",
"402 530 CURVE SMOOTH",
"402 551 OFFCURVE",
"413 561 OFFCURVE",
"436 561 CURVE SMOOTH",
"447 561 OFFCURVE",
"459 559 OFFCURVE",
"475 556 CURVE",
"483 679 LINE",
"465 685 OFFCURVE",
"440 692 OFFCURVE",
"407 692 CURVE SMOOTH",
"315 692 OFFCURVE",
"262 637 OFFCURVE",
"262 565 CURVE SMOOTH",
"262 497 OFFCURVE",
"308 442 OFFCURVE",
"339 427 CURVE",
"377 459 LINE",
"314 456 OFFCURVE",
"267 460 OFFCURVE",
"235 466 CURVE",
"237 329 LINE",
"271 325 OFFCURVE",
"295 323 OFFCURVE",
"326 323 CURVE SMOOTH"
);
}
);
width = 537;
},
{
layerId = "D3B47D5E-6A85-4361-9DF6-638C8B7E2782";
paths = (
{
closed = 1;
nodes = (
"147 100 OFFCURVE",
"119 446 OFFCURVE",
"58 673 CURVE",
"35 667 LINE",
"94 446 OFFCURVE",
"124 80 OFFCURVE",
"124 4 CURVE",
"147 3 LINE"
);
},
{
closed = 1;
nodes = (
"246 450 OFFCURVE",
"291 463 OFFCURVE",
"349 494 CURVE",
"344 516 LINE",
"308 498 OFFCURVE",
"289 486 OFFCURVE",
"239 476 CURVE",
"244 472 LINE",
"255 472 LINE",
"205 490 OFFCURVE",
"168 521 OFFCURVE",
"168 575 CURVE SMOOTH",
"168 613 OFFCURVE",
"186 649 OFFCURVE",
"245 649 CURVE SMOOTH",
"262 649 OFFCURVE",
"282 646 OFFCURVE",
"299 642 CURVE",
"302 664 LINE",
"284 670 OFFCURVE",
"262 673 OFFCURVE",
"244 673 CURVE SMOOTH",
"173 673 OFFCURVE",
"144 624 OFFCURVE",
"144 574 CURVE SMOOTH",
"144 510 OFFCURVE",
"192 477 OFFCURVE",
"218 466 CURVE",
"226 472 LINE",
"152 472 OFFCURVE",
"130 477 OFFCURVE",
"83 492 CURVE",
"83 469 LINE",
"100 462 OFFCURVE",
"141 450 OFFCURVE",
"192 450 CURVE SMOOTH"
);
}
);
width = 379;
},
{
layerId = "08F1692B-9525-48D2-9816-1987B1C44D50";
paths = (
{
closed = 1;
nodes = (
"256 148 OFFCURVE",
"229 489 OFFCURVE",
"168 682 CURVE",
"40 646 LINE",
"93 468 OFFCURVE",
"130 105 OFFCURVE",
"130 7 CURVE",
"255 0 LINE"
);
},
{
closed = 1;
nodes = (
"368 360 OFFCURVE",
"419 372 OFFCURVE",
"483 403 CURVE",
"456 509 LINE",
"421 491 OFFCURVE",
"399 482 OFFCURVE",
"367 472 CURVE",
"388 439 LINE",
"428 464 LINE",
"391 468 OFFCURVE",
"349 502 OFFCURVE",
"349 538 CURVE SMOOTH",
"349 563 OFFCURVE",
"361 577 OFFCURVE",
"387 577 CURVE SMOOTH",
"401 577 OFFCURVE",
"413 575 OFFCURVE",
"428 571 CURVE",
"436 672 LINE",
"420 678 OFFCURVE",
"397 684 OFFCURVE",
"369 684 CURVE SMOOTH",
"282 684 OFFCURVE",
"236 630 OFFCURVE",
"236 566 CURVE SMOOTH",
"236 500 OFFCURVE",
"282 453 OFFCURVE",
"319 437 CURVE",
"344 469 LINE",
"281 467 OFFCURVE",
"236 471 OFFCURVE",
"203 477 CURVE",
"205 367 LINE",
"238 363 OFFCURVE",
"263 360 OFFCURVE",
"293 360 CURVE SMOOTH"
);
}
);
width = 503;
},
{
layerId = "A2AC38AA-6CC4-4B2B-B5AB-64A49772F2D3";
paths = (
{
closed = 1;
nodes = (
"147 100 OFFCURVE",
"119 448 OFFCURVE",
"58 675 CURVE",
"35 669 LINE",
"94 448 OFFCURVE",
"124 76 OFFCURVE",
"124 0 CURVE",
"147 3 LINE"
);
},
{
closed = 1;
nodes = (
"296 443 OFFCURVE",
"351 456 OFFCURVE",
"409 487 CURVE",
"404 510 LINE",
"368 492 OFFCURVE",
"339 480 OFFCURVE",
"289 470 CURVE",
"294 466 LINE",
"305 466 LINE",
"241 485 OFFCURVE",
"202 521 OFFCURVE",
"202 572 CURVE SMOOTH",
"202 619 OFFCURVE",
"236 650 OFFCURVE",
"291 650 CURVE SMOOTH",
"316 650 OFFCURVE",
"343 644 OFFCURVE",
"359 640 CURVE",
"362 663 LINE",
"344 669 OFFCURVE",
"314 674 OFFCURVE",
"291 674 CURVE SMOOTH",
"220 674 OFFCURVE",
"178 628 OFFCURVE",
"178 570 CURVE SMOOTH",
"178 509 OFFCURVE",
"230 470 OFFCURVE",
"268 460 CURVE",
"276 466 LINE",
"172 466 OFFCURVE",
"150 471 OFFCURVE",
"83 486 CURVE",
"83 462 LINE",
"105 457 OFFCURVE",
"148 443 OFFCURVE",
"223 443 CURVE SMOOTH"
);
}
);
width = 444;
},
{
guideLines = (
{
position = "{223, 678}";
}
);
layerId = "6D0603BE-7277-4DA4-8C59-7934AF28E45B";
paths = (
{
closed = 1;
nodes = (
"216 116 OFFCURVE",
"195 451 OFFCURVE",
"131 678 CURVE",
"51 656 LINE",
"109 446 OFFCURVE",
"140 70 OFFCURVE",
"140 4 CURVE",
"216 0 LINE"
);
},
{
closed = 1;
nodes = (
"349 418 OFFCURVE",
"404 432 OFFCURVE",
"462 463 CURVE",
"446 530 LINE",
"410 512 OFFCURVE",
"383 501 OFFCURVE",
"335 491 CURVE",
"361 456 LINE",
"411 475 LINE",
"370 474 OFFCURVE",
"300 519 OFFCURVE",
"300 565 CURVE SMOOTH",
"300 590 OFFCURVE",
"322 601 OFFCURVE",
"358 601 CURVE SMOOTH",
"377 601 OFFCURVE",
"393 598 OFFCURVE",
"409 594 CURVE",
"417 668 LINE",
"399 674 OFFCURVE",
"374 678 OFFCURVE",
"353 678 CURVE SMOOTH",
"274 678 OFFCURVE",
"224 630 OFFCURVE",
"224 567 CURVE SMOOTH",
"224 510 OFFCURVE",
"272 463 OFFCURVE",
"321 447 CURVE",
"325 489 LINE",
"262 486 OFFCURVE",
"195 490 OFFCURVE",
"163 496 CURVE",
"167 424 LINE",
"201 420 OFFCURVE",
"246 418 OFFCURVE",
"274 418 CURVE SMOOTH"
);
}
);
width = 492;
},
{
guideLines = (
{
position = "{-4466, 432}";
}
);
layerId = "E1555194-BAFD-4DCC-A026-E2F9BA1917F2";
paths = (
{
closed = 1;
nodes = (
"269 129 OFFCURVE",
"248 461 OFFCURVE",
"182 684 CURVE",
"45 646 LINE",
"101 433 OFFCURVE",
"134 103 OFFCURVE",
"134 -4 CURVE",
"269 0 LINE"
);
},
{
closed = 1;
nodes = (
"416 349 OFFCURVE",
"471 363 OFFCURVE",
"535 394 CURVE",
"508 515 LINE",
"474 497 OFFCURVE",
"446 486 OFFCURVE",
"397 476 CURVE",
"423 441 LINE",
"467 466 LINE",
"439 469 OFFCURVE",
"389 491 OFFCURVE",
"389 536 CURVE SMOOTH",
"389 559 OFFCURVE",
"406 568 OFFCURVE",
"427 568 CURVE SMOOTH",
"443 568 OFFCURVE",
"464 565 OFFCURVE",
"480 561 CURVE",
"488 672 LINE",
"470 678 OFFCURVE",
"433 684 OFFCURVE",
"411 684 CURVE SMOOTH",
"314 684 OFFCURVE",
"262 631 OFFCURVE",
"262 565 CURVE SMOOTH",
"262 490 OFFCURVE",
"308 454 OFFCURVE",
"347 438 CURVE",
"375 474 LINE",
"312 471 OFFCURVE",
"265 475 OFFCURVE",
"221 481 CURVE",
"224 355 LINE",
"270 351 OFFCURVE",
"295 349 OFFCURVE",
"323 349 CURVE SMOOTH"
);
}
);
width = 560;
},
{
layerId = "8594390A-478C-48BC-BAB2-0B8797A53DFB";
paths = (
{
closed = 1;
nodes = (
"296 139 OFFCURVE",
"277 471 OFFCURVE",
"207 692 CURVE",
"35 646 LINE",
"94 428 OFFCURVE",
"124 57 OFFCURVE",
"124 -7 CURVE",
"296 0 LINE"
);
},
{
closed = 1;
nodes = (
"457 316 OFFCURVE",
"514 330 OFFCURVE",
"582 361 CURVE",
"548 499 LINE",
"514 481 OFFCURVE",
"486 470 OFFCURVE",
"437 460 CURVE",
"463 425 LINE",
"503 454 LINE",
"470 460 OFFCURVE",
"432 488 OFFCURVE",
"432 522 CURVE SMOOTH",
"432 544 OFFCURVE",
"448 554 OFFCURVE",
"470 554 CURVE SMOOTH",
"484 554 OFFCURVE",
"509 550 OFFCURVE",
"525 546 CURVE",
"533 677 LINE",
"517 683 OFFCURVE",
"478 691 OFFCURVE",
"441 691 CURVE SMOOTH",
"347 691 OFFCURVE",
"286 638 OFFCURVE",
"286 561 CURVE SMOOTH",
"286 494 OFFCURVE",
"331 442 OFFCURVE",
"363 426 CURVE",
"407 458 LINE",
"344 455 OFFCURVE",
"297 459 OFFCURVE",
"245 465 CURVE",
"247 322 LINE",
"301 318 OFFCURVE",
"324 316 OFFCURVE",
"360 316 CURVE SMOOTH"
);
}
);
width = 597;
}
);
leftMetricsKey = "=one-ar";
rightKerningGroup = "two-ar";
unicode = 06F4;
}
{
glyphname = "fourFarsi-ar";
layers = (
{
layerId = "9B455188-434F-489F-9A18-4C18DBE88840";
paths = (
{
closed = 1;
nodes = (
"198 116 OFFCURVE",
"177 451 OFFCURVE",
"113 678 CURVE",
"41 656 LINE",
"99 446 OFFCURVE",
"130 60 OFFCURVE",
"130 -6 CURVE",
"198 0 LINE"
);
},
{
closed = 1;
nodes = (
"290 439 OFFCURVE",
"331 446 OFFCURVE",
"389 477 CURVE",
"373 538 LINE",
"337 521 OFFCURVE",
"325 517 OFFCURVE",
"292 508 CURVE",
"303 476 LINE",
"351 495 LINE",
"309 494 OFFCURVE",
"255 533 OFFCURVE",
"255 571 CURVE SMOOTH",
"255 590 OFFCURVE",
"269 606 OFFCURVE",
"301 606 CURVE SMOOTH",
"312 606 OFFCURVE",
"325 604 OFFCURVE",
"336 600 CURVE",
"346 668 LINE",
"334 673 OFFCURVE",
"316 677 OFFCURVE",
"294 677 CURVE SMOOTH",
"218 677 OFFCURVE",
"183 630 OFFCURVE",
"183 579 CURVE SMOOTH",
"183 519 OFFCURVE",
"233 481 OFFCURVE",
"280 467 CURVE",
"282 506 LINE",
"210 503 OFFCURVE",
"160 509 OFFCURVE",
"124 519 CURVE",
"128 450 LINE",
"161 443 OFFCURVE",
"195 439 OFFCURVE",
"233 439 CURVE SMOOTH"
);
}
);
width = 429;
},
{
layerId = "A7E21968-E455-4749-BB19-379F5EDC3B9B";
paths = (
{
closed = 1;
nodes = (
"252 138 OFFCURVE",
"233 469 OFFCURVE",
"163 690 CURVE",
"2 647 LINE",
"61 428 OFFCURVE",
"91 73 OFFCURVE",
"91 8 CURVE",
"252 0 LINE"
);
},
{
closed = 1;
nodes = (
"369 323 OFFCURVE",
"425 337 OFFCURVE",
"493 368 CURVE",
"459 500 LINE",
"425 482 OFFCURVE",
"397 471 OFFCURVE",
"368 461 CURVE",
"394 426 LINE",
"434 455 LINE",
"399 462 OFFCURVE",
"363 492 OFFCURVE",
"363 530 CURVE SMOOTH",
"363 551 OFFCURVE",
"374 561 OFFCURVE",
"397 561 CURVE SMOOTH",
"408 561 OFFCURVE",
"420 559 OFFCURVE",
"436 556 CURVE",
"444 679 LINE",
"426 685 OFFCURVE",
"401 692 OFFCURVE",
"368 692 CURVE SMOOTH",
"284 692 OFFCURVE",
"231 637 OFFCURVE",
"231 565 CURVE SMOOTH",
"231 497 OFFCURVE",
"277 442 OFFCURVE",
"308 427 CURVE",
"338 459 LINE",
"275 456 OFFCURVE",
"228 460 OFFCURVE",
"196 466 CURVE",
"198 329 LINE",
"232 325 OFFCURVE",
"256 323 OFFCURVE",
"287 323 CURVE SMOOTH"
);
}
);
width = 495;
},
{
layerId = "D3B47D5E-6A85-4361-9DF6-638C8B7E2782";
paths = (
{
closed = 1;
nodes = (
"149 100 OFFCURVE",
"121 446 OFFCURVE",
"60 673 CURVE",
"37 667 LINE",
"96 446 OFFCURVE",
"126 80 OFFCURVE",
"126 4 CURVE",
"149 3 LINE"
);
},
{
closed = 1;
nodes = (
"248 450 OFFCURVE",
"293 463 OFFCURVE",
"351 494 CURVE",
"346 516 LINE",
"310 498 OFFCURVE",
"291 486 OFFCURVE",
"241 476 CURVE",
"246 472 LINE",
"257 472 LINE",
"207 490 OFFCURVE",
"170 521 OFFCURVE",
"170 575 CURVE SMOOTH",
"170 613 OFFCURVE",
"188 649 OFFCURVE",
"247 649 CURVE SMOOTH",
"264 649 OFFCURVE",
"284 646 OFFCURVE",
"301 642 CURVE",
"304 664 LINE",
"286 670 OFFCURVE",
"264 673 OFFCURVE",
"246 673 CURVE SMOOTH",
"175 673 OFFCURVE",
"146 624 OFFCURVE",
"146 574 CURVE SMOOTH",
"146 510 OFFCURVE",
"194 477 OFFCURVE",
"220 466 CURVE",
"228 472 LINE",
"154 472 OFFCURVE",
"132 477 OFFCURVE",
"85 492 CURVE",
"85 469 LINE",
"102 462 OFFCURVE",
"143 450 OFFCURVE",
"194 450 CURVE SMOOTH"
);
}
);
width = 387;
},
{
layerId = "08F1692B-9525-48D2-9816-1987B1C44D50";
paths = (
{
closed = 1;
nodes = (
"229 148 OFFCURVE",
"202 489 OFFCURVE",
"141 682 CURVE",
"13 646 LINE",
"66 468 OFFCURVE",
"103 105 OFFCURVE",
"103 7 CURVE",
"228 0 LINE"
);
},
{
closed = 1;
nodes = (
"341 360 OFFCURVE",
"392 372 OFFCURVE",
"456 403 CURVE",
"429 509 LINE",
"394 491 OFFCURVE",
"372 482 OFFCURVE",
"340 472 CURVE",
"361 439 LINE",
"401 464 LINE",
"364 468 OFFCURVE",
"322 502 OFFCURVE",
"322 538 CURVE SMOOTH",
"322 563 OFFCURVE",
"334 577 OFFCURVE",
"360 577 CURVE SMOOTH",
"374 577 OFFCURVE",
"386 575 OFFCURVE",
"401 571 CURVE",
"409 672 LINE",
"393 678 OFFCURVE",
"370 684 OFFCURVE",
"342 684 CURVE SMOOTH",
"255 684 OFFCURVE",
"209 630 OFFCURVE",
"209 566 CURVE SMOOTH",
"209 500 OFFCURVE",
"255 453 OFFCURVE",
"292 437 CURVE",
"317 469 LINE",
"254 467 OFFCURVE",
"209 471 OFFCURVE",
"176 477 CURVE",
"178 367 LINE",
"211 363 OFFCURVE",
"236 360 OFFCURVE",
"266 360 CURVE SMOOTH"
);
}
);
width = 469;
},
{
layerId = "A2AC38AA-6CC4-4B2B-B5AB-64A49772F2D3";
paths = (
{
closed = 1;
nodes = (
"210 100 OFFCURVE",
"182 448 OFFCURVE",
"121 675 CURVE",
"98 669 LINE",
"157 448 OFFCURVE",
"187 76 OFFCURVE",
"187 0 CURVE",
"210 3 LINE"
);
},
{
closed = 1;
nodes = (
"359 443 OFFCURVE",
"414 456 OFFCURVE",
"472 487 CURVE",
"467 510 LINE",
"431 492 OFFCURVE",
"402 480 OFFCURVE",
"352 470 CURVE",
"357 466 LINE",
"368 466 LINE",
"304 485 OFFCURVE",
"265 521 OFFCURVE",
"265 572 CURVE SMOOTH",
"265 619 OFFCURVE",
"299 650 OFFCURVE",
"354 650 CURVE SMOOTH",
"379 650 OFFCURVE",
"406 644 OFFCURVE",
"422 640 CURVE",
"425 663 LINE",
"407 669 OFFCURVE",
"377 674 OFFCURVE",
"354 674 CURVE SMOOTH",
"283 674 OFFCURVE",
"241 628 OFFCURVE",
"241 570 CURVE SMOOTH",
"241 509 OFFCURVE",
"293 470 OFFCURVE",
"331 460 CURVE",
"339 466 LINE",
"235 466 OFFCURVE",
"213 471 OFFCURVE",
"146 486 CURVE",
"146 462 LINE",
"168 457 OFFCURVE",
"211 443 OFFCURVE",
"286 443 CURVE SMOOTH"
);
}
);
width = 570;
},
{
guideLines = (
{
position = "{223, 678}";
}
);
layerId = "6D0603BE-7277-4DA4-8C59-7934AF28E45B";
paths = (
{
closed = 1;
nodes = (
"246 116 OFFCURVE",
"225 451 OFFCURVE",
"161 678 CURVE",
"81 656 LINE",
"139 446 OFFCURVE",
"170 70 OFFCURVE",
"170 4 CURVE",
"246 0 LINE"
);
},
{
closed = 1;
nodes = (
"379 418 OFFCURVE",
"434 432 OFFCURVE",
"492 463 CURVE",
"476 530 LINE",
"440 512 OFFCURVE",
"413 501 OFFCURVE",
"365 491 CURVE",
"391 456 LINE",
"441 475 LINE",
"400 474 OFFCURVE",
"330 519 OFFCURVE",
"330 565 CURVE SMOOTH",
"330 590 OFFCURVE",
"352 601 OFFCURVE",
"388 601 CURVE SMOOTH",
"407 601 OFFCURVE",
"423 598 OFFCURVE",
"439 594 CURVE",
"447 668 LINE",
"429 674 OFFCURVE",
"404 678 OFFCURVE",
"383 678 CURVE SMOOTH",
"304 678 OFFCURVE",
"254 630 OFFCURVE",
"254 567 CURVE SMOOTH",
"254 510 OFFCURVE",
"302 463 OFFCURVE",
"351 447 CURVE",
"355 489 LINE",
"292 486 OFFCURVE",
"225 490 OFFCURVE",
"193 496 CURVE",
"197 424 LINE",
"231 420 OFFCURVE",
"276 418 OFFCURVE",
"304 418 CURVE SMOOTH"
);
}
);
width = 572;
},
{
guideLines = (
{
position = "{-4466, 432}";
}
);
layerId = "E1555194-BAFD-4DCC-A026-E2F9BA1917F2";
paths = (
{
closed = 1;
nodes = (
"265 129 OFFCURVE",
"244 461 OFFCURVE",
"178 684 CURVE",
"41 646 LINE",
"97 433 OFFCURVE",
"130 103 OFFCURVE",
"130 -4 CURVE",
"265 0 LINE"
);
},
{
closed = 1;
nodes = (
"412 349 OFFCURVE",
"467 363 OFFCURVE",
"531 394 CURVE",
"504 515 LINE",
"470 497 OFFCURVE",
"442 486 OFFCURVE",
"393 476 CURVE",
"419 441 LINE",
"463 466 LINE",
"435 469 OFFCURVE",
"385 491 OFFCURVE",
"385 536 CURVE SMOOTH",
"385 559 OFFCURVE",
"402 568 OFFCURVE",
"423 568 CURVE SMOOTH",
"439 568 OFFCURVE",
"460 565 OFFCURVE",
"476 561 CURVE",
"484 672 LINE",
"466 678 OFFCURVE",
"429 684 OFFCURVE",
"407 684 CURVE SMOOTH",
"310 684 OFFCURVE",
"258 631 OFFCURVE",
"258 565 CURVE SMOOTH",
"258 490 OFFCURVE",
"304 454 OFFCURVE",
"343 438 CURVE",
"371 474 LINE",
"308 471 OFFCURVE",
"261 475 OFFCURVE",
"217 481 CURVE",
"220 355 LINE",
"266 351 OFFCURVE",
"291 349 OFFCURVE",
"319 349 CURVE SMOOTH"
);
}
);
width = 572;
},
{
layerId = "8594390A-478C-48BC-BAB2-0B8797A53DFB";
paths = (
{
closed = 1;
nodes = (
"281 139 OFFCURVE",
"262 471 OFFCURVE",
"192 692 CURVE",
"20 646 LINE",
"79 428 OFFCURVE",
"109 57 OFFCURVE",
"109 -7 CURVE",
"281 0 LINE"
);
},
{
closed = 1;
nodes = (
"442 316 OFFCURVE",
"499 330 OFFCURVE",
"567 361 CURVE",
"533 499 LINE",
"499 481 OFFCURVE",
"471 470 OFFCURVE",
"422 460 CURVE",
"448 425 LINE",
"488 454 LINE",
"455 460 OFFCURVE",
"417 488 OFFCURVE",
"417 522 CURVE SMOOTH",
"417 544 OFFCURVE",
"433 554 OFFCURVE",
"455 554 CURVE SMOOTH",
"469 554 OFFCURVE",
"494 550 OFFCURVE",
"510 546 CURVE",
"518 677 LINE",
"502 683 OFFCURVE",
"463 691 OFFCURVE",
"426 691 CURVE SMOOTH",
"332 691 OFFCURVE",
"271 638 OFFCURVE",
"271 561 CURVE SMOOTH",
"271 494 OFFCURVE",
"316 442 OFFCURVE",
"348 426 CURVE",
"392 458 LINE",
"329 455 OFFCURVE",
"282 459 OFFCURVE",
"230 465 CURVE",
"232 322 LINE",
"286 318 OFFCURVE",
"309 316 OFFCURVE",
"345 316 CURVE SMOOTH"
);
}
);
width = 586;
}
);
widthMetricsKey = "=zero";
rightKerningGroup = "two-ar";
unicode = 06F4;
}
{
glyphname = "fullstop-ar";
layers = (
{
layerId = "9B455188-434F-489F-9A18-4C18DBE88840";
paths = (
{
closed = 1;
nodes = (
"210 0 LINE",
"219 77 LINE",
"49 77 LINE",
"40 0 LINE"
);
}
);
width = 239;
},
{
layerId = "A7E21968-E455-4749-BB19-379F5EDC3B9B";
paths = (
{
closed = 1;
nodes = (
"250 0 LINE",
"261 89 LINE",
"51 89 LINE",
"40 0 LINE"
);
}
);
width = 281;
},
{
layerId = "D3B47D5E-6A85-4361-9DF6-638C8B7E2782";
paths = (
{
closed = 1;
nodes = (
"190 0 LINE",
"193 24 LINE",
"43 24 LINE",
"40 0 LINE"
);
}
);
width = 219;
},
{
layerId = "08F1692B-9525-48D2-9816-1987B1C44D50";
paths = (
{
closed = 1;
nodes = (
"235 0 LINE",
"245 82 LINE",
"50 82 LINE",
"40 0 LINE"
);
}
);
width = 265;
},
{
layerId = "A2AC38AA-6CC4-4B2B-B5AB-64A49772F2D3";
paths = (
{
closed = 1;
nodes = (
"270 0 LINE",
"273 24 LINE",
"43 24 LINE",
"40 0 LINE"
);
}
);
width = 299;
},
{
layerId = "6D0603BE-7277-4DA4-8C59-7934AF28E45B";
paths = (
{
closed = 1;
nodes = (
"270 0 LINE",
"279 77 LINE",
"49 77 LINE",
"40 0 LINE"
);
}
);
width = 299;
},
{
layerId = "E1555194-BAFD-4DCC-A026-E2F9BA1917F2";
paths = (
{
closed = 1;
nodes = (
"294 0 LINE",
"305 89 LINE",
"50 89 LINE",
"40 0 LINE"
);
}
);
width = 325;
},
{
layerId = "8594390A-478C-48BC-BAB2-0B8797A53DFB";
paths = (
{
closed = 1;
nodes = (
"310 0 LINE",
"321 97 LINE",
"51 97 LINE",
"40 0 LINE"
);
}
);
width = 341;
}
);
unicode = 06D4;
}
{
glyphname = "hizb-ar";
layers = (
{
layerId = "9B455188-434F-489F-9A18-4C18DBE88840";
paths = (
{
closed = 1;
nodes = (
"961 260 LINE",
"499 722 LINE",
"39 262 LINE",
"501 -200 LINE"
);
},
{
closed = 1;
nodes = (
"101 263 LINE",
"500 662 LINE",
"900 263 LINE",
"500 -137 LINE"
);
},
{
closed = 1;
nodes = (
"827 -64 LINE",
"827 587 LINE",
"174 587 LINE",
"174 -64 LINE"
);
},
{
closed = 1;
nodes = (
"217 545 LINE",
"782 545 LINE",
"782 -20 LINE",
"217 -20 LINE"
);
},
{
closed = 1;
nodes = (
"552 168 OFFCURVE",
"595 211 OFFCURVE",
"595 263 CURVE SMOOTH",
"595 315 OFFCURVE",
"552 358 OFFCURVE",
"500 358 CURVE SMOOTH",
"448 358 OFFCURVE",
"405 315 OFFCURVE",
"405 263 CURVE SMOOTH",
"405 211 OFFCURVE",
"448 168 OFFCURVE",
"500 168 CURVE SMOOTH"
);
},
{
closed = 1;
nodes = (
"467 204 OFFCURVE",
"441 232 OFFCURVE",
"441 263 CURVE SMOOTH",
"441 296 OFFCURVE",
"467 323 OFFCURVE",
"500 323 CURVE SMOOTH",
"533 323 OFFCURVE",
"559 296 OFFCURVE",
"559 263 CURVE SMOOTH",
"559 232 OFFCURVE",
"533 204 OFFCURVE",
"500 204 CURVE SMOOTH"
);
}
);
width = 999;
},
{
layerId = "A7E21968-E455-4749-BB19-379F5EDC3B9B";
paths = (
{
closed = 1;
nodes = (
"961 260 LINE",
"499 722 LINE",
"39 262 LINE",
"501 -200 LINE"
);
},
{
closed = 1;
nodes = (
"101 263 LINE",
"500 662 LINE",
"900 263 LINE",
"500 -137 LINE"
);
},
{
closed = 1;
nodes = (
"827 -64 LINE",
"827 587 LINE",
"174 587 LINE",
"174 -64 LINE"
);
},
{
closed = 1;
nodes = (
"217 545 LINE",
"782 545 LINE",
"782 -20 LINE",
"217 -20 LINE"
);
},
{
closed = 1;
nodes = (
"552 168 OFFCURVE",
"595 211 OFFCURVE",
"595 263 CURVE SMOOTH",
"595 315 OFFCURVE",
"552 358 OFFCURVE",
"500 358 CURVE SMOOTH",
"448 358 OFFCURVE",
"405 315 OFFCURVE",
"405 263 CURVE SMOOTH",
"405 211 OFFCURVE",
"448 168 OFFCURVE",
"500 168 CURVE SMOOTH"
);
},
{
closed = 1;
nodes = (
"467 204 OFFCURVE",
"441 232 OFFCURVE",
"441 263 CURVE SMOOTH",
"441 296 OFFCURVE",
"467 323 OFFCURVE",
"500 323 CURVE SMOOTH",
"533 323 OFFCURVE",
"559 296 OFFCURVE",
"559 263 CURVE SMOOTH",
"559 232 OFFCURVE",
"533 204 OFFCURVE",
"500 204 CURVE SMOOTH"
);
}
);
width = 1000;
},
{
layerId = "D3B47D5E-6A85-4361-9DF6-638C8B7E2782";
paths = (
{
closed = 1;
nodes = (
"981 260 LINE",
"519 722 LINE",
"59 262 LINE",
"521 -200 LINE"
);
},
{
closed = 1;
nodes = (
"92 263 LINE",
"519 689 LINE",
"947 261 LINE",
"521 -166 LINE"
);
},
{
closed = 1;
nodes = (
"847 -64 LINE",
"847 587 LINE",
"194 587 LINE",
"194 -64 LINE"
);
},
{
closed = 1;
nodes = (
"217 563 LINE",
"823 563 LINE",
"823 -40 LINE",
"217 -40 LINE"
);
},
{
closed = 1;
nodes = (
"566 179 OFFCURVE",
"604 217 OFFCURVE",
"604 264 CURVE SMOOTH",
"604 310 OFFCURVE",
"566 348 OFFCURVE",
"520 348 CURVE SMOOTH",
"474 348 OFFCURVE",
"436 310 OFFCURVE",
"436 264 CURVE SMOOTH",
"436 217 OFFCURVE",
"474 179 OFFCURVE",
"520 179 CURVE SMOOTH"
);
},
{
closed = 1;
nodes = (
"486 202 OFFCURVE",
"459 230 OFFCURVE",
"459 264 CURVE SMOOTH",
"459 297 OFFCURVE",
"486 325 OFFCURVE",
"520 325 CURVE SMOOTH",
"554 325 OFFCURVE",
"581 297 OFFCURVE",
"581 264 CURVE SMOOTH",
"581 230 OFFCURVE",
"554 202 OFFCURVE",
"520 202 CURVE SMOOTH"
);
}
);
width = 1039;
},
{
layerId = "08F1692B-9525-48D2-9816-1987B1C44D50";
paths = (
{
closed = 1;
nodes = (
"962 260 LINE",
"500 722 LINE",
"40 262 LINE",
"502 -200 LINE"
);
},
{
closed = 1;
nodes = (
"100 263 LINE",
"501 664 LINE",
"902 263 LINE",
"501 -139 LINE"
);
},
{
closed = 1;
nodes = (
"828 -64 LINE",
"828 587 LINE",
"175 587 LINE",
"175 -64 LINE"
);
},
{
closed = 1;
nodes = (
"217 546 LINE",
"784 546 LINE",
"784 -21 LINE",
"217 -21 LINE"
);
},
{
closed = 1;
nodes = (
"553 169 OFFCURVE",
"596 211 OFFCURVE",
"596 263 CURVE SMOOTH",
"596 315 OFFCURVE",
"553 357 OFFCURVE",
"501 357 CURVE SMOOTH",
"450 357 OFFCURVE",
"407 315 OFFCURVE",
"407 263 CURVE SMOOTH",
"407 211 OFFCURVE",
"450 169 OFFCURVE",
"501 169 CURVE SMOOTH"
);
},
{
closed = 1;
nodes = (
"468 204 OFFCURVE",
"442 232 OFFCURVE",
"442 263 CURVE SMOOTH",
"442 296 OFFCURVE",
"468 323 OFFCURVE",
"501 323 CURVE SMOOTH",
"534 323 OFFCURVE",
"560 296 OFFCURVE",
"560 263 CURVE SMOOTH",
"560 232 OFFCURVE",
"534 204 OFFCURVE",
"501 204 CURVE SMOOTH"
);
}
);
width = 1002;
},
{
layerId = "A2AC38AA-6CC4-4B2B-B5AB-64A49772F2D3";
paths = (
{
closed = 1;
nodes = (
"981 260 LINE",
"519 722 LINE",
"59 262 LINE",
"521 -200 LINE"
);
},
{
closed = 1;
nodes = (
"92 263 LINE",
"519 689 LINE",
"947 261 LINE",
"521 -166 LINE"
);
},
{
closed = 1;
nodes = (
"847 -64 LINE",
"847 587 LINE",
"194 587 LINE",
"194 -64 LINE"
);
},
{
closed = 1;
nodes = (
"217 563 LINE",
"823 563 LINE",
"823 -40 LINE",
"217 -40 LINE"
);
},
{
closed = 1;
nodes = (
"566 179 OFFCURVE",
"604 217 OFFCURVE",
"604 264 CURVE SMOOTH",
"604 310 OFFCURVE",
"566 348 OFFCURVE",
"520 348 CURVE SMOOTH",
"474 348 OFFCURVE",
"436 310 OFFCURVE",
"436 264 CURVE SMOOTH",
"436 217 OFFCURVE",
"474 179 OFFCURVE",
"520 179 CURVE SMOOTH"
);
},
{
closed = 1;
nodes = (
"486 202 OFFCURVE",
"459 230 OFFCURVE",
"459 264 CURVE SMOOTH",
"459 297 OFFCURVE",
"486 325 OFFCURVE",
"520 325 CURVE SMOOTH",
"554 325 OFFCURVE",
"581 297 OFFCURVE",
"581 264 CURVE SMOOTH",
"581 230 OFFCURVE",
"554 202 OFFCURVE",
"520 202 CURVE SMOOTH"
);
}
);
width = 1039;
},
{
layerId = "6D0603BE-7277-4DA4-8C59-7934AF28E45B";
paths = (
{
closed = 1;
nodes = (
"961 260 LINE",
"499 722 LINE",
"39 262 LINE",
"501 -200 LINE"
);
},
{
closed = 1;
nodes = (
"101 263 LINE",
"500 662 LINE",
"900 263 LINE",
"500 -137 LINE"
);
},
{
closed = 1;
nodes = (
"827 -64 LINE",
"827 587 LINE",
"174 587 LINE",
"174 -64 LINE"
);
},
{
closed = 1;
nodes = (
"217 545 LINE",
"782 545 LINE",
"782 -20 LINE",
"217 -20 LINE"
);
},
{
closed = 1;
nodes = (
"552 168 OFFCURVE",
"595 211 OFFCURVE",
"595 263 CURVE SMOOTH",
"595 315 OFFCURVE",
"552 358 OFFCURVE",
"500 358 CURVE SMOOTH",
"448 358 OFFCURVE",
"405 315 OFFCURVE",
"405 263 CURVE SMOOTH",
"405 211 OFFCURVE",
"448 168 OFFCURVE",
"500 168 CURVE SMOOTH"
);
},
{
closed = 1;
nodes = (
"467 204 OFFCURVE",
"441 232 OFFCURVE",
"441 263 CURVE SMOOTH",
"441 296 OFFCURVE",
"467 323 OFFCURVE",
"500 323 CURVE SMOOTH",
"533 323 OFFCURVE",
"559 296 OFFCURVE",
"559 263 CURVE SMOOTH",
"559 232 OFFCURVE",
"533 204 OFFCURVE",
"500 204 CURVE SMOOTH"
);
}
);
width = 999;
},
{
layerId = "E1555194-BAFD-4DCC-A026-E2F9BA1917F2";
paths = (
{
closed = 1;
nodes = (
"961 260 LINE",
"499 722 LINE",
"39 262 LINE",
"501 -200 LINE"
);
},
{
closed = 1;
nodes = (
"101 263 LINE",
"500 662 LINE",
"900 263 LINE",
"500 -137 LINE"
);
},
{
closed = 1;
nodes = (
"827 -64 LINE",
"827 587 LINE",
"174 587 LINE",
"174 -64 LINE"
);
},
{
closed = 1;
nodes = (
"217 545 LINE",
"782 545 LINE",
"782 -20 LINE",
"217 -20 LINE"
);
},
{
closed = 1;
nodes = (
"552 168 OFFCURVE",
"595 211 OFFCURVE",
"595 263 CURVE SMOOTH",
"595 315 OFFCURVE",
"552 358 OFFCURVE",
"500 358 CURVE SMOOTH",
"448 358 OFFCURVE",
"405 315 OFFCURVE",
"405 263 CURVE SMOOTH",
"405 211 OFFCURVE",
"448 168 OFFCURVE",
"500 168 CURVE SMOOTH"
);
},
{
closed = 1;
nodes = (
"467 204 OFFCURVE",
"441 232 OFFCURVE",
"441 263 CURVE SMOOTH",
"441 296 OFFCURVE",
"467 323 OFFCURVE",
"500 323 CURVE SMOOTH",
"533 323 OFFCURVE",
"559 296 OFFCURVE",
"559 263 CURVE SMOOTH",
"559 232 OFFCURVE",
"533 204 OFFCURVE",
"500 204 CURVE SMOOTH"
);
}
);
width = 999;
},
{
layerId = "8594390A-478C-48BC-BAB2-0B8797A53DFB";
paths = (
{
closed = 1;
nodes = (
"961 260 LINE",
"499 722 LINE",
"39 262 LINE",
"501 -200 LINE"
);
},
{
closed = 1;
nodes = (
"101 263 LINE",
"500 662 LINE",
"900 263 LINE",
"500 -137 LINE"
);
},
{
closed = 1;
nodes = (
"827 -64 LINE",
"827 587 LINE",
"174 587 LINE",
"174 -64 LINE"
);
},
{
closed = 1;
nodes = (
"217 545 LINE",
"782 545 LINE",
"782 -20 LINE",
"217 -20 LINE"
);
},
{
closed = 1;
nodes = (
"552 168 OFFCURVE",
"595 211 OFFCURVE",
"595 263 CURVE SMOOTH",
"595 315 OFFCURVE",
"552 358 OFFCURVE",
"500 358 CURVE SMOOTH",
"448 358 OFFCURVE",
"405 315 OFFCURVE",
"405 263 CURVE SMOOTH",
"405 211 OFFCURVE",
"448 168 OFFCURVE",
"500 168 CURVE SMOOTH"
);
},
{
closed = 1;
nodes = (
"467 204 OFFCURVE",
"441 232 OFFCURVE",
"441 263 CURVE SMOOTH",
"441 296 OFFCURVE",
"467 323 OFFCURVE",
"500 323 CURVE SMOOTH",
"533 323 OFFCURVE",
"559 296 OFFCURVE",
"559 263 CURVE SMOOTH",
"559 232 OFFCURVE",
"533 204 OFFCURVE",
"500 204 CURVE SMOOTH"
);
}
);
width = 1000;
}
);
unicode = 06DE;
}
{
glyphname = "jazm-ar";
layers = (
{
anchors = (
{
name = _top;
position = "{140, 458}";
},
{
name = top;
position = "{139, 806}";
}
);
layerId = "9B455188-434F-489F-9A18-4C18DBE88840";
paths = (
{
closed = 1;
nodes = (
"156 647 OFFCURVE",
"223 707 OFFCURVE",
"238 758 CURVE",
"205 785 OFFCURVE",
"139 806 OFFCURVE",
"113 806 CURVE",
"82 806 OFFCURVE",
"61 784 OFFCURVE",
"46 766 CURVE",
"73 738 LINE",
"89 755 OFFCURVE",
"101 762 OFFCURVE",
"112 762 CURVE SMOOTH",
"133 762 OFFCURVE",
"180 746 OFFCURVE",
"200 732 CURVE",
"202 766 LINE",
"190 740 OFFCURVE",
"133 688 OFFCURVE",
"47 688 CURVE",
"55 647 LINE"
);
}
);
width = 266;
},
{
anchors = (
{
name = _top;
position = "{149, 458}";
},
{
name = top;
position = "{147, 830}";
}
);
layerId = "A7E21968-E455-4749-BB19-379F5EDC3B9B";
paths = (
{
closed = 1;
nodes = (
"170 652 OFFCURVE",
"229 693 OFFCURVE",
"246 757 CURVE",
"211 796 OFFCURVE",
"150 822 OFFCURVE",
"119 822 CURVE SMOOTH",
"91 822 OFFCURVE",
"60 791 OFFCURVE",
"46 773 CURVE",
"81 742 LINE",
"97 760 OFFCURVE",
"110 767 OFFCURVE",
"121 767 CURVE SMOOTH",
"138 767 OFFCURVE",
"178 750 OFFCURVE",
"198 734 CURVE",
"199 771 LINE",
"191 736 OFFCURVE",
"140 700 OFFCURVE",
"51 700 CURVE",
"63 652 LINE"
);
}
);
width = 274;
},
{
anchors = (
{
name = _top;
position = "{125, 458}";
},
{
name = top;
position = "{132, 804}";
}
);
layerId = "D3B47D5E-6A85-4361-9DF6-638C8B7E2782";
paths = (
{
closed = 1;
nodes = (
"135 643 OFFCURVE",
"210 699 OFFCURVE",
"228 752 CURVE",
"192 781 OFFCURVE",
"142 801 OFFCURVE",
"113 801 CURVE SMOOTH",
"86 801 OFFCURVE",
"63 782 OFFCURVE",
"48 763 CURVE",
"62 751 LINE",
"80 770 OFFCURVE",
"93 781 OFFCURVE",
"113 781 CURVE SMOOTH",
"143 781 OFFCURVE",
"182 761 OFFCURVE",
"211 740 CURVE",
"208 753 LINE",
"189 708 OFFCURVE",
"117 662 OFFCURVE",
"46 662 CURVE",
"50 643 LINE"
);
}
);
width = 256;
},
{
anchors = (
{
name = _top;
position = "{147, 458}";
},
{
name = top;
position = "{146, 820}";
}
);
layerId = "08F1692B-9525-48D2-9816-1987B1C44D50";
paths = (
{
closed = 1;
nodes = (
"167 647 OFFCURVE",
"230 696 OFFCURVE",
"247 756 CURVE",
"211 794 OFFCURVE",
"148 819 OFFCURVE",
"119 819 CURVE SMOOTH",
"89 819 OFFCURVE",
"61 791 OFFCURVE",
"46 772 CURVE",
"80 739 LINE",
"96 756 OFFCURVE",
"108 764 OFFCURVE",
"120 764 CURVE SMOOTH",
"139 764 OFFCURVE",
"181 745 OFFCURVE",
"201 729 CURVE",
"198 770 LINE",
"188 734 OFFCURVE",
"136 696 OFFCURVE",
"52 696 CURVE",
"62 647 LINE"
);
}
);
width = 275;
},
{
anchors = (
{
name = _top;
position = "{135, 458}";
},
{
name = top;
position = "{142, 804}";
}
);
layerId = "A2AC38AA-6CC4-4B2B-B5AB-64A49772F2D3";
paths = (
{
closed = 1;
nodes = (
"155 643 OFFCURVE",
"230 699 OFFCURVE",
"248 752 CURVE",
"212 781 OFFCURVE",
"142 801 OFFCURVE",
"113 801 CURVE SMOOTH",
"86 801 OFFCURVE",
"63 782 OFFCURVE",
"48 763 CURVE",
"62 751 LINE",
"80 770 OFFCURVE",
"93 781 OFFCURVE",
"113 781 CURVE SMOOTH",
"143 781 OFFCURVE",
"202 761 OFFCURVE",
"231 740 CURVE",
"228 753 LINE",
"209 708 OFFCURVE",
"137 662 OFFCURVE",
"46 662 CURVE",
"50 643 LINE"
);
}
);
width = 276;
},
{
anchors = (
{
name = _top;
position = "{153, 458}";
},
{
name = top;
position = "{151, 810}";
}
);
layerId = "6D0603BE-7277-4DA4-8C59-7934AF28E45B";
paths = (
{
closed = 1;
nodes = (
"173 637 OFFCURVE",
"250 703 OFFCURVE",
"266 759 CURVE",
"228 794 OFFCURVE",
"152 816 OFFCURVE",
"122 816 CURVE SMOOTH",
"89 816 OFFCURVE",
"61 789 OFFCURVE",
"46 767 CURVE",
"78 737 LINE",
"96 756 OFFCURVE",
"108 764 OFFCURVE",
"123 764 CURVE SMOOTH",
"143 764 OFFCURVE",
"191 749 OFFCURVE",
"212 734 CURVE",
"217 766 LINE",
"203 739 OFFCURVE",
"142 685 OFFCURVE",
"47 685 CURVE",
"59 637 LINE"
);
}
);
width = 294;
},
{
anchors = (
{
name = _top;
position = "{160, 458}";
},
{
name = top;
position = "{158, 822}";
}
);
layerId = "E1555194-BAFD-4DCC-A026-E2F9BA1917F2";
paths = (
{
closed = 1;
nodes = (
"183 639 OFFCURVE",
"253 695 OFFCURVE",
"271 761 CURVE",
"232 801 OFFCURVE",
"161 828 OFFCURVE",
"128 828 CURVE SMOOTH",
"93 828 OFFCURVE",
"61 793 OFFCURVE",
"46 774 CURVE",
"85 737 LINE",
"103 756 OFFCURVE",
"117 764 OFFCURVE",
"129 764 CURVE SMOOTH",
"149 764 OFFCURVE",
"194 747 OFFCURVE",
"215 730 CURVE",
"219 776 LINE",
"208 742 OFFCURVE",
"149 695 OFFCURVE",
"52 695 CURVE",
"66 639 LINE"
);
}
);
width = 299;
},
{
anchors = (
{
name = _top;
position = "{159, 458}";
},
{
name = top;
position = "{157, 830}";
}
);
layerId = "8594390A-478C-48BC-BAB2-0B8797A53DFB";
paths = (
{
closed = 1;
nodes = (
"182 643 OFFCURVE",
"247 689 OFFCURVE",
"266 759 CURVE",
"227 802 OFFCURVE",
"160 830 OFFCURVE",
"126 830 CURVE SMOOTH",
"95 830 OFFCURVE",
"61 796 OFFCURVE",
"46 777 CURVE",
"84 743 LINE",
"102 762 OFFCURVE",
"116 770 OFFCURVE",
"128 770 CURVE SMOOTH",
"147 770 OFFCURVE",
"191 751 OFFCURVE",
"213 734 CURVE",
"214 774 LINE",
"205 736 OFFCURVE",
"149 696 OFFCURVE",
"52 696 CURVE",
"65 643 LINE"
);
}
);
width = 294;
}
);
unicode = 06E1;
}
{
glyphname = "jeemabove-ar";
layers = (
{
anchors = (
{
name = bottom;
position = "{144, 0}";
},
{
name = top;
position = "{128, 1360}";
}
);
layerId = "9B455188-434F-489F-9A18-4C18DBE88840";
paths = (
{
closed = 1;
nodes = (
"187 1093 OFFCURVE",
"214 1101 OFFCURVE",
"239 1113 CURVE",
"230 1153 LINE",
"209 1145 OFFCURVE",
"186 1136 OFFCURVE",
"156 1136 CURVE SMOOTH",
"114 1136 OFFCURVE",
"78 1153 OFFCURVE",
"78 1193 CURVE SMOOTH",
"78 1253 OFFCURVE",
"174 1289 OFFCURVE",
"234 1289 CURVE",
"232 1330 LINE",
"165 1330 OFFCURVE",
"139 1356 OFFCURVE",
"93 1356 CURVE SMOOTH",
"77 1356 OFFCURVE",
"57 1354 OFFCURVE",
"43 1350 CURVE",
"47 1310 LINE",
"63 1313 OFFCURVE",
"76 1315 OFFCURVE",
"89 1315 CURVE SMOOTH",
"118 1315 OFFCURVE",
"142 1305 OFFCURVE",
"164 1297 CURVE",
"159 1312 LINE",
"89 1295 OFFCURVE",
"34 1249 OFFCURVE",
"34 1190 CURVE SMOOTH",
"34 1133 OFFCURVE",
"79 1093 OFFCURVE",
"152 1093 CURVE SMOOTH"
);
},
{
closed = 1;
nodes = (
"170 1181 OFFCURVE",
"180 1192 OFFCURVE",
"180 1205 CURVE SMOOTH",
"180 1217 OFFCURVE",
"170 1229 OFFCURVE",
"156 1229 CURVE SMOOTH",
"143 1229 OFFCURVE",
"133 1217 OFFCURVE",
"133 1205 CURVE SMOOTH",
"133 1192 OFFCURVE",
"143 1181 OFFCURVE",
"156 1181 CURVE SMOOTH"
);
}
);
width = 272;
},
{
anchors = (
{
name = bottom;
position = "{146, 0}";
},
{
name = top;
position = "{130, 1360}";
}
);
layerId = "A7E21968-E455-4749-BB19-379F5EDC3B9B";
paths = (
{
closed = 1;
nodes = (
"192 1069 OFFCURVE",
"219 1077 OFFCURVE",
"244 1089 CURVE",
"234 1137 LINE",
"214 1129 OFFCURVE",
"191 1121 OFFCURVE",
"161 1121 CURVE SMOOTH",
"119 1121 OFFCURVE",
"91 1138 OFFCURVE",
"91 1174 CURVE SMOOTH",
"91 1226 OFFCURVE",
"176 1265 OFFCURVE",
"238 1265 CURVE",
"234 1324 LINE",
"168 1324 OFFCURVE",
"142 1350 OFFCURVE",
"86 1350 CURVE SMOOTH",
"71 1350 OFFCURVE",
"51 1347 OFFCURVE",
"36 1344 CURVE",
"43 1294 LINE",
"58 1296 OFFCURVE",
"72 1298 OFFCURVE",
"84 1298 CURVE SMOOTH",
"123 1298 OFFCURVE",
"146 1288 OFFCURVE",
"169 1281 CURVE",
"160 1292 LINE",
"84 1275 OFFCURVE",
"34 1230 OFFCURVE",
"34 1170 CURVE SMOOTH",
"34 1107 OFFCURVE",
"77 1069 OFFCURVE",
"156 1069 CURVE SMOOTH"
);
},
{
closed = 1;
nodes = (
"179 1157 OFFCURVE",
"191 1170 OFFCURVE",
"191 1185 CURVE SMOOTH",
"191 1200 OFFCURVE",
"179 1214 OFFCURVE",
"163 1214 CURVE SMOOTH",
"147 1214 OFFCURVE",
"135 1200 OFFCURVE",
"135 1185 CURVE SMOOTH",
"135 1170 OFFCURVE",
"147 1157 OFFCURVE",
"163 1157 CURVE SMOOTH"
);
}
);
width = 277;
},
{
anchors = (
{
name = bottom;
position = "{136, 0}";
},
{
name = top;
position = "{120, 1360}";
}
);
layerId = "D3B47D5E-6A85-4361-9DF6-638C8B7E2782";
paths = (
{
closed = 1;
nodes = (
"167 1085 OFFCURVE",
"196 1090 OFFCURVE",
"223 1103 CURVE",
"218 1118 LINE",
"195 1109 OFFCURVE",
"172 1103 OFFCURVE",
"149 1103 CURVE SMOOTH",
"84 1103 OFFCURVE",
"51 1140 OFFCURVE",
"51 1184 CURVE SMOOTH",
"51 1258 OFFCURVE",
"132 1310 OFFCURVE",
"206 1310 CURVE",
"205 1326 LINE",
"166 1326 OFFCURVE",
"129 1355 OFFCURVE",
"87 1355 CURVE SMOOTH",
"70 1355 OFFCURVE",
"55 1352 OFFCURVE",
"39 1348 CURVE",
"42 1331 LINE",
"54 1334 OFFCURVE",
"72 1337 OFFCURVE",
"87 1337 CURVE SMOOTH",
"113 1337 OFFCURVE",
"161 1319 OFFCURVE",
"186 1311 CURVE",
"183 1323 LINE",
"83 1305 OFFCURVE",
"34 1251 OFFCURVE",
"34 1184 CURVE SMOOTH",
"34 1127 OFFCURVE",
"76 1085 OFFCURVE",
"149 1085 CURVE SMOOTH"
);
},
{
closed = 1;
nodes = (
"153 1188 OFFCURVE",
"160 1195 OFFCURVE",
"160 1203 CURVE SMOOTH",
"160 1211 OFFCURVE",
"153 1218 OFFCURVE",
"145 1218 CURVE SMOOTH",
"137 1218 OFFCURVE",
"129 1211 OFFCURVE",
"129 1203 CURVE SMOOTH",
"129 1195 OFFCURVE",
"137 1188 OFFCURVE",
"145 1188 CURVE SMOOTH"
);
}
);
width = 256;
},
{
anchors = (
{
name = bottom;
position = "{146, 0}";
},
{
name = top;
position = "{130, 1360}";
}
);
layerId = "08F1692B-9525-48D2-9816-1987B1C44D50";
paths = (
{
closed = 1;
nodes = (
"191 1075 OFFCURVE",
"218 1083 OFFCURVE",
"243 1095 CURVE",
"233 1142 LINE",
"213 1133 OFFCURVE",
"190 1125 OFFCURVE",
"160 1125 CURVE SMOOTH",
"118 1125 OFFCURVE",
"88 1143 OFFCURVE",
"88 1180 CURVE SMOOTH",
"88 1234 OFFCURVE",
"175 1272 OFFCURVE",
"236 1272 CURVE",
"233 1327 LINE",
"169 1327 OFFCURVE",
"142 1353 OFFCURVE",
"90 1353 CURVE SMOOTH",
"74 1353 OFFCURVE",
"55 1350 OFFCURVE",
"40 1347 CURVE",
"46 1298 LINE",
"61 1301 OFFCURVE",
"75 1303 OFFCURVE",
"87 1303 CURVE SMOOTH",
"122 1303 OFFCURVE",
"147 1292 OFFCURVE",
"170 1285 CURVE",
"164 1301 LINE",
"85 1284 OFFCURVE",
"34 1237 OFFCURVE",
"34 1176 CURVE SMOOTH",
"34 1114 OFFCURVE",
"78 1075 OFFCURVE",
"156 1075 CURVE SMOOTH"
);
},
{
closed = 1;
nodes = (
"181 1160 OFFCURVE",
"194 1175 OFFCURVE",
"194 1191 CURVE SMOOTH",
"194 1208 OFFCURVE",
"181 1223 OFFCURVE",
"162 1223 CURVE SMOOTH",
"145 1223 OFFCURVE",
"131 1208 OFFCURVE",
"131 1191 CURVE SMOOTH",
"131 1175 OFFCURVE",
"145 1160 OFFCURVE",
"162 1160 CURVE SMOOTH"
);
}
);
width = 276;
},
{
anchors = (
{
name = bottom;
position = "{146, 0}";
},
{
name = top;
position = "{130, 1360}";
}
);
layerId = "A2AC38AA-6CC4-4B2B-B5AB-64A49772F2D3";
paths = (
{
closed = 1;
nodes = (
"187 1084 OFFCURVE",
"216 1089 OFFCURVE",
"243 1102 CURVE",
"238 1117 LINE",
"215 1108 OFFCURVE",
"192 1102 OFFCURVE",
"161 1102 CURVE SMOOTH",
"84 1102 OFFCURVE",
"51 1139 OFFCURVE",
"51 1183 CURVE SMOOTH",
"51 1257 OFFCURVE",
"142 1309 OFFCURVE",
"226 1309 CURVE",
"225 1325 LINE",
"176 1325 OFFCURVE",
"139 1354 OFFCURVE",
"87 1354 CURVE SMOOTH",
"70 1354 OFFCURVE",
"55 1351 OFFCURVE",
"39 1347 CURVE",
"42 1330 LINE",
"54 1333 OFFCURVE",
"72 1336 OFFCURVE",
"87 1336 CURVE SMOOTH",
"123 1336 OFFCURVE",
"171 1318 OFFCURVE",
"196 1310 CURVE",
"193 1322 LINE",
"93 1304 OFFCURVE",
"34 1250 OFFCURVE",
"34 1183 CURVE SMOOTH",
"34 1126 OFFCURVE",
"76 1084 OFFCURVE",
"161 1084 CURVE SMOOTH"
);
},
{
closed = 1;
nodes = (
"173 1187 OFFCURVE",
"180 1194 OFFCURVE",
"180 1202 CURVE SMOOTH",
"180 1210 OFFCURVE",
"173 1217 OFFCURVE",
"165 1217 CURVE SMOOTH",
"157 1217 OFFCURVE",
"149 1210 OFFCURVE",
"149 1202 CURVE SMOOTH",
"149 1194 OFFCURVE",
"157 1187 OFFCURVE",
"165 1187 CURVE SMOOTH"
);
}
);
width = 276;
},
{
anchors = (
{
name = bottom;
position = "{154, 0}";
},
{
name = top;
position = "{138, 1360}";
}
);
layerId = "6D0603BE-7277-4DA4-8C59-7934AF28E45B";
paths = (
{
closed = 1;
nodes = (
"201 1059 OFFCURVE",
"232 1068 OFFCURVE",
"259 1081 CURVE",
"249 1126 LINE",
"226 1117 OFFCURVE",
"201 1108 OFFCURVE",
"168 1108 CURVE SMOOTH",
"122 1108 OFFCURVE",
"83 1126 OFFCURVE",
"83 1168 CURVE SMOOTH",
"83 1235 OFFCURVE",
"186 1274 OFFCURVE",
"253 1274 CURVE",
"251 1321 LINE",
"192 1317 OFFCURVE",
"150 1350 OFFCURVE",
"97 1350 CURVE SMOOTH",
"81 1350 OFFCURVE",
"59 1347 OFFCURVE",
"43 1343 CURVE",
"48 1296 LINE",
"65 1299 OFFCURVE",
"79 1301 OFFCURVE",
"97 1301 CURVE SMOOTH",
"125 1301 OFFCURVE",
"152 1296 OFFCURVE",
"177 1282 CURVE",
"177 1303 LINE",
"91 1284 OFFCURVE",
"34 1233 OFFCURVE",
"34 1166 CURVE SMOOTH",
"34 1103 OFFCURVE",
"83 1059 OFFCURVE",
"164 1059 CURVE SMOOTH"
);
},
{
closed = 1;
nodes = (
"187 1153 OFFCURVE",
"201 1166 OFFCURVE",
"201 1183 CURVE SMOOTH",
"201 1199 OFFCURVE",
"187 1213 OFFCURVE",
"171 1213 CURVE SMOOTH",
"154 1213 OFFCURVE",
"141 1199 OFFCURVE",
"141 1183 CURVE SMOOTH",
"141 1166 OFFCURVE",
"154 1153 OFFCURVE",
"171 1153 CURVE SMOOTH"
);
}
);
width = 292;
},
{
anchors = (
{
name = bottom;
position = "{158, 0}";
},
{
name = top;
position = "{142, 1360}";
}
);
layerId = "E1555194-BAFD-4DCC-A026-E2F9BA1917F2";
paths = (
{
closed = 1;
nodes = (
"209 1040 OFFCURVE",
"239 1049 OFFCURVE",
"266 1062 CURVE",
"256 1119 LINE",
"233 1110 OFFCURVE",
"208 1101 OFFCURVE",
"176 1101 CURVE SMOOTH",
"131 1101 OFFCURVE",
"99 1119 OFFCURVE",
"99 1155 CURVE SMOOTH",
"99 1216 OFFCURVE",
"193 1255 OFFCURVE",
"260 1255 CURVE",
"257 1320 LINE",
"184 1320 OFFCURVE",
"155 1350 OFFCURVE",
"98 1350 CURVE SMOOTH",
"81 1350 OFFCURVE",
"59 1347 OFFCURVE",
"43 1343 CURVE",
"49 1286 LINE",
"66 1289 OFFCURVE",
"78 1291 OFFCURVE",
"92 1291 CURVE SMOOTH",
"128 1291 OFFCURVE",
"158 1281 OFFCURVE",
"184 1272 CURVE",
"178 1292 LINE",
"92 1273 OFFCURVE",
"34 1223 OFFCURVE",
"34 1151 CURVE SMOOTH",
"34 1085 OFFCURVE",
"83 1040 OFFCURVE",
"170 1040 CURVE SMOOTH"
);
},
{
closed = 1;
nodes = (
"198 1136 OFFCURVE",
"212 1151 OFFCURVE",
"212 1170 CURVE SMOOTH",
"212 1189 OFFCURVE",
"198 1204 OFFCURVE",
"178 1204 CURVE SMOOTH",
"158 1204 OFFCURVE",
"144 1189 OFFCURVE",
"144 1170 CURVE SMOOTH",
"144 1151 OFFCURVE",
"158 1136 OFFCURVE",
"178 1136 CURVE SMOOTH"
);
}
);
width = 299;
},
{
anchors = (
{
name = bottom;
position = "{157, 0}";
},
{
name = top;
position = "{141, 1360}";
}
);
layerId = "8594390A-478C-48BC-BAB2-0B8797A53DFB";
paths = (
{
closed = 1;
nodes = (
"207 1045 OFFCURVE",
"237 1054 OFFCURVE",
"264 1067 CURVE",
"254 1120 LINE",
"231 1111 OFFCURVE",
"206 1102 OFFCURVE",
"173 1102 CURVE SMOOTH",
"127 1102 OFFCURVE",
"96 1121 OFFCURVE",
"96 1160 CURVE SMOOTH",
"96 1218 OFFCURVE",
"190 1260 OFFCURVE",
"258 1260 CURVE",
"254 1325 LINE",
"181 1325 OFFCURVE",
"152 1354 OFFCURVE",
"91 1354 CURVE SMOOTH",
"74 1354 OFFCURVE",
"52 1351 OFFCURVE",
"36 1347 CURVE",
"43 1292 LINE",
"60 1295 OFFCURVE",
"75 1297 OFFCURVE",
"89 1297 CURVE SMOOTH",
"131 1297 OFFCURVE",
"157 1286 OFFCURVE",
"182 1278 CURVE",
"172 1290 LINE",
"89 1272 OFFCURVE",
"34 1222 OFFCURVE",
"34 1156 CURVE SMOOTH",
"34 1087 OFFCURVE",
"81 1045 OFFCURVE",
"168 1045 CURVE SMOOTH"
);
},
{
closed = 1;
nodes = (
"193 1142 OFFCURVE",
"206 1156 OFFCURVE",
"206 1173 CURVE SMOOTH",
"206 1189 OFFCURVE",
"193 1204 OFFCURVE",
"175 1204 CURVE SMOOTH",
"158 1204 OFFCURVE",
"145 1189 OFFCURVE",
"145 1173 CURVE SMOOTH",
"145 1156 OFFCURVE",
"158 1142 OFFCURVE",
"175 1142 CURVE SMOOTH"
);
}
);
width = 297;
}
);
unicode = 06DA;
}
{
glyphname = "kafswash-ar";
layers = (
{
anchors = (
{
name = bottom;
position = "{385, -31}";
},
{
name = top;
position = "{449, 530}";
}
);
layerId = "9B455188-434F-489F-9A18-4C18DBE88840";
paths = (
{
closed = 1;
nodes = (
"754 -15 OFFCURVE",
"874 28 OFFCURVE",
"874 143 CURVE SMOOTH",
"874 229 OFFCURVE",
"809 272 OFFCURVE",
"591 298 CURVE SMOOTH",
"462 313 OFFCURVE",
"444 320 OFFCURVE",
"444 348 CURVE SMOOTH",
"444 389 OFFCURVE",
"499 444 OFFCURVE",
"676 504 CURVE",
"658 571 LINE",
"497 522 OFFCURVE",
"370 439 OFFCURVE",
"370 336 CURVE SMOOTH",
"370 266 OFFCURVE",
"422 245 OFFCURVE",
"591 226 CURVE SMOOTH",
"749 208 OFFCURVE",
"804 181 OFFCURVE",
"804 135 CURVE SMOOTH",
"804 76 OFFCURVE",
"690 58 OFFCURVE",
"499 58 CURVE SMOOTH",
"379 58 OFFCURVE",
"194 66 OFFCURVE",
"61 75 CURVE",
"55 4 LINE",
"181 -10 OFFCURVE",
"417 -15 OFFCURVE",
"502 -15 CURVE SMOOTH"
);
}
);
width = 924;
},
{
anchors = (
{
name = bottom;
position = "{390, -31}";
},
{
name = top;
position = "{408, 624}";
}
);
layerId = "A7E21968-E455-4749-BB19-379F5EDC3B9B";
paths = (
{
closed = 1;
nodes = (
"790 -15 OFFCURVE",
"918 41 OFFCURVE",
"918 175 CURVE SMOOTH",
"918 290 OFFCURVE",
"853 346 OFFCURVE",
"647 377 CURVE SMOOTH",
"508 398 OFFCURVE",
"481 406 OFFCURVE",
"481 430 CURVE SMOOTH",
"481 461 OFFCURVE",
"574 496 OFFCURVE",
"691 525 CURVE",
"657 665 LINE",
"484 622 OFFCURVE",
"314 549 OFFCURVE",
"314 397 CURVE SMOOTH",
"314 308 OFFCURVE",
"384 263 OFFCURVE",
"605 234 CURVE SMOOTH",
"732 217 OFFCURVE",
"768 206 OFFCURVE",
"768 180 CURVE SMOOTH",
"768 150 OFFCURVE",
"704 141 OFFCURVE",
"476 141 CURVE SMOOTH",
"348 141 OFFCURVE",
"184 149 OFFCURVE",
"51 158 CURVE",
"45 4 LINE",
"171 -10 OFFCURVE",
"388 -15 OFFCURVE",
"476 -15 CURVE SMOOTH"
);
}
);
width = 958;
},
{
anchors = (
{
name = bottom;
position = "{380, -31}";
},
{
name = top;
position = "{444, 530}";
}
);
layerId = "D3B47D5E-6A85-4361-9DF6-638C8B7E2782";
paths = (
{
closed = 1;
nodes = (
"639 -15 OFFCURVE",
"838 14 OFFCURVE",
"838 131 CURVE SMOOTH",
"838 225 OFFCURVE",
"719 254 OFFCURVE",
"609 271 CURVE SMOOTH",
"441 297 OFFCURVE",
"369 301 OFFCURVE",
"369 348 CURVE SMOOTH",
"369 403 OFFCURVE",
"468 490 OFFCURVE",
"662 548 CURVE",
"657 571 LINE",
"510 525 OFFCURVE",
"344 443 OFFCURVE",
"345 346 CURVE SMOOTH",
"346 279 OFFCURVE",
"424 276 OFFCURVE",
"606 248 CURVE SMOOTH",
"782 221 OFFCURVE",
"816 175 OFFCURVE",
"816 128 CURVE SMOOTH",
"816 53 OFFCURVE",
"686 7 OFFCURVE",
"462 7 CURVE SMOOTH",
"402 7 OFFCURVE",
"197 12 OFFCURVE",
"67 26 CURVE",
"65 4 LINE",
"196 -11 OFFCURVE",
"387 -15 OFFCURVE",
"463 -15 CURVE SMOOTH"
);
}
);
width = 898;
},
{
anchors = (
{
name = bottom;
position = "{427, -31}";
},
{
name = top;
position = "{422, 591}";
}
);
layerId = "08F1692B-9525-48D2-9816-1987B1C44D50";
paths = (
{
closed = 1;
nodes = (
"771 -15 OFFCURVE",
"900 36 OFFCURVE",
"900 163 CURVE SMOOTH",
"900 268 OFFCURVE",
"832 319 OFFCURVE",
"628 348 CURVE SMOOTH",
"490 367 OFFCURVE",
"463 375 OFFCURVE",
"463 401 CURVE SMOOTH",
"463 436 OFFCURVE",
"546 480 OFFCURVE",
"685 520 CURVE",
"657 632 LINE",
"489 587 OFFCURVE",
"332 510 OFFCURVE",
"332 376 CURVE SMOOTH",
"332 294 OFFCURVE",
"397 258 OFFCURVE",
"601 232 CURVE SMOOTH",
"740 215 OFFCURVE",
"781 197 OFFCURVE",
"781 164 CURVE SMOOTH",
"781 123 OFFCURVE",
"699 109 OFFCURVE",
"482 109 CURVE SMOOTH",
"360 109 OFFCURVE",
"188 117 OFFCURVE",
"55 126 CURVE",
"49 4 LINE",
"175 -10 OFFCURVE",
"396 -15 OFFCURVE",
"483 -15 CURVE SMOOTH"
);
}
);
width = 944;
},
{
anchors = (
{
name = bottom;
position = "{450, -31}";
},
{
name = top;
position = "{514, 530}";
}
);
layerId = "A2AC38AA-6CC4-4B2B-B5AB-64A49772F2D3";
paths = (
{
closed = 1;
nodes = (
"739 -15 OFFCURVE",
"938 14 OFFCURVE",
"938 131 CURVE SMOOTH",
"938 225 OFFCURVE",
"819 254 OFFCURVE",
"679 271 CURVE SMOOTH",
"481 295 OFFCURVE",
"409 301 OFFCURVE",
"409 348 CURVE SMOOTH",
"409 403 OFFCURVE",
"508 490 OFFCURVE",
"762 548 CURVE",
"757 571 LINE",
"550 525 OFFCURVE",
"384 443 OFFCURVE",
"385 346 CURVE SMOOTH",
"386 279 OFFCURVE",
"464 270 OFFCURVE",
"676 247 CURVE SMOOTH",
"887 224 OFFCURVE",
"916 173 OFFCURVE",
"916 128 CURVE SMOOTH",
"916 53 OFFCURVE",
"786 8 OFFCURVE",
"532 8 CURVE SMOOTH",
"442 8 OFFCURVE",
"207 13 OFFCURVE",
"77 27 CURVE",
"75 4 LINE",
"206 -11 OFFCURVE",
"427 -15 OFFCURVE",
"533 -15 CURVE SMOOTH"
);
}
);
width = 1008;
},
{
anchors = (
{
name = bottom;
position = "{430, -31}";
},
{
name = top;
position = "{494, 530}";
}
);
layerId = "6D0603BE-7277-4DA4-8C59-7934AF28E45B";
paths = (
{
closed = 1;
nodes = (
"837 -15 OFFCURVE",
"968 20 OFFCURVE",
"968 145 CURVE SMOOTH",
"968 223 OFFCURVE",
"911 278 OFFCURVE",
"659 298 CURVE SMOOTH",
"500 311 OFFCURVE",
"445 320 OFFCURVE",
"445 348 CURVE SMOOTH",
"445 393 OFFCURVE",
"568 457 OFFCURVE",
"753 499 CURVE",
"737 571 LINE",
"540 525 OFFCURVE",
"364 445 OFFCURVE",
"364 336 CURVE SMOOTH",
"364 259 OFFCURVE",
"445 239 OFFCURVE",
"659 225 CURVE SMOOTH",
"855 212 OFFCURVE",
"894 171 OFFCURVE",
"894 135 CURVE SMOOTH",
"894 78 OFFCURVE",
"765 67 OFFCURVE",
"546 67 CURVE SMOOTH",
"378 67 OFFCURVE",
"194 75 OFFCURVE",
"61 84 CURVE",
"55 4 LINE",
"181 -10 OFFCURVE",
"418 -15 OFFCURVE",
"546 -15 CURVE SMOOTH"
);
}
);
width = 1018;
},
{
anchors = (
{
name = bottom;
position = "{430, -31}";
},
{
name = top;
position = "{466, 587}";
}
);
layerId = "E1555194-BAFD-4DCC-A026-E2F9BA1917F2";
paths = (
{
closed = 1;
nodes = (
"869 -15 OFFCURVE",
"990 29 OFFCURVE",
"990 163 CURVE SMOOTH",
"990 281 OFFCURVE",
"915 336 OFFCURVE",
"664 356 CURVE SMOOTH",
"516 368 OFFCURVE",
"468 378 OFFCURVE",
"468 398 CURVE SMOOTH",
"468 424 OFFCURVE",
"581 463 OFFCURVE",
"764 491 CURVE",
"737 628 LINE",
"508 592 OFFCURVE",
"330 518 OFFCURVE",
"330 383 CURVE SMOOTH",
"330 279 OFFCURVE",
"413 247 OFFCURVE",
"638 228 CURVE SMOOTH",
"829 212 OFFCURVE",
"852 192 OFFCURVE",
"852 164 CURVE SMOOTH",
"852 131 OFFCURVE",
"769 125 OFFCURVE",
"540 125 CURVE SMOOTH",
"372 125 OFFCURVE",
"188 133 OFFCURVE",
"55 142 CURVE",
"49 4 LINE",
"175 -10 OFFCURVE",
"412 -15 OFFCURVE",
"540 -15 CURVE SMOOTH"
);
}
);
width = 1034;
},
{
anchors = (
{
name = bottom;
position = "{430, -31}";
},
{
name = top;
position = "{448, 624}";
}
);
layerId = "8594390A-478C-48BC-BAB2-0B8797A53DFB";
paths = (
{
closed = 1;
nodes = (
"890 -15 OFFCURVE",
"1004 34 OFFCURVE",
"1004 175 CURVE SMOOTH",
"1004 310 OFFCURVE",
"917 357 OFFCURVE",
"667 386 CURVE SMOOTH",
"526 402 OFFCURVE",
"481 409 OFFCURVE",
"481 426 CURVE SMOOTH",
"481 454 OFFCURVE",
"594 490 OFFCURVE",
"771 519 CURVE",
"737 665 LINE",
"504 622 OFFCURVE",
"308 549 OFFCURVE",
"308 397 CURVE SMOOTH",
"308 299 OFFCURVE",
"389 266 OFFCURVE",
"625 237 CURVE SMOOTH",
"812 214 OFFCURVE",
"848 209 OFFCURVE",
"848 183 CURVE SMOOTH",
"848 150 OFFCURVE",
"794 147 OFFCURVE",
"536 147 CURVE SMOOTH",
"368 147 OFFCURVE",
"184 155 OFFCURVE",
"51 164 CURVE",
"45 4 LINE",
"171 -10 OFFCURVE",
"408 -15 OFFCURVE",
"536 -15 CURVE SMOOTH"
);
}
);
width = 1044;
}
);
unicode = 06AA;
}
{
glyphname = "lamAlefabove-ar";
layers = (
{
anchors = (
{
name = bottom;
position = "{105, 0}";
},
{
name = top;
position = "{89, 1360}";
}
);
guideLines = (
{
position = "{111, 601}";
},
{
position = "{169, 829}";
}
);
layerId = "9B455188-434F-489F-9A18-4C18DBE88840";
paths = (
{
closed = 1;
nodes = (
"129 1119 OFFCURVE",
"171 1138 OFFCURVE",
"169 1204 CURVE SMOOTH",
"164 1339 LINE",
"124 1339 LINE",
"128 1203 LINE SMOOTH",
"128 1175 OFFCURVE",
"109 1163 OFFCURVE",
"20 1170 CURVE",
"20 1128 LINE"
);
},
{
closed = 1;
nodes = (
"108 1208 LINE",
"65 1324 LINE",
"27 1310 LINE",
"69 1194 LINE"
);
}
);
width = 194;
},
{
anchors = (
{
name = bottom;
position = "{105, 0}";
},
{
name = top;
position = "{89, 1360}";
}
);
layerId = "A7E21968-E455-4749-BB19-379F5EDC3B9B";
paths = (
{
closed = 1;
nodes = (
"165 1105 OFFCURVE",
"206 1124 OFFCURVE",
"203 1214 CURVE SMOOTH",
"198 1340 LINE",
"146 1340 LINE",
"149 1213 LINE SMOOTH",
"150 1173 OFFCURVE",
"130 1162 OFFCURVE",
"20 1168 CURVE",
"21 1114 LINE"
);
},
{
closed = 1;
nodes = (
"124 1209 LINE",
"84 1322 LINE",
"32 1306 LINE",
"73 1191 LINE"
);
}
);
width = 228;
},
{
anchors = (
{
name = bottom;
position = "{105, 0}";
},
{
name = top;
position = "{89, 1360}";
}
);
guideLines = (
{
position = "{107, 601}";
},
{
position = "{165, 829}";
}
);
layerId = "D3B47D5E-6A85-4361-9DF6-638C8B7E2782";
paths = (
{
closed = 1;
nodes = (
"118 1101 OFFCURVE",
"141 1114 OFFCURVE",
"140 1172 CURVE SMOOTH",
"136 1339 LINE",
"118 1339 LINE",
"122 1165 LINE SMOOTH",
"123 1131 OFFCURVE",
"106 1119 OFFCURVE",
"20 1129 CURVE",
"20 1111 LINE"
);
},
{
closed = 1;
nodes = (
"92 1191 LINE",
"48 1316 LINE",
"29 1311 LINE",
"74 1185 LINE"
);
}
);
width = 165;
},
{
anchors = (
{
name = bottom;
position = "{105, 0}";
},
{
name = top;
position = "{89, 1360}";
}
);
layerId = "08F1692B-9525-48D2-9816-1987B1C44D50";
paths = (
{
closed = 1;
nodes = (
"154 1109 OFFCURVE",
"195 1128 OFFCURVE",
"192 1211 CURVE SMOOTH",
"187 1342 LINE",
"136 1342 LINE",
"139 1209 LINE SMOOTH",
"140 1175 OFFCURVE",
"120 1165 OFFCURVE",
"20 1171 CURVE",
"21 1118 LINE"
);
},
{
closed = 1;
nodes = (
"119 1211 LINE",
"79 1325 LINE",
"28 1309 LINE",
"69 1193 LINE"
);
}
);
width = 217;
},
{
anchors = (
{
name = bottom;
position = "{105, 0}";
},
{
name = top;
position = "{89, 1360}";
}
);
guideLines = (
{
position = "{117, 601}";
},
{
position = "{175, 829}";
}
);
layerId = "A2AC38AA-6CC4-4B2B-B5AB-64A49772F2D3";
paths = (
{
closed = 1;
nodes = (
"138 1102 OFFCURVE",
"161 1115 OFFCURVE",
"160 1173 CURVE SMOOTH",
"156 1340 LINE",
"138 1340 LINE",
"142 1166 LINE SMOOTH",
"143 1132 OFFCURVE",
"126 1120 OFFCURVE",
"20 1130 CURVE",
"20 1112 LINE"
);
},
{
closed = 1;
nodes = (
"102 1192 LINE",
"58 1317 LINE",
"39 1312 LINE",
"84 1186 LINE"
);
}
);
width = 185;
},
{
anchors = (
{
name = bottom;
position = "{105, 0}";
},
{
name = top;
position = "{89, 1360}";
}
);
guideLines = (
{
position = "{117, 601}";
},
{
position = "{175, 829}";
}
);
layerId = "6D0603BE-7277-4DA4-8C59-7934AF28E45B";
paths = (
{
closed = 1;
nodes = (
"142 1105 OFFCURVE",
"189 1126 OFFCURVE",
"187 1195 CURVE SMOOTH",
"182 1343 LINE",
"132 1343 LINE",
"136 1194 LINE SMOOTH",
"137 1169 OFFCURVE",
"116 1159 OFFCURVE",
"20 1165 CURVE",
"20 1115 LINE"
);
},
{
closed = 1;
nodes = (
"115 1201 LINE",
"71 1326 LINE",
"22 1310 LINE",
"67 1184 LINE"
);
}
);
width = 212;
},
{
anchors = (
{
name = bottom;
position = "{105, 0}";
},
{
name = top;
position = "{89, 1360}";
}
);
guideLines = (
{
position = "{117, 601}";
},
{
position = "{175, 829}";
}
);
layerId = "E1555194-BAFD-4DCC-A026-E2F9BA1917F2";
paths = (
{
closed = 1;
nodes = (
"168 1091 OFFCURVE",
"214 1112 OFFCURVE",
"211 1199 CURVE SMOOTH",
"206 1341 LINE",
"144 1341 LINE",
"148 1198 LINE SMOOTH",
"149 1170 OFFCURVE",
"128 1156 OFFCURVE",
"20 1166 CURVE",
"21 1101 LINE"
);
},
{
closed = 1;
nodes = (
"128 1203 LINE",
"84 1328 LINE",
"23 1308 LINE",
"68 1182 LINE"
);
}
);
width = 236;
},
{
anchors = (
{
name = bottom;
position = "{105, 0}";
},
{
name = top;
position = "{89, 1360}";
}
);
layerId = "8594390A-478C-48BC-BAB2-0B8797A53DFB";
paths = (
{
closed = 1;
nodes = (
"179 1082 OFFCURVE",
"224 1103 OFFCURVE",
"221 1202 CURVE SMOOTH",
"216 1340 LINE",
"158 1340 LINE",
"162 1201 LINE SMOOTH",
"163 1157 OFFCURVE",
"141 1145 OFFCURVE",
"20 1151 CURVE",
"21 1092 LINE"
);
},
{
closed = 1;
nodes = (
"134 1196 LINE",
"90 1321 LINE",
"33 1303 LINE",
"78 1177 LINE"
);
}
);
width = 246;
}
);
unicode = 06D9;
}
{
glyphname = "maddalong-ar";
layers = (
{
anchors = (
{
name = _top;
position = "{151, 458}";
},
{
name = top;
position = "{184, 689}";
}
);
layerId = "9B455188-434F-489F-9A18-4C18DBE88840";
paths = (
{
closed = 1;
nodes = (
"78 632 OFFCURVE",
"89 649 OFFCURVE",
"101 649 CURVE SMOOTH",
"119 649 OFFCURVE",
"172 613 OFFCURVE",
"203 613 CURVE SMOOTH",
"214 613 OFFCURVE",
"230 616 OFFCURVE",
"250 650 CURVE",
"237 685 LINE",
"225 671 OFFCURVE",
"214 662 OFFCURVE",
"204 662 CURVE SMOOTH",
"177 662 OFFCURVE",
"127 698 OFFCURVE",
"102 698 CURVE SMOOTH",
"82 698 OFFCURVE",
"64 677 OFFCURVE",
"49 642 CURVE",
"67 613 LINE"
);
}
);
width = 355;
},
{
anchors = (
{
name = _top;
position = "{210, 458}";
},
{
name = top;
position = "{210, 741}";
}
);
layerId = "A7E21968-E455-4749-BB19-379F5EDC3B9B";
paths = (
{
closed = 1;
nodes = (
"102 637 OFFCURVE",
"112 648 OFFCURVE",
"125 648 CURVE SMOOTH",
"156 648 OFFCURVE",
"178 611 OFFCURVE",
"223 611 CURVE SMOOTH",
"234 611 OFFCURVE",
"250 616 OFFCURVE",
"278 656 CURVE",
"257 717 LINE",
"243 702 OFFCURVE",
"234 696 OFFCURVE",
"223 696 CURVE SMOOTH",
"183 696 OFFCURVE",
"164 732 OFFCURVE",
"125 732 CURVE SMOOTH",
"104 732 OFFCURVE",
"85 711 OFFCURVE",
"63 667 CURVE",
"91 617 LINE"
);
}
);
width = 369;
},
{
anchors = (
{
name = _top;
position = "{140, 458}";
},
{
name = top;
position = "{173, 692}";
}
);
layerId = "D3B47D5E-6A85-4361-9DF6-638C8B7E2782";
paths = (
{
closed = 1;
nodes = (
"66 588 OFFCURVE",
"76 607 OFFCURVE",
"91 607 CURVE SMOOTH",
"111 607 OFFCURVE",
"156 567 OFFCURVE",
"192 567 CURVE SMOOTH",
"202 567 OFFCURVE",
"220 570 OFFCURVE",
"242 608 CURVE",
"235 622 LINE",
"223 604 OFFCURVE",
"211 587 OFFCURVE",
"192 587 CURVE SMOOTH",
"155 587 OFFCURVE",
"117 627 OFFCURVE",
"91 627 CURVE SMOOTH",
"75 627 OFFCURVE",
"62 610 OFFCURVE",
"46 580 CURVE",
"54 567 LINE"
);
}
);
width = 350;
},
{
anchors = (
{
name = _top;
position = "{188, 458}";
},
{
name = top;
position = "{188, 723}";
}
);
layerId = "08F1692B-9525-48D2-9816-1987B1C44D50";
paths = (
{
closed = 1;
nodes = (
"93 637 OFFCURVE",
"103 650 OFFCURVE",
"116 650 CURVE SMOOTH",
"143 650 OFFCURVE",
"175 613 OFFCURVE",
"216 613 CURVE SMOOTH",
"227 613 OFFCURVE",
"243 617 OFFCURVE",
"268 655 CURVE",
"250 704 LINE",
"237 689 OFFCURVE",
"227 681 OFFCURVE",
"216 681 CURVE SMOOTH",
"180 681 OFFCURVE",
"151 717 OFFCURVE",
"116 717 CURVE SMOOTH",
"96 717 OFFCURVE",
"78 697 OFFCURVE",
"58 656 CURVE",
"82 617 LINE"
);
}
);
width = 364;
},
{
anchors = (
{
name = _top;
position = "{150, 458}";
},
{
name = top;
position = "{183, 692}";
}
);
layerId = "A2AC38AA-6CC4-4B2B-B5AB-64A49772F2D3";
paths = (
{
closed = 1;
nodes = (
"66 575 OFFCURVE",
"76 594 OFFCURVE",
"92 594 CURVE SMOOTH",
"113 594 OFFCURVE",
"171 554 OFFCURVE",
"209 554 CURVE SMOOTH",
"220 554 OFFCURVE",
"238 557 OFFCURVE",
"261 595 CURVE",
"253 609 LINE",
"242 591 OFFCURVE",
"229 574 OFFCURVE",
"208 574 CURVE SMOOTH",
"170 574 OFFCURVE",
"119 614 OFFCURVE",
"92 614 CURVE SMOOTH",
"75 614 OFFCURVE",
"62 597 OFFCURVE",
"45 567 CURVE",
"54 554 LINE"
);
}
);
width = 370;
},
{
anchors = (
{
name = _top;
position = "{170, 458}";
},
{
name = top;
position = "{203, 698}";
}
);
layerId = "6D0603BE-7277-4DA4-8C59-7934AF28E45B";
paths = (
{
closed = 1;
nodes = (
"82 634 OFFCURVE",
"94 653 OFFCURVE",
"108 653 CURVE SMOOTH",
"129 653 OFFCURVE",
"191 613 OFFCURVE",
"228 613 CURVE SMOOTH",
"241 613 OFFCURVE",
"259 616 OFFCURVE",
"283 654 CURVE",
"266 696 LINE",
"253 680 OFFCURVE",
"241 670 OFFCURVE",
"229 670 CURVE SMOOTH",
"197 670 OFFCURVE",
"139 710 OFFCURVE",
"109 710 CURVE SMOOTH",
"86 710 OFFCURVE",
"65 687 OFFCURVE",
"47 648 CURVE",
"70 613 LINE"
);
}
);
width = 390;
},
{
anchors = (
{
name = _top;
position = "{206, 458}";
},
{
name = top;
position = "{218, 722}";
}
);
layerId = "E1555194-BAFD-4DCC-A026-E2F9BA1917F2";
paths = (
{
closed = 1;
nodes = (
"91 633 OFFCURVE",
"102 648 OFFCURVE",
"117 648 CURVE SMOOTH",
"147 648 OFFCURVE",
"188 607 OFFCURVE",
"234 607 CURVE SMOOTH",
"247 607 OFFCURVE",
"266 612 OFFCURVE",
"295 653 CURVE",
"274 706 LINE",
"258 690 OFFCURVE",
"247 682 OFFCURVE",
"234 682 CURVE SMOOTH",
"193 682 OFFCURVE",
"158 722 OFFCURVE",
"117 722 CURVE SMOOTH",
"94 722 OFFCURVE",
"72 699 OFFCURVE",
"49 654 CURVE",
"78 612 LINE"
);
}
);
width = 400;
},
{
anchors = (
{
name = _top;
position = "{228, 458}";
},
{
name = top;
position = "{228, 741}";
}
);
layerId = "8594390A-478C-48BC-BAB2-0B8797A53DFB";
paths = (
{
closed = 1;
nodes = (
"97 632 OFFCURVE",
"108 645 OFFCURVE",
"123 645 CURVE SMOOTH",
"159 645 OFFCURVE",
"185 604 OFFCURVE",
"238 604 CURVE SMOOTH",
"251 604 OFFCURVE",
"270 609 OFFCURVE",
"302 653 CURVE",
"278 720 LINE",
"261 704 OFFCURVE",
"251 697 OFFCURVE",
"238 697 CURVE SMOOTH",
"191 697 OFFCURVE",
"169 737 OFFCURVE",
"123 737 CURVE SMOOTH",
"99 737 OFFCURVE",
"76 714 OFFCURVE",
"51 665 CURVE",
"84 611 LINE"
);
}
);
width = 405;
}
);
unicode = 06E4;
}
{
glyphname = "meemStopabove-ar";
layers = (
{
anchors = (
{
name = _stop;
position = "{177, 1030}";
}
);
layerId = "9B455188-434F-489F-9A18-4C18DBE88840";
paths = (
{
closed = 1;
nodes = (
"120 1079 OFFCURVE",
"152 1104 OFFCURVE",
"175 1128 CURVE SMOOTH",
"204 1159 OFFCURVE",
"215 1185 OFFCURVE",
"229 1185 CURVE SMOOTH",
"239 1185 OFFCURVE",
"245 1171 OFFCURVE",
"245 1157 CURVE SMOOTH",
"245 1144 OFFCURVE",
"241 1135 OFFCURVE",
"232 1135 CURVE SMOOTH",
"225 1135 OFFCURVE",
"205 1140 OFFCURVE",
"179 1161 CURVE",
"161 1123 LINE",
"189 1100 OFFCURVE",
"214 1089 OFFCURVE",
"235 1089 CURVE SMOOTH",
"268 1089 OFFCURVE",
"290 1118 OFFCURVE",
"290 1159 CURVE SMOOTH",
"290 1201 OFFCURVE",
"265 1234 OFFCURVE",
"234 1234 CURVE SMOOTH",
"204 1234 OFFCURVE",
"183 1204 OFFCURVE",
"158 1175 CURVE SMOOTH",
"129 1140 OFFCURVE",
"99 1117 OFFCURVE",
"60 1117 CURVE",
"64 1073 LINE"
);
}
);
width = 354;
},
{
anchors = (
{
name = _stop;
position = "{183, 1030}";
}
);
layerId = "A7E21968-E455-4749-BB19-379F5EDC3B9B";
paths = (
{
closed = 1;
nodes = (
"114 1177 OFFCURVE",
"157 1214 OFFCURVE",
"183 1238 CURVE SMOOTH",
"203 1257 OFFCURVE",
"221 1290 OFFCURVE",
"237 1290 CURVE SMOOTH",
"244 1290 OFFCURVE",
"249 1281 OFFCURVE",
"249 1267 CURVE SMOOTH",
"249 1255 OFFCURVE",
"244 1247 OFFCURVE",
"235 1247 CURVE SMOOTH",
"224 1247 OFFCURVE",
"208 1253 OFFCURVE",
"183 1274 CURVE",
"160 1228 LINE",
"188 1206 OFFCURVE",
"214 1195 OFFCURVE",
"240 1195 CURVE SMOOTH",
"274 1195 OFFCURVE",
"302 1221 OFFCURVE",
"302 1267 CURVE SMOOTH",
"302 1317 OFFCURVE",
"272 1347 OFFCURVE",
"238 1347 CURVE SMOOTH",
"205 1347 OFFCURVE",
"180 1315 OFFCURVE",
"146 1277 CURVE SMOOTH",
"125 1252 OFFCURVE",
"91 1229 OFFCURVE",
"60 1229 CURVE",
"64 1177 LINE"
);
}
);
width = 366;
},
{
anchors = (
{
name = _stop;
position = "{170, 1030}";
}
);
layerId = "D3B47D5E-6A85-4361-9DF6-638C8B7E2782";
paths = (
{
closed = 1;
nodes = (
"114 1073 OFFCURVE",
"142 1118 OFFCURVE",
"170 1153 CURVE SMOOTH",
"196 1186 OFFCURVE",
"211 1211 OFFCURVE",
"231 1211 CURVE SMOOTH",
"244 1211 OFFCURVE",
"258 1196 OFFCURVE",
"258 1160 CURVE SMOOTH",
"258 1126 OFFCURVE",
"248 1110 OFFCURVE",
"225 1110 CURVE SMOOTH",
"200 1110 OFFCURVE",
"181 1128 OFFCURVE",
"159 1149 CURVE",
"151 1133 LINE",
"178 1109 OFFCURVE",
"202 1092 OFFCURVE",
"227 1092 CURVE SMOOTH",
"258 1092 OFFCURVE",
"276 1116 OFFCURVE",
"276 1161 CURVE SMOOTH",
"276 1206 OFFCURVE",
"255 1229 OFFCURVE",
"231 1229 CURVE SMOOTH",
"201 1229 OFFCURVE",
"181 1196 OFFCURVE",
"156 1164 CURVE SMOOTH",
"126 1126 OFFCURVE",
"103 1091 OFFCURVE",
"60 1091 CURVE",
"62 1073 LINE"
);
}
);
width = 340;
},
{
anchors = (
{
name = _stop;
position = "{181, 1030}";
}
);
layerId = "08F1692B-9525-48D2-9816-1987B1C44D50";
paths = (
{
closed = 1;
nodes = (
"113 1123 OFFCURVE",
"154 1158 OFFCURVE",
"180 1185 CURVE SMOOTH",
"203 1209 OFFCURVE",
"221 1237 OFFCURVE",
"234 1237 CURVE SMOOTH",
"243 1237 OFFCURVE",
"247 1224 OFFCURVE",
"247 1213 CURVE SMOOTH",
"247 1201 OFFCURVE",
"243 1192 OFFCURVE",
"233 1192 CURVE SMOOTH",
"224 1192 OFFCURVE",
"206 1198 OFFCURVE",
"181 1219 CURVE",
"160 1173 LINE",
"188 1151 OFFCURVE",
"214 1141 OFFCURVE",
"237 1140 CURVE SMOOTH",
"273 1140 OFFCURVE",
"298 1167 OFFCURVE",
"298 1214 CURVE SMOOTH",
"298 1263 OFFCURVE",
"269 1292 OFFCURVE",
"237 1292 CURVE SMOOTH",
"204 1292 OFFCURVE",
"180 1260 OFFCURVE",
"150 1226 CURVE SMOOTH",
"128 1201 OFFCURVE",
"100 1173 OFFCURVE",
"60 1173 CURVE",
"64 1123 LINE"
);
}
);
width = 362;
},
{
anchors = (
{
name = _stop;
position = "{180, 1030}";
}
);
layerId = "A2AC38AA-6CC4-4B2B-B5AB-64A49772F2D3";
paths = (
{
closed = 1;
nodes = (
"114 1073 OFFCURVE",
"152 1118 OFFCURVE",
"180 1153 CURVE SMOOTH",
"206 1186 OFFCURVE",
"227 1211 OFFCURVE",
"247 1211 CURVE SMOOTH",
"262 1211 OFFCURVE",
"278 1196 OFFCURVE",
"278 1160 CURVE SMOOTH",
"278 1126 OFFCURVE",
"266 1110 OFFCURVE",
"241 1110 CURVE SMOOTH",
"216 1110 OFFCURVE",
"191 1128 OFFCURVE",
"169 1149 CURVE",
"161 1133 LINE",
"188 1109 OFFCURVE",
"218 1092 OFFCURVE",
"243 1092 CURVE SMOOTH",
"276 1092 OFFCURVE",
"296 1116 OFFCURVE",
"296 1161 CURVE SMOOTH",
"296 1206 OFFCURVE",
"273 1229 OFFCURVE",
"247 1229 CURVE SMOOTH",
"217 1229 OFFCURVE",
"191 1196 OFFCURVE",
"166 1164 CURVE SMOOTH",
"136 1126 OFFCURVE",
"103 1091 OFFCURVE",
"60 1091 CURVE",
"62 1073 LINE"
);
}
);
width = 360;
},
{
anchors = (
{
name = _stop;
position = "{189, 1030}";
}
);
layerId = "6D0603BE-7277-4DA4-8C59-7934AF28E45B";
paths = (
{
closed = 1;
nodes = (
"126 1078 OFFCURVE",
"161 1106 OFFCURVE",
"186 1132 CURVE SMOOTH",
"218 1166 OFFCURVE",
"231 1195 OFFCURVE",
"246 1195 CURVE SMOOTH",
"257 1195 OFFCURVE",
"264 1180 OFFCURVE",
"264 1164 CURVE SMOOTH",
"264 1150 OFFCURVE",
"259 1140 OFFCURVE",
"249 1140 CURVE SMOOTH",
"241 1140 OFFCURVE",
"219 1146 OFFCURVE",
"191 1169 CURVE",
"171 1127 LINE",
"202 1102 OFFCURVE",
"229 1090 OFFCURVE",
"252 1090 CURVE SMOOTH",
"289 1090 OFFCURVE",
"313 1121 OFFCURVE",
"313 1166 CURVE SMOOTH",
"313 1213 OFFCURVE",
"286 1249 OFFCURVE",
"251 1249 CURVE SMOOTH",
"218 1249 OFFCURVE",
"195 1216 OFFCURVE",
"168 1184 CURVE SMOOTH",
"136 1146 OFFCURVE",
"103 1120 OFFCURVE",
"60 1120 CURVE",
"64 1072 LINE"
);
}
);
width = 377;
},
{
anchors = (
{
name = _stop;
position = "{195, 1030}";
}
);
layerId = "E1555194-BAFD-4DCC-A026-E2F9BA1917F2";
paths = (
{
closed = 1;
nodes = (
"117 1122 OFFCURVE",
"164 1156 OFFCURVE",
"192 1186 CURVE SMOOTH",
"223 1220 OFFCURVE",
"235 1246 OFFCURVE",
"252 1246 CURVE SMOOTH",
"260 1246 OFFCURVE",
"267 1234 OFFCURVE",
"267 1220 CURVE SMOOTH",
"267 1206 OFFCURVE",
"261 1197 OFFCURVE",
"251 1197 CURVE SMOOTH",
"240 1197 OFFCURVE",
"221 1203 OFFCURVE",
"193 1226 CURVE",
"170 1172 LINE",
"201 1147 OFFCURVE",
"229 1135 OFFCURVE",
"254 1135 CURVE SMOOTH",
"295 1135 OFFCURVE",
"326 1168 OFFCURVE",
"326 1221 CURVE SMOOTH",
"326 1275 OFFCURVE",
"293 1311 OFFCURVE",
"253 1311 CURVE SMOOTH",
"219 1311 OFFCURVE",
"192 1276 OFFCURVE",
"160 1239 CURVE SMOOTH",
"133 1207 OFFCURVE",
"98 1182 OFFCURVE",
"60 1182 CURVE",
"64 1122 LINE"
);
}
);
width = 390;
},
{
anchors = (
{
name = _stop;
position = "{195, 1030}";
}
);
layerId = "8594390A-478C-48BC-BAB2-0B8797A53DFB";
paths = (
{
closed = 1;
nodes = (
"119 1156 OFFCURVE",
"167 1196 OFFCURVE",
"195 1223 CURVE SMOOTH",
"217 1244 OFFCURVE",
"237 1280 OFFCURVE",
"255 1280 CURVE SMOOTH",
"262 1280 OFFCURVE",
"268 1270 OFFCURVE",
"268 1255 CURVE SMOOTH",
"268 1241 OFFCURVE",
"262 1233 OFFCURVE",
"252 1233 CURVE SMOOTH",
"240 1233 OFFCURVE",
"223 1239 OFFCURVE",
"195 1262 CURVE",
"170 1212 LINE",
"201 1187 OFFCURVE",
"229 1175 OFFCURVE",
"258 1175 CURVE SMOOTH",
"295 1175 OFFCURVE",
"326 1204 OFFCURVE",
"326 1255 CURVE SMOOTH",
"326 1309 OFFCURVE",
"293 1342 OFFCURVE",
"256 1342 CURVE SMOOTH",
"219 1342 OFFCURVE",
"192 1307 OFFCURVE",
"155 1265 CURVE SMOOTH",
"131 1238 OFFCURVE",
"94 1213 OFFCURVE",
"60 1213 CURVE",
"64 1156 LINE"
);
}
);
width = 390;
}
);
unicode = 06D8;
}
{
glyphname = "meemabove-ar";
layers = (
{
anchors = (
{
name = _top;
position = "{109, 464}";
},
{
name = top;
position = "{89, 760}";
}
);
layerId = "9B455188-434F-489F-9A18-4C18DBE88840";
paths = (
{
closed = 1;
nodes = (
"88 521 LINE",
"83 545 OFFCURVE",
"79 572 OFFCURVE",
"79 585 CURVE SMOOTH",
"79 625 OFFCURVE",
"121 626 OFFCURVE",
"167 611 CURVE",
"172 619 OFFCURVE",
"179 641 OFFCURVE",
"179 663 CURVE SMOOTH",
"179 699 OFFCURVE",
"160 741 OFFCURVE",
"115 741 CURVE SMOOTH",
"90 741 OFFCURVE",
"63 727 OFFCURVE",
"49 699 CURVE",
"73 668 LINE",
"83 687 OFFCURVE",
"96 696 OFFCURVE",
"111 696 CURVE SMOOTH",
"135 696 OFFCURVE",
"143 673 OFFCURVE",
"136 637 CURVE",
"167 648 LINE",
"130 669 OFFCURVE",
"38 671 OFFCURVE",
"38 593 CURVE SMOOTH",
"38 577 OFFCURVE",
"41 547 OFFCURVE",
"48 514 CURVE"
);
}
);
width = 195;
},
{
anchors = (
{
name = _top;
position = "{124, 449}";
},
{
name = top;
position = "{89, 760}";
}
);
layerId = "A7E21968-E455-4749-BB19-379F5EDC3B9B";
paths = (
{
closed = 1;
nodes = (
"100 508 LINE",
"96 527 OFFCURVE",
"91 555 OFFCURVE",
"91 570 CURVE SMOOTH",
"91 611 OFFCURVE",
"130 610 OFFCURVE",
"197 590 CURVE",
"202 599 OFFCURVE",
"209 625 OFFCURVE",
"209 655 CURVE SMOOTH",
"209 702 OFFCURVE",
"182 741 OFFCURVE",
"130 741 CURVE SMOOTH",
"102 741 OFFCURVE",
"70 723 OFFCURVE",
"57 699 CURVE",
"89 662 LINE",
"99 676 OFFCURVE",
"113 684 OFFCURVE",
"127 684 CURVE SMOOTH",
"153 684 OFFCURVE",
"161 660 OFFCURVE",
"151 613 CURVE",
"182 639 LINE",
"135 667 OFFCURVE",
"38 661 OFFCURVE",
"38 576 CURVE SMOOTH",
"38 560 OFFCURVE",
"41 531 OFFCURVE",
"49 499 CURVE"
);
}
);
width = 225;
},
{
anchors = (
{
name = _top;
position = "{94, 457}";
},
{
name = top;
position = "{89, 760}";
}
);
layerId = "D3B47D5E-6A85-4361-9DF6-638C8B7E2782";
paths = (
{
closed = 1;
nodes = (
"68 511 LINE",
"63 531 OFFCURVE",
"56 559 OFFCURVE",
"56 581 CURVE SMOOTH",
"56 639 OFFCURVE",
"93 638 OFFCURVE",
"139 620 CURVE",
"144 628 OFFCURVE",
"150 645 OFFCURVE",
"150 667 CURVE SMOOTH",
"150 704 OFFCURVE",
"133 740 OFFCURVE",
"98 740 CURVE SMOOTH",
"75 740 OFFCURVE",
"53 725 OFFCURVE",
"39 695 CURVE",
"53 687 LINE",
"65 709 OFFCURVE",
"77 722 OFFCURVE",
"95 722 CURVE SMOOTH",
"121 722 OFFCURVE",
"140 692 OFFCURVE",
"129 638 CURVE",
"141 636 LINE",
"106 656 OFFCURVE",
"38 660 OFFCURVE",
"38 582 CURVE SMOOTH",
"38 566 OFFCURVE",
"42 542 OFFCURVE",
"50 507 CURVE"
);
}
);
width = 166;
},
{
anchors = (
{
name = _top;
position = "{120, 454}";
},
{
name = top;
position = "{89, 760}";
}
);
layerId = "08F1692B-9525-48D2-9816-1987B1C44D50";
paths = (
{
closed = 1;
nodes = (
"99 512 LINE",
"94 533 OFFCURVE",
"90 561 OFFCURVE",
"90 575 CURVE SMOOTH",
"90 613 OFFCURVE",
"129 613 OFFCURVE",
"189 596 CURVE",
"194 605 OFFCURVE",
"201 631 OFFCURVE",
"201 657 CURVE SMOOTH",
"201 705 OFFCURVE",
"175 743 OFFCURVE",
"128 743 CURVE SMOOTH",
"97 743 OFFCURVE",
"67 727 OFFCURVE",
"52 702 CURVE",
"83 667 LINE",
"93 681 OFFCURVE",
"108 688 OFFCURVE",
"122 688 CURVE SMOOTH",
"146 688 OFFCURVE",
"153 665 OFFCURVE",
"145 622 CURVE",
"177 644 LINE",
"133 671 OFFCURVE",
"38 668 OFFCURVE",
"38 581 CURVE SMOOTH",
"38 565 OFFCURVE",
"41 536 OFFCURVE",
"49 504 CURVE"
);
}
);
width = 217;
},
{
anchors = (
{
name = _top;
position = "{104, 457}";
},
{
name = top;
position = "{89, 760}";
}
);
layerId = "A2AC38AA-6CC4-4B2B-B5AB-64A49772F2D3";
paths = (
{
closed = 1;
nodes = (
"68 511 LINE",
"63 531 OFFCURVE",
"56 559 OFFCURVE",
"56 581 CURVE SMOOTH",
"56 639 OFFCURVE",
"113 638 OFFCURVE",
"159 620 CURVE",
"164 628 OFFCURVE",
"170 645 OFFCURVE",
"170 667 CURVE SMOOTH",
"170 704 OFFCURVE",
"149 740 OFFCURVE",
"108 740 CURVE SMOOTH",
"80 740 OFFCURVE",
"55 725 OFFCURVE",
"39 695 CURVE",
"53 687 LINE",
"67 709 OFFCURVE",
"82 722 OFFCURVE",
"105 722 CURVE SMOOTH",
"140 722 OFFCURVE",
"160 691 OFFCURVE",
"149 638 CURVE",
"161 636 LINE",
"126 656 OFFCURVE",
"38 660 OFFCURVE",
"38 582 CURVE SMOOTH",
"38 566 OFFCURVE",
"42 542 OFFCURVE",
"50 507 CURVE"
);
}
);
width = 186;
},
{
anchors = (
{
name = _top;
position = "{118, 443}";
},
{
name = top;
position = "{89, 760}";
}
);
layerId = "6D0603BE-7277-4DA4-8C59-7934AF28E45B";
paths = (
{
closed = 1;
nodes = (
"96 500 LINE",
"90 528 OFFCURVE",
"86 559 OFFCURVE",
"86 572 CURVE SMOOTH",
"86 612 OFFCURVE",
"127 616 OFFCURVE",
"185 597 CURVE",
"190 605 OFFCURVE",
"198 631 OFFCURVE",
"198 657 CURVE SMOOTH",
"198 700 OFFCURVE",
"174 744 OFFCURVE",
"123 744 CURVE SMOOTH",
"92 744 OFFCURVE",
"63 726 OFFCURVE",
"47 697 CURVE",
"82 665 LINE",
"89 677 OFFCURVE",
"101 690 OFFCURVE",
"118 690 CURVE SMOOTH",
"143 690 OFFCURVE",
"152 667 OFFCURVE",
"144 628 CURVE",
"182 642 LINE",
"137 666 OFFCURVE",
"38 663 OFFCURVE",
"38 583 CURVE SMOOTH",
"38 566 OFFCURVE",
"42 530 OFFCURVE",
"50 493 CURVE"
);
}
);
width = 214;
},
{
anchors = (
{
name = _top;
position = "{131, 423}";
},
{
name = top;
position = "{89, 760}";
}
);
layerId = "E1555194-BAFD-4DCC-A026-E2F9BA1917F2";
paths = (
{
closed = 1;
nodes = (
"109 482 LINE",
"104 506 OFFCURVE",
"99 538 OFFCURVE",
"99 550 CURVE SMOOTH",
"99 584 OFFCURVE",
"137 591 OFFCURVE",
"210 569 CURVE",
"215 584 OFFCURVE",
"223 613 OFFCURVE",
"223 640 CURVE SMOOTH",
"223 694 OFFCURVE",
"193 741 OFFCURVE",
"138 741 CURVE SMOOTH",
"104 741 OFFCURVE",
"69 723 OFFCURVE",
"53 695 CURVE",
"90 653 LINE",
"101 666 OFFCURVE",
"113 675 OFFCURVE",
"129 675 CURVE SMOOTH",
"154 675 OFFCURVE",
"166 652 OFFCURVE",
"156 602 CURVE",
"193 623 LINE",
"145 652 OFFCURVE",
"38 647 OFFCURVE",
"38 558 CURVE SMOOTH",
"38 540 OFFCURVE",
"42 508 OFFCURVE",
"50 473 CURVE"
);
}
);
width = 239;
},
{
anchors = (
{
name = _top;
position = "{133, 423}";
},
{
name = top;
position = "{89, 760}";
}
);
layerId = "8594390A-478C-48BC-BAB2-0B8797A53DFB";
paths = (
{
closed = 1;
nodes = (
"107 483 LINE",
"102 504 OFFCURVE",
"97 535 OFFCURVE",
"97 551 CURVE SMOOTH",
"97 596 OFFCURVE",
"140 595 OFFCURVE",
"213 573 CURVE",
"219 583 OFFCURVE",
"227 612 OFFCURVE",
"227 644 CURVE SMOOTH",
"227 696 OFFCURVE",
"197 739 OFFCURVE",
"140 739 CURVE SMOOTH",
"109 739 OFFCURVE",
"74 719 OFFCURVE",
"59 693 CURVE",
"95 652 LINE",
"105 668 OFFCURVE",
"121 676 OFFCURVE",
"136 676 CURVE SMOOTH",
"165 676 OFFCURVE",
"174 650 OFFCURVE",
"163 598 CURVE",
"197 627 LINE",
"145 658 OFFCURVE",
"38 651 OFFCURVE",
"38 558 CURVE SMOOTH",
"38 540 OFFCURVE",
"42 508 OFFCURVE",
"50 473 CURVE"
);
}
);
width = 243;
}
);
unicode = 06E2;
}
{
glyphname = "noonStopabove-ar";
layers = (
{
anchors = (
{
name = _stop;
position = "{130, 1030}";
}
);
guideLines = (
{
position = "{-102, 872}";
}
);
layerId = "9B455188-434F-489F-9A18-4C18DBE88840";
paths = (
{
closed = 1;
nodes = (
"193 1073 OFFCURVE",
"230 1111 OFFCURVE",
"230 1176 CURVE SMOOTH",
"230 1213 OFFCURVE",
"214 1244 OFFCURVE",
"205 1259 CURVE",
"167 1236 LINE",
"179 1214 OFFCURVE",
"186 1194 OFFCURVE",
"186 1175 CURVE SMOOTH",
"186 1152 OFFCURVE",
"176 1117 OFFCURVE",
"123 1117 CURVE SMOOTH",
"89 1117 OFFCURVE",
"73 1133 OFFCURVE",
"73 1159 CURVE SMOOTH",
"73 1176 OFFCURVE",
"79 1192 OFFCURVE",
"85 1206 CURVE",
"46 1220 LINE",
"34 1199 OFFCURVE",
"27 1176 OFFCURVE",
"27 1154 CURVE SMOOTH",
"27 1097 OFFCURVE",
"67 1073 OFFCURVE",
"122 1073 CURVE SMOOTH"
);
},
{
closed = 1;
nodes = (
"138 1262 OFFCURVE",
"151 1274 OFFCURVE",
"151 1289 CURVE SMOOTH",
"151 1304 OFFCURVE",
"138 1316 OFFCURVE",
"124 1316 CURVE SMOOTH",
"108 1316 OFFCURVE",
"95 1304 OFFCURVE",
"95 1289 CURVE SMOOTH",
"95 1274 OFFCURVE",
"108 1262 OFFCURVE",
"124 1262 CURVE SMOOTH"
);
}
);
width = 260;
},
{
anchors = (
{
name = _stop;
position = "{135, 1030}";
}
);
layerId = "A7E21968-E455-4749-BB19-379F5EDC3B9B";
paths = (
{
closed = 1;
nodes = (
"203 1177 OFFCURVE",
"239 1215 OFFCURVE",
"239 1285 CURVE SMOOTH",
"239 1328 OFFCURVE",
"222 1361 OFFCURVE",
"213 1375 CURVE",
"164 1349 LINE",
"178 1327 OFFCURVE",
"185 1307 OFFCURVE",
"185 1279 CURVE SMOOTH",
"185 1255 OFFCURVE",
"172 1232 OFFCURVE",
"129 1232 CURVE SMOOTH",
"99 1232 OFFCURVE",
"82 1245 OFFCURVE",
"82 1272 CURVE SMOOTH",
"82 1289 OFFCURVE",
"88 1305 OFFCURVE",
"95 1319 CURVE",
"45 1338 LINE",
"33 1317 OFFCURVE",
"27 1295 OFFCURVE",
"27 1270 CURVE SMOOTH",
"27 1201 OFFCURVE",
"76 1177 OFFCURVE",
"128 1177 CURVE SMOOTH"
);
},
{
closed = 1;
nodes = (
"146 1373 OFFCURVE",
"162 1389 OFFCURVE",
"162 1407 CURVE SMOOTH",
"162 1426 OFFCURVE",
"146 1443 OFFCURVE",
"128 1443 CURVE SMOOTH",
"108 1443 OFFCURVE",
"92 1426 OFFCURVE",
"92 1407 CURVE SMOOTH",
"92 1389 OFFCURVE",
"108 1373 OFFCURVE",
"128 1373 CURVE SMOOTH"
);
}
);
width = 269;
},
{
anchors = (
{
name = _stop;
position = "{111, 1030}";
}
);
guideLines = (
{
position = "{-113, 872}";
}
);
layerId = "D3B47D5E-6A85-4361-9DF6-638C8B7E2782";
paths = (
{
closed = 1;
nodes = (
"172 1073 OFFCURVE",
"192 1124 OFFCURVE",
"192 1176 CURVE SMOOTH",
"192 1216 OFFCURVE",
"178 1241 OFFCURVE",
"169 1258 CURVE",
"153 1248 LINE",
"166 1225 OFFCURVE",
"174 1202 OFFCURVE",
"174 1174 CURVE SMOOTH",
"174 1121 OFFCURVE",
"149 1091 OFFCURVE",
"104 1091 CURVE SMOOTH",
"54 1091 OFFCURVE",
"45 1129 OFFCURVE",
"45 1158 CURVE SMOOTH",
"45 1184 OFFCURVE",
"55 1203 OFFCURVE",
"63 1219 CURVE",
"48 1226 LINE",
"35 1205 OFFCURVE",
"27 1180 OFFCURVE",
"27 1155 CURVE SMOOTH",
"27 1102 OFFCURVE",
"59 1073 OFFCURVE",
"106 1073 CURVE SMOOTH"
);
},
{
closed = 1;
nodes = (
"119 1280 OFFCURVE",
"126 1287 OFFCURVE",
"126 1295 CURVE SMOOTH",
"126 1303 OFFCURVE",
"119 1310 OFFCURVE",
"111 1310 CURVE SMOOTH",
"103 1310 OFFCURVE",
"95 1303 OFFCURVE",
"95 1295 CURVE SMOOTH",
"95 1287 OFFCURVE",
"103 1280 OFFCURVE",
"111 1280 CURVE SMOOTH"
);
}
);
width = 222;
},
{
anchors = (
{
name = _stop;
position = "{134, 1030}";
}
);
layerId = "08F1692B-9525-48D2-9816-1987B1C44D50";
paths = (
{
closed = 1;
nodes = (
"201 1123 OFFCURVE",
"237 1162 OFFCURVE",
"237 1231 CURVE SMOOTH",
"237 1272 OFFCURVE",
"221 1303 OFFCURVE",
"212 1318 CURVE",
"163 1294 LINE",
"177 1272 OFFCURVE",
"184 1252 OFFCURVE",
"184 1227 CURVE SMOOTH",
"184 1203 OFFCURVE",
"172 1177 OFFCURVE",
"128 1177 CURVE SMOOTH",
"97 1177 OFFCURVE",
"82 1192 OFFCURVE",
"82 1217 CURVE SMOOTH",
"82 1234 OFFCURVE",
"88 1250 OFFCURVE",
"95 1264 CURVE",
"45 1281 LINE",
"33 1260 OFFCURVE",
"27 1238 OFFCURVE",
"27 1214 CURVE SMOOTH",
"27 1148 OFFCURVE",
"73 1123 OFFCURVE",
"127 1123 CURVE SMOOTH"
);
},
{
closed = 1;
nodes = (
"145 1317 OFFCURVE",
"161 1332 OFFCURVE",
"161 1350 CURVE SMOOTH",
"161 1369 OFFCURVE",
"145 1384 OFFCURVE",
"128 1384 CURVE SMOOTH",
"109 1384 OFFCURVE",
"93 1369 OFFCURVE",
"93 1350 CURVE SMOOTH",
"93 1332 OFFCURVE",
"109 1317 OFFCURVE",
"128 1317 CURVE SMOOTH"
);
}
);
width = 267;
},
{
anchors = (
{
name = _stop;
position = "{121, 1030}";
}
);
guideLines = (
{
position = "{-103, 872}";
}
);
layerId = "A2AC38AA-6CC4-4B2B-B5AB-64A49772F2D3";
paths = (
{
closed = 1;
nodes = (
"188 1073 OFFCURVE",
"212 1124 OFFCURVE",
"212 1176 CURVE SMOOTH",
"212 1216 OFFCURVE",
"198 1241 OFFCURVE",
"189 1258 CURVE",
"173 1248 LINE",
"186 1225 OFFCURVE",
"194 1202 OFFCURVE",
"194 1174 CURVE SMOOTH",
"194 1121 OFFCURVE",
"165 1091 OFFCURVE",
"114 1091 CURVE SMOOTH",
"57 1091 OFFCURVE",
"45 1129 OFFCURVE",
"45 1158 CURVE SMOOTH",
"45 1184 OFFCURVE",
"55 1203 OFFCURVE",
"63 1219 CURVE",
"48 1226 LINE",
"35 1205 OFFCURVE",
"27 1180 OFFCURVE",
"27 1155 CURVE SMOOTH",
"27 1102 OFFCURVE",
"62 1073 OFFCURVE",
"116 1073 CURVE SMOOTH"
);
},
{
closed = 1;
nodes = (
"129 1280 OFFCURVE",
"136 1287 OFFCURVE",
"136 1295 CURVE SMOOTH",
"136 1303 OFFCURVE",
"129 1310 OFFCURVE",
"121 1310 CURVE SMOOTH",
"113 1310 OFFCURVE",
"105 1303 OFFCURVE",
"105 1295 CURVE SMOOTH",
"105 1287 OFFCURVE",
"113 1280 OFFCURVE",
"121 1280 CURVE SMOOTH"
);
}
);
width = 242;
},
{
anchors = (
{
name = _stop;
position = "{142, 1030}";
}
);
guideLines = (
{
position = "{-90, 872}";
}
);
layerId = "6D0603BE-7277-4DA4-8C59-7934AF28E45B";
paths = (
{
closed = 1;
nodes = (
"211 1072 OFFCURVE",
"253 1115 OFFCURVE",
"253 1187 CURVE SMOOTH",
"253 1227 OFFCURVE",
"234 1265 OFFCURVE",
"222 1282 CURVE",
"180 1253 LINE",
"194 1229 OFFCURVE",
"201 1207 OFFCURVE",
"201 1186 CURVE SMOOTH",
"201 1161 OFFCURVE",
"190 1124 OFFCURVE",
"134 1124 CURVE SMOOTH",
"97 1124 OFFCURVE",
"80 1141 OFFCURVE",
"80 1168 CURVE SMOOTH",
"80 1187 OFFCURVE",
"87 1205 OFFCURVE",
"94 1220 CURVE",
"47 1235 LINE",
"34 1212 OFFCURVE",
"27 1187 OFFCURVE",
"27 1163 CURVE SMOOTH",
"27 1100 OFFCURVE",
"70 1072 OFFCURVE",
"133 1072 CURVE SMOOTH"
);
},
{
closed = 1;
nodes = (
"151 1278 OFFCURVE",
"166 1294 OFFCURVE",
"166 1311 CURVE SMOOTH",
"166 1329 OFFCURVE",
"151 1345 OFFCURVE",
"134 1345 CURVE SMOOTH",
"115 1345 OFFCURVE",
"101 1329 OFFCURVE",
"101 1311 CURVE SMOOTH",
"101 1294 OFFCURVE",
"115 1278 OFFCURVE",
"134 1278 CURVE SMOOTH"
);
}
);
width = 283;
},
{
anchors = (
{
name = _stop;
position = "{148, 1030}";
}
);
guideLines = (
{
position = "{-90, 872}";
}
);
layerId = "E1555194-BAFD-4DCC-A026-E2F9BA1917F2";
paths = (
{
closed = 1;
nodes = (
"223 1122 OFFCURVE",
"265 1165 OFFCURVE",
"265 1243 CURVE SMOOTH",
"265 1290 OFFCURVE",
"246 1327 OFFCURVE",
"235 1343 CURVE",
"179 1312 LINE",
"193 1288 OFFCURVE",
"201 1266 OFFCURVE",
"201 1238 CURVE SMOOTH",
"201 1214 OFFCURVE",
"189 1186 OFFCURVE",
"141 1186 CURVE SMOOTH",
"109 1186 OFFCURVE",
"92 1201 OFFCURVE",
"92 1227 CURVE SMOOTH",
"92 1246 OFFCURVE",
"99 1264 OFFCURVE",
"106 1279 CURVE",
"48 1301 LINE",
"34 1277 OFFCURVE",
"27 1250 OFFCURVE",
"27 1223 CURVE SMOOTH",
"27 1150 OFFCURVE",
"79 1122 OFFCURVE",
"140 1122 CURVE SMOOTH"
);
},
{
closed = 1;
nodes = (
"161 1335 OFFCURVE",
"179 1353 OFFCURVE",
"179 1373 CURVE SMOOTH",
"179 1395 OFFCURVE",
"161 1413 OFFCURVE",
"140 1413 CURVE SMOOTH",
"119 1413 OFFCURVE",
"100 1395 OFFCURVE",
"100 1373 CURVE SMOOTH",
"100 1353 OFFCURVE",
"119 1335 OFFCURVE",
"140 1335 CURVE SMOOTH"
);
}
);
width = 295;
},
{
anchors = (
{
name = _stop;
position = "{146, 1030}";
}
);
layerId = "8594390A-478C-48BC-BAB2-0B8797A53DFB";
paths = (
{
closed = 1;
nodes = (
"221 1156 OFFCURVE",
"261 1197 OFFCURVE",
"261 1275 CURVE SMOOTH",
"261 1322 OFFCURVE",
"242 1358 OFFCURVE",
"232 1373 CURVE",
"178 1345 LINE",
"193 1321 OFFCURVE",
"201 1299 OFFCURVE",
"201 1268 CURVE SMOOTH",
"201 1241 OFFCURVE",
"187 1216 OFFCURVE",
"140 1216 CURVE SMOOTH",
"107 1216 OFFCURVE",
"88 1231 OFFCURVE",
"88 1260 CURVE SMOOTH",
"88 1279 OFFCURVE",
"95 1297 OFFCURVE",
"102 1312 CURVE",
"47 1333 LINE",
"34 1310 OFFCURVE",
"27 1285 OFFCURVE",
"27 1258 CURVE SMOOTH",
"27 1182 OFFCURVE",
"81 1156 OFFCURVE",
"139 1156 CURVE SMOOTH"
);
},
{
closed = 1;
nodes = (
"158 1371 OFFCURVE",
"176 1389 OFFCURVE",
"176 1409 CURVE SMOOTH",
"176 1430 OFFCURVE",
"158 1448 OFFCURVE",
"138 1448 CURVE SMOOTH",
"117 1448 OFFCURVE",
"99 1430 OFFCURVE",
"99 1409 CURVE SMOOTH",
"99 1389 OFFCURVE",
"117 1371 OFFCURVE",
"138 1371 CURVE SMOOTH"
);
}
);
width = 291;
}
);
unicode = 06E8;
}
{
glyphname = "noonabove-ar";
layers = (
{
anchors = (
{
name = _top;
position = "{124, 458}";
},
{
name = top;
position = "{124, 847}";
}
);
guideLines = (
{
position = "{-102, 872}";
}
);
layerId = "9B455188-434F-489F-9A18-4C18DBE88840";
paths = (
{
closed = 1;
nodes = (
"193 604 OFFCURVE",
"230 642 OFFCURVE",
"230 707 CURVE SMOOTH",
"230 744 OFFCURVE",
"214 775 OFFCURVE",
"205 790 CURVE",
"167 767 LINE",
"179 745 OFFCURVE",
"186 725 OFFCURVE",
"186 706 CURVE SMOOTH",
"186 683 OFFCURVE",
"176 648 OFFCURVE",
"123 648 CURVE SMOOTH",
"89 648 OFFCURVE",
"73 664 OFFCURVE",
"73 690 CURVE SMOOTH",
"73 707 OFFCURVE",
"79 723 OFFCURVE",
"85 737 CURVE",
"46 751 LINE",
"34 730 OFFCURVE",
"27 707 OFFCURVE",
"27 685 CURVE SMOOTH",
"27 628 OFFCURVE",
"67 604 OFFCURVE",
"122 604 CURVE SMOOTH"
);
},
{
closed = 1;
nodes = (
"138 793 OFFCURVE",
"151 805 OFFCURVE",
"151 820 CURVE SMOOTH",
"151 835 OFFCURVE",
"138 847 OFFCURVE",
"124 847 CURVE SMOOTH",
"108 847 OFFCURVE",
"95 835 OFFCURVE",
"95 820 CURVE SMOOTH",
"95 805 OFFCURVE",
"108 793 OFFCURVE",
"124 793 CURVE SMOOTH"
);
}
);
width = 260;
},
{
anchors = (
{
name = _top;
position = "{129, 458}";
},
{
name = top;
position = "{127, 888}";
}
);
layerId = "A7E21968-E455-4749-BB19-379F5EDC3B9B";
paths = (
{
closed = 1;
nodes = (
"203 609 OFFCURVE",
"239 647 OFFCURVE",
"239 717 CURVE SMOOTH",
"239 760 OFFCURVE",
"222 793 OFFCURVE",
"213 807 CURVE",
"164 781 LINE",
"178 759 OFFCURVE",
"185 739 OFFCURVE",
"185 711 CURVE SMOOTH",
"185 687 OFFCURVE",
"172 664 OFFCURVE",
"129 664 CURVE SMOOTH",
"99 664 OFFCURVE",
"82 677 OFFCURVE",
"82 704 CURVE SMOOTH",
"82 721 OFFCURVE",
"88 737 OFFCURVE",
"95 751 CURVE",
"45 770 LINE",
"33 749 OFFCURVE",
"27 727 OFFCURVE",
"27 702 CURVE SMOOTH",
"27 633 OFFCURVE",
"76 609 OFFCURVE",
"128 609 CURVE SMOOTH"
);
},
{
closed = 1;
nodes = (
"146 805 OFFCURVE",
"162 821 OFFCURVE",
"162 839 CURVE SMOOTH",
"162 858 OFFCURVE",
"146 875 OFFCURVE",
"128 875 CURVE SMOOTH",
"108 875 OFFCURVE",
"92 858 OFFCURVE",
"92 839 CURVE SMOOTH",
"92 821 OFFCURVE",
"108 805 OFFCURVE",
"128 805 CURVE SMOOTH"
);
}
);
width = 269;
},
{
anchors = (
{
name = _top;
position = "{113, 458}";
},
{
name = top;
position = "{111, 833}";
}
);
guideLines = (
{
position = "{-113, 872}";
}
);
layerId = "D3B47D5E-6A85-4361-9DF6-638C8B7E2782";
paths = (
{
closed = 1;
nodes = (
"172 596 OFFCURVE",
"192 647 OFFCURVE",
"192 699 CURVE SMOOTH",
"192 739 OFFCURVE",
"178 764 OFFCURVE",
"169 781 CURVE",
"153 771 LINE",
"166 748 OFFCURVE",
"174 725 OFFCURVE",
"174 697 CURVE SMOOTH",
"174 644 OFFCURVE",
"149 614 OFFCURVE",
"104 614 CURVE SMOOTH",
"54 614 OFFCURVE",
"45 652 OFFCURVE",
"45 681 CURVE SMOOTH",
"45 707 OFFCURVE",
"55 726 OFFCURVE",
"63 742 CURVE",
"48 749 LINE",
"35 728 OFFCURVE",
"27 703 OFFCURVE",
"27 678 CURVE SMOOTH",
"27 625 OFFCURVE",
"59 596 OFFCURVE",
"106 596 CURVE SMOOTH"
);
},
{
closed = 1;
nodes = (
"119 803 OFFCURVE",
"126 810 OFFCURVE",
"126 818 CURVE SMOOTH",
"126 826 OFFCURVE",
"119 833 OFFCURVE",
"111 833 CURVE SMOOTH",
"103 833 OFFCURVE",
"95 826 OFFCURVE",
"95 818 CURVE SMOOTH",
"95 810 OFFCURVE",
"103 803 OFFCURVE",
"111 803 CURVE SMOOTH"
);
}
);
width = 222;
},
{
anchors = (
{
name = _top;
position = "{128, 458}";
},
{
name = top;
position = "{127, 872}";
}
);
layerId = "08F1692B-9525-48D2-9816-1987B1C44D50";
paths = (
{
closed = 1;
nodes = (
"201 605 OFFCURVE",
"237 644 OFFCURVE",
"237 713 CURVE SMOOTH",
"237 754 OFFCURVE",
"221 785 OFFCURVE",
"212 800 CURVE",
"163 776 LINE",
"177 754 OFFCURVE",
"184 734 OFFCURVE",
"184 709 CURVE SMOOTH",
"184 685 OFFCURVE",
"172 659 OFFCURVE",
"128 659 CURVE SMOOTH",
"97 659 OFFCURVE",
"82 674 OFFCURVE",
"82 699 CURVE SMOOTH",
"82 716 OFFCURVE",
"88 732 OFFCURVE",
"95 746 CURVE",
"45 763 LINE",
"33 742 OFFCURVE",
"27 720 OFFCURVE",
"27 696 CURVE SMOOTH",
"27 630 OFFCURVE",
"73 605 OFFCURVE",
"127 605 CURVE SMOOTH"
);
},
{
closed = 1;
nodes = (
"145 799 OFFCURVE",
"161 814 OFFCURVE",
"161 832 CURVE SMOOTH",
"161 851 OFFCURVE",
"145 866 OFFCURVE",
"128 866 CURVE SMOOTH",
"109 866 OFFCURVE",
"93 851 OFFCURVE",
"93 832 CURVE SMOOTH",
"93 814 OFFCURVE",
"109 799 OFFCURVE",
"128 799 CURVE SMOOTH"
);
}
);
width = 267;
},
{
anchors = (
{
name = _top;
position = "{123, 458}";
},
{
name = top;
position = "{121, 833}";
}
);
guideLines = (
{
position = "{-103, 872}";
}
);
layerId = "A2AC38AA-6CC4-4B2B-B5AB-64A49772F2D3";
paths = (
{
closed = 1;
nodes = (
"188 596 OFFCURVE",
"212 647 OFFCURVE",
"212 699 CURVE SMOOTH",
"212 739 OFFCURVE",
"198 764 OFFCURVE",
"189 781 CURVE",
"173 771 LINE",
"186 748 OFFCURVE",
"194 725 OFFCURVE",
"194 697 CURVE SMOOTH",
"194 644 OFFCURVE",
"165 614 OFFCURVE",
"114 614 CURVE SMOOTH",
"57 614 OFFCURVE",
"45 652 OFFCURVE",
"45 681 CURVE SMOOTH",
"45 707 OFFCURVE",
"55 726 OFFCURVE",
"63 742 CURVE",
"48 749 LINE",
"35 728 OFFCURVE",
"27 703 OFFCURVE",
"27 678 CURVE SMOOTH",
"27 625 OFFCURVE",
"62 596 OFFCURVE",
"116 596 CURVE SMOOTH"
);
},
{
closed = 1;
nodes = (
"129 803 OFFCURVE",
"136 810 OFFCURVE",
"136 818 CURVE SMOOTH",
"136 826 OFFCURVE",
"129 833 OFFCURVE",
"121 833 CURVE SMOOTH",
"113 833 OFFCURVE",
"105 826 OFFCURVE",
"105 818 CURVE SMOOTH",
"105 810 OFFCURVE",
"113 803 OFFCURVE",
"121 803 CURVE SMOOTH"
);
}
);
width = 242;
},
{
anchors = (
{
name = _top;
position = "{136, 458}";
},
{
name = top;
position = "{134, 863}";
}
);
guideLines = (
{
position = "{-90, 872}";
}
);
layerId = "6D0603BE-7277-4DA4-8C59-7934AF28E45B";
paths = (
{
closed = 1;
nodes = (
"211 590 OFFCURVE",
"253 633 OFFCURVE",
"253 705 CURVE SMOOTH",
"253 745 OFFCURVE",
"234 783 OFFCURVE",
"222 800 CURVE",
"180 771 LINE",
"194 747 OFFCURVE",
"201 725 OFFCURVE",
"201 704 CURVE SMOOTH",
"201 679 OFFCURVE",
"190 642 OFFCURVE",
"134 642 CURVE SMOOTH",
"97 642 OFFCURVE",
"80 659 OFFCURVE",
"80 686 CURVE SMOOTH",
"80 705 OFFCURVE",
"87 723 OFFCURVE",
"94 738 CURVE",
"47 753 LINE",
"34 730 OFFCURVE",
"27 705 OFFCURVE",
"27 681 CURVE SMOOTH",
"27 618 OFFCURVE",
"70 590 OFFCURVE",
"133 590 CURVE SMOOTH"
);
},
{
closed = 1;
nodes = (
"151 796 OFFCURVE",
"166 812 OFFCURVE",
"166 829 CURVE SMOOTH",
"166 847 OFFCURVE",
"151 863 OFFCURVE",
"134 863 CURVE SMOOTH",
"115 863 OFFCURVE",
"101 847 OFFCURVE",
"101 829 CURVE SMOOTH",
"101 812 OFFCURVE",
"115 796 OFFCURVE",
"134 796 CURVE SMOOTH"
);
}
);
width = 283;
},
{
anchors = (
{
name = _top;
position = "{142, 458}";
},
{
name = top;
position = "{140, 881}";
}
);
guideLines = (
{
position = "{-90, 872}";
}
);
layerId = "E1555194-BAFD-4DCC-A026-E2F9BA1917F2";
paths = (
{
closed = 1;
nodes = (
"223 590 OFFCURVE",
"265 633 OFFCURVE",
"265 711 CURVE SMOOTH",
"265 758 OFFCURVE",
"246 795 OFFCURVE",
"235 811 CURVE",
"179 780 LINE",
"193 756 OFFCURVE",
"201 734 OFFCURVE",
"201 706 CURVE SMOOTH",
"201 682 OFFCURVE",
"189 654 OFFCURVE",
"141 654 CURVE SMOOTH",
"109 654 OFFCURVE",
"92 669 OFFCURVE",
"92 695 CURVE SMOOTH",
"92 714 OFFCURVE",
"99 732 OFFCURVE",
"106 747 CURVE",
"48 769 LINE",
"34 745 OFFCURVE",
"27 718 OFFCURVE",
"27 691 CURVE SMOOTH",
"27 618 OFFCURVE",
"79 590 OFFCURVE",
"140 590 CURVE SMOOTH"
);
},
{
closed = 1;
nodes = (
"161 803 OFFCURVE",
"179 821 OFFCURVE",
"179 841 CURVE SMOOTH",
"179 863 OFFCURVE",
"161 881 OFFCURVE",
"140 881 CURVE SMOOTH",
"119 881 OFFCURVE",
"100 863 OFFCURVE",
"100 841 CURVE SMOOTH",
"100 821 OFFCURVE",
"119 803 OFFCURVE",
"140 803 CURVE SMOOTH"
);
}
);
width = 295;
},
{
anchors = (
{
name = _top;
position = "{140, 458}";
},
{
name = top;
position = "{138, 888}";
}
);
layerId = "8594390A-478C-48BC-BAB2-0B8797A53DFB";
paths = (
{
closed = 1;
nodes = (
"221 596 OFFCURVE",
"261 637 OFFCURVE",
"261 715 CURVE SMOOTH",
"261 762 OFFCURVE",
"242 798 OFFCURVE",
"232 813 CURVE",
"178 785 LINE",
"193 761 OFFCURVE",
"201 739 OFFCURVE",
"201 708 CURVE SMOOTH",
"201 681 OFFCURVE",
"187 656 OFFCURVE",
"140 656 CURVE SMOOTH",
"107 656 OFFCURVE",
"88 671 OFFCURVE",
"88 700 CURVE SMOOTH",
"88 719 OFFCURVE",
"95 737 OFFCURVE",
"102 752 CURVE",
"47 773 LINE",
"34 750 OFFCURVE",
"27 725 OFFCURVE",
"27 698 CURVE SMOOTH",
"27 622 OFFCURVE",
"81 596 OFFCURVE",
"139 596 CURVE SMOOTH"
);
},
{
closed = 1;
nodes = (
"158 811 OFFCURVE",
"176 829 OFFCURVE",
"176 849 CURVE SMOOTH",
"176 870 OFFCURVE",
"158 888 OFFCURVE",
"138 888 CURVE SMOOTH",
"117 888 OFFCURVE",
"99 870 OFFCURVE",
"99 849 CURVE SMOOTH",
"99 829 OFFCURVE",
"117 811 OFFCURVE",
"138 811 CURVE SMOOTH"
);
}
);
width = 291;
}
);
unicode = 06E8;
}
{
glyphname = "qafLamAlefMaksuraabove-ar";
layers = (
{
anchors = (
{
name = bottom;
position = "{163, 0}";
},
{
name = top;
position = "{147, 1360}";
}
);
guideLines = (
{
position = "{472, 624}";
}
);
layerId = "9B455188-434F-489F-9A18-4C18DBE88840";
paths = (
{
closed = 1;
nodes = (
"137 1086 OFFCURVE",
"166 1089 OFFCURVE",
"179 1092 CURVE",
"180 1131 LINE",
"168 1129 OFFCURVE",
"140 1125 OFFCURVE",
"116 1125 CURVE SMOOTH",
"78 1125 OFFCURVE",
"69 1132 OFFCURVE",
"69 1138 CURVE SMOOTH",
"69 1147 OFFCURVE",
"87 1146 OFFCURVE",
"109 1150 CURVE SMOOTH",
"129 1152 OFFCURVE",
"141 1157 OFFCURVE",
"146 1173 CURVE",
"143 1174 LINE",
"145 1157 OFFCURVE",
"161 1150 OFFCURVE",
"182 1150 CURVE SMOOTH",
"255 1150 OFFCURVE",
"285 1163 OFFCURVE",
"285 1231 CURVE SMOOTH",
"285 1273 OFFCURVE",
"268 1309 OFFCURVE",
"235 1309 CURVE SMOOTH",
"204 1309 OFFCURVE",
"185 1276 OFFCURVE",
"185 1247 CURVE SMOOTH",
"185 1217 OFFCURVE",
"206 1206 OFFCURVE",
"226 1206 CURVE SMOOTH",
"235 1206 OFFCURVE",
"246 1208 OFFCURVE",
"252 1213 CURVE",
"251 1244 LINE",
"247 1241 OFFCURVE",
"240 1240 OFFCURVE",
"234 1240 CURVE SMOOTH",
"224 1240 OFFCURVE",
"221 1246 OFFCURVE",
"221 1251 CURVE SMOOTH",
"221 1263 OFFCURVE",
"228 1271 OFFCURVE",
"235 1271 CURVE SMOOTH",
"244 1271 OFFCURVE",
"247 1256 OFFCURVE",
"247 1239 CURVE SMOOTH",
"247 1191 OFFCURVE",
"236 1194 OFFCURVE",
"183 1194 CURVE SMOOTH",
"177 1194 OFFCURVE",
"166 1196 OFFCURVE",
"165 1214 CURVE SMOOTH",
"160 1334 LINE",
"119 1334 LINE",
"123 1212 LINE SMOOTH",
"124 1194 OFFCURVE",
"111 1192 OFFCURVE",
"98 1191 CURVE SMOOTH",
"69 1187 OFFCURVE",
"20 1181 OFFCURVE",
"20 1138 CURVE SMOOTH",
"20 1105 OFFCURVE",
"50 1086 OFFCURVE",
"110 1086 CURVE SMOOTH"
);
},
{
closed = 1;
nodes = (
"222 1320 OFFCURVE",
"230 1329 OFFCURVE",
"230 1339 CURVE SMOOTH",
"230 1349 OFFCURVE",
"222 1358 OFFCURVE",
"212 1358 CURVE SMOOTH",
"202 1358 OFFCURVE",
"194 1349 OFFCURVE",
"194 1339 CURVE SMOOTH",
"194 1329 OFFCURVE",
"202 1320 OFFCURVE",
"212 1320 CURVE SMOOTH"
);
},
{
closed = 1;
nodes = (
"268 1320 OFFCURVE",
"277 1329 OFFCURVE",
"277 1339 CURVE SMOOTH",
"277 1351 OFFCURVE",
"268 1358 OFFCURVE",
"258 1358 CURVE SMOOTH",
"248 1358 OFFCURVE",
"240 1349 OFFCURVE",
"240 1339 CURVE SMOOTH",
"240 1329 OFFCURVE",
"248 1320 OFFCURVE",
"258 1320 CURVE SMOOTH"
);
}
);
width = 309;
},
{
anchors = (
{
name = bottom;
position = "{179, 0}";
},
{
name = top;
position = "{163, 1360}";
}
);
layerId = "A7E21968-E455-4749-BB19-379F5EDC3B9B";
paths = (
{
closed = 1;
nodes = (
"140 1046 OFFCURVE",
"169 1049 OFFCURVE",
"181 1052 CURVE",
"183 1100 LINE",
"171 1097 OFFCURVE",
"144 1095 OFFCURVE",
"117 1095 CURVE SMOOTH",
"88 1095 OFFCURVE",
"74 1100 OFFCURVE",
"74 1107 CURVE SMOOTH",
"74 1117 OFFCURVE",
"86 1118 OFFCURVE",
"108 1121 CURVE SMOOTH",
"126 1123 OFFCURVE",
"145 1132 OFFCURVE",
"150 1147 CURVE",
"146 1147 LINE",
"148 1131 OFFCURVE",
"170 1121 OFFCURVE",
"204 1121 CURVE SMOOTH",
"290 1121 OFFCURVE",
"318 1134 OFFCURVE",
"318 1211 CURVE SMOOTH",
"318 1250 OFFCURVE",
"304 1301 OFFCURVE",
"256 1301 CURVE SMOOTH",
"211 1301 OFFCURVE",
"194 1255 OFFCURVE",
"194 1228 CURVE SMOOTH",
"194 1200 OFFCURVE",
"212 1183 OFFCURVE",
"238 1183 CURVE SMOOTH",
"256 1183 OFFCURVE",
"266 1185 OFFCURVE",
"274 1188 CURVE",
"273 1228 LINE",
"268 1226 OFFCURVE",
"261 1225 OFFCURVE",
"254 1225 CURVE SMOOTH",
"244 1225 OFFCURVE",
"239 1230 OFFCURVE",
"239 1237 CURVE SMOOTH",
"239 1249 OFFCURVE",
"247 1258 OFFCURVE",
"255 1258 CURVE SMOOTH",
"266 1258 OFFCURVE",
"272 1241 OFFCURVE",
"272 1218 CURVE SMOOTH",
"272 1170 OFFCURVE",
"263 1172 OFFCURVE",
"214 1172 CURVE SMOOTH",
"186 1172 OFFCURVE",
"173 1176 OFFCURVE",
"172 1193 CURVE SMOOTH",
"167 1313 LINE",
"118 1313 LINE",
"123 1193 LINE SMOOTH",
"124 1178 OFFCURVE",
"111 1174 OFFCURVE",
"84 1170 CURVE SMOOTH",
"57 1167 OFFCURVE",
"20 1155 OFFCURVE",
"20 1107 CURVE SMOOTH",
"20 1068 OFFCURVE",
"51 1046 OFFCURVE",
"112 1046 CURVE SMOOTH"
);
},
{
closed = 1;
nodes = (
"243 1314 OFFCURVE",
"253 1324 OFFCURVE",
"253 1336 CURVE SMOOTH",
"253 1347 OFFCURVE",
"243 1357 OFFCURVE",
"231 1357 CURVE SMOOTH",
"219 1357 OFFCURVE",
"208 1347 OFFCURVE",
"208 1336 CURVE SMOOTH",
"208 1324 OFFCURVE",
"219 1314 OFFCURVE",
"231 1314 CURVE SMOOTH"
);
},
{
closed = 1;
nodes = (
"294 1314 OFFCURVE",
"304 1324 OFFCURVE",
"304 1336 CURVE SMOOTH",
"304 1347 OFFCURVE",
"294 1357 OFFCURVE",
"282 1357 CURVE SMOOTH",
"270 1357 OFFCURVE",
"260 1347 OFFCURVE",
"260 1336 CURVE SMOOTH",
"260 1324 OFFCURVE",
"270 1314 OFFCURVE",
"282 1314 CURVE SMOOTH"
);
}
);
width = 342;
},
{
anchors = (
{
name = bottom;
position = "{151, 0}";
},
{
name = top;
position = "{135, 1360}";
}
);
guideLines = (
{
position = "{459, 629}";
}
);
layerId = "D3B47D5E-6A85-4361-9DF6-638C8B7E2782";
paths = (
{
closed = 1;
nodes = (
"132 1101 OFFCURVE",
"164 1105 OFFCURVE",
"177 1108 CURVE",
"177 1126 LINE",
"164 1123 OFFCURVE",
"136 1119 OFFCURVE",
"104 1119 CURVE SMOOTH",
"52 1119 OFFCURVE",
"36 1131 OFFCURVE",
"36 1143 CURVE SMOOTH",
"36 1163 OFFCURVE",
"74 1162 OFFCURVE",
"97 1165 CURVE SMOOTH",
"117 1167 OFFCURVE",
"131 1174 OFFCURVE",
"136 1190 CURVE",
"132 1191 LINE",
"136 1166 OFFCURVE",
"160 1164 OFFCURVE",
"181 1164 CURVE SMOOTH",
"239 1164 OFFCURVE",
"262 1185 OFFCURVE",
"262 1226 CURVE SMOOTH",
"262 1267 OFFCURVE",
"240 1292 OFFCURVE",
"219 1292 CURVE SMOOTH",
"198 1292 OFFCURVE",
"179 1266 OFFCURVE",
"179 1237 CURVE SMOOTH",
"179 1210 OFFCURVE",
"196 1204 OFFCURVE",
"217 1204 CURVE SMOOTH",
"229 1204 OFFCURVE",
"239 1206 OFFCURVE",
"247 1210 CURVE",
"246 1225 LINE",
"241 1222 OFFCURVE",
"226 1221 OFFCURVE",
"219 1221 CURVE SMOOTH",
"202 1221 OFFCURVE",
"197 1227 OFFCURVE",
"197 1240 CURVE SMOOTH",
"197 1256 OFFCURVE",
"205 1273 OFFCURVE",
"218 1273 CURVE SMOOTH",
"233 1273 OFFCURVE",
"244 1251 OFFCURVE",
"244 1226 CURVE SMOOTH",
"244 1180 OFFCURVE",
"208 1182 OFFCURVE",
"175 1182 CURVE SMOOTH",
"149 1182 OFFCURVE",
"142 1189 OFFCURVE",
"141 1208 CURVE SMOOTH",
"136 1337 LINE",
"118 1337 LINE",
"123 1205 LINE SMOOTH",
"124 1184 OFFCURVE",
"107 1184 OFFCURVE",
"93 1182 CURVE SMOOTH",
"59 1178 OFFCURVE",
"20 1177 OFFCURVE",
"20 1142 CURVE SMOOTH",
"20 1120 OFFCURVE",
"44 1101 OFFCURVE",
"101 1101 CURVE SMOOTH"
);
},
{
closed = 1;
nodes = (
"212 1321 OFFCURVE",
"218 1328 OFFCURVE",
"218 1335 CURVE SMOOTH",
"218 1342 OFFCURVE",
"212 1349 OFFCURVE",
"204 1349 CURVE SMOOTH",
"197 1349 OFFCURVE",
"190 1342 OFFCURVE",
"190 1335 CURVE SMOOTH",
"190 1328 OFFCURVE",
"197 1321 OFFCURVE",
"204 1321 CURVE SMOOTH"
);
},
{
closed = 1;
nodes = (
"246 1321 OFFCURVE",
"253 1328 OFFCURVE",
"253 1335 CURVE SMOOTH",
"253 1342 OFFCURVE",
"246 1349 OFFCURVE",
"239 1349 CURVE SMOOTH",
"231 1349 OFFCURVE",
"225 1342 OFFCURVE",
"225 1335 CURVE SMOOTH",
"225 1328 OFFCURVE",
"231 1321 OFFCURVE",
"239 1321 CURVE SMOOTH"
);
}
);
width = 286;
},
{
anchors = (
{
name = bottom;
position = "{170, 0}";
},
{
name = top;
position = "{154, 1360}";
}
);
layerId = "08F1692B-9525-48D2-9816-1987B1C44D50";
paths = (
{
closed = 1;
nodes = (
"140 1073 OFFCURVE",
"169 1077 OFFCURVE",
"181 1079 CURVE",
"183 1126 LINE",
"171 1124 OFFCURVE",
"144 1121 OFFCURVE",
"120 1121 CURVE SMOOTH",
"82 1121 OFFCURVE",
"72 1127 OFFCURVE",
"72 1134 CURVE SMOOTH",
"72 1143 OFFCURVE",
"90 1142 OFFCURVE",
"112 1144 CURVE SMOOTH",
"131 1147 OFFCURVE",
"145 1152 OFFCURVE",
"150 1168 CURVE",
"147 1174 LINE",
"149 1154 OFFCURVE",
"165 1144 OFFCURVE",
"186 1144 CURVE SMOOTH",
"266 1144 OFFCURVE",
"299 1160 OFFCURVE",
"299 1232 CURVE SMOOTH",
"299 1275 OFFCURVE",
"281 1311 OFFCURVE",
"246 1311 CURVE SMOOTH",
"213 1311 OFFCURVE",
"194 1276 OFFCURVE",
"194 1247 CURVE SMOOTH",
"194 1216 OFFCURVE",
"216 1207 OFFCURVE",
"237 1207 CURVE SMOOTH",
"246 1207 OFFCURVE",
"256 1209 OFFCURVE",
"263 1213 CURVE",
"262 1243 LINE",
"258 1241 OFFCURVE",
"250 1240 OFFCURVE",
"244 1240 CURVE SMOOTH",
"236 1240 OFFCURVE",
"233 1245 OFFCURVE",
"233 1252 CURVE SMOOTH",
"233 1261 OFFCURVE",
"240 1269 OFFCURVE",
"245 1269 CURVE SMOOTH",
"254 1269 OFFCURVE",
"258 1254 OFFCURVE",
"258 1239 CURVE SMOOTH",
"258 1191 OFFCURVE",
"245 1193 OFFCURVE",
"186 1193 CURVE",
"181 1193 OFFCURVE",
"174 1197 OFFCURVE",
"173 1214 CURVE SMOOTH",
"168 1333 LINE",
"117 1333 LINE",
"122 1212 LINE SMOOTH",
"123 1194 OFFCURVE",
"110 1192 OFFCURVE",
"96 1191 CURVE SMOOTH",
"67 1188 OFFCURVE",
"20 1182 OFFCURVE",
"20 1134 CURVE SMOOTH",
"20 1095 OFFCURVE",
"52 1073 OFFCURVE",
"114 1073 CURVE SMOOTH"
);
},
{
closed = 1;
nodes = (
"231 1320 OFFCURVE",
"241 1332 OFFCURVE",
"241 1343 CURVE SMOOTH",
"241 1355 OFFCURVE",
"231 1366 OFFCURVE",
"219 1366 CURVE SMOOTH",
"206 1366 OFFCURVE",
"196 1355 OFFCURVE",
"196 1343 CURVE SMOOTH",
"196 1332 OFFCURVE",
"206 1320 OFFCURVE",
"219 1320 CURVE SMOOTH"
);
},
{
closed = 1;
nodes = (
"286 1320 OFFCURVE",
"296 1332 OFFCURVE",
"296 1343 CURVE SMOOTH",
"296 1358 OFFCURVE",
"286 1366 OFFCURVE",
"275 1366 CURVE SMOOTH",
"262 1366 OFFCURVE",
"252 1355 OFFCURVE",
"252 1343 CURVE SMOOTH",
"252 1332 OFFCURVE",
"262 1320 OFFCURVE",
"275 1320 CURVE SMOOTH"
);
}
);
width = 323;
},
{
anchors = (
{
name = bottom;
position = "{161, 0}";
},
{
name = top;
position = "{145, 1360}";
}
);
guideLines = (
{
position = "{469, 629}";
}
);
layerId = "A2AC38AA-6CC4-4B2B-B5AB-64A49772F2D3";
paths = (
{
closed = 1;
nodes = (
"142 1110 OFFCURVE",
"174 1114 OFFCURVE",
"187 1117 CURVE",
"187 1135 LINE",
"174 1132 OFFCURVE",
"146 1128 OFFCURVE",
"114 1128 CURVE SMOOTH",
"52 1128 OFFCURVE",
"36 1140 OFFCURVE",
"36 1152 CURVE SMOOTH",
"36 1172 OFFCURVE",
"84 1171 OFFCURVE",
"107 1174 CURVE SMOOTH",
"127 1176 OFFCURVE",
"141 1183 OFFCURVE",
"146 1199 CURVE",
"142 1200 LINE",
"146 1175 OFFCURVE",
"170 1173 OFFCURVE",
"191 1173 CURVE SMOOTH",
"259 1173 OFFCURVE",
"282 1194 OFFCURVE",
"282 1235 CURVE SMOOTH",
"282 1276 OFFCURVE",
"260 1301 OFFCURVE",
"239 1301 CURVE SMOOTH",
"218 1301 OFFCURVE",
"199 1275 OFFCURVE",
"199 1246 CURVE SMOOTH",
"199 1219 OFFCURVE",
"216 1213 OFFCURVE",
"237 1213 CURVE SMOOTH",
"249 1213 OFFCURVE",
"259 1215 OFFCURVE",
"267 1219 CURVE",
"266 1234 LINE",
"261 1231 OFFCURVE",
"246 1230 OFFCURVE",
"239 1230 CURVE SMOOTH",
"222 1230 OFFCURVE",
"217 1236 OFFCURVE",
"217 1249 CURVE SMOOTH",
"217 1265 OFFCURVE",
"225 1282 OFFCURVE",
"238 1282 CURVE SMOOTH",
"253 1282 OFFCURVE",
"264 1260 OFFCURVE",
"264 1235 CURVE SMOOTH",
"264 1189 OFFCURVE",
"228 1191 OFFCURVE",
"185 1191 CURVE SMOOTH",
"159 1191 OFFCURVE",
"152 1198 OFFCURVE",
"151 1217 CURVE SMOOTH",
"146 1346 LINE",
"128 1346 LINE",
"133 1214 LINE SMOOTH",
"134 1193 OFFCURVE",
"117 1193 OFFCURVE",
"103 1191 CURVE SMOOTH",
"69 1187 OFFCURVE",
"20 1186 OFFCURVE",
"20 1151 CURVE SMOOTH",
"20 1129 OFFCURVE",
"44 1110 OFFCURVE",
"111 1110 CURVE SMOOTH"
);
},
{
closed = 1;
nodes = (
"232 1330 OFFCURVE",
"238 1337 OFFCURVE",
"238 1344 CURVE SMOOTH",
"238 1351 OFFCURVE",
"232 1358 OFFCURVE",
"224 1358 CURVE SMOOTH",
"217 1358 OFFCURVE",
"210 1351 OFFCURVE",
"210 1344 CURVE SMOOTH",
"210 1337 OFFCURVE",
"217 1330 OFFCURVE",
"224 1330 CURVE SMOOTH"
);
},
{
closed = 1;
nodes = (
"266 1330 OFFCURVE",
"273 1337 OFFCURVE",
"273 1344 CURVE SMOOTH",
"273 1351 OFFCURVE",
"266 1358 OFFCURVE",
"259 1358 CURVE SMOOTH",
"251 1358 OFFCURVE",
"245 1351 OFFCURVE",
"245 1344 CURVE SMOOTH",
"245 1337 OFFCURVE",
"251 1330 OFFCURVE",
"259 1330 CURVE SMOOTH"
);
}
);
width = 306;
},
{
anchors = (
{
name = bottom;
position = "{175, 0}";
},
{
name = top;
position = "{159, 1360}";
}
);
guideLines = (
{
position = "{475, 629}";
}
);
layerId = "6D0603BE-7277-4DA4-8C59-7934AF28E45B";
paths = (
{
closed = 1;
nodes = (
"148 1058 OFFCURVE",
"180 1062 OFFCURVE",
"193 1065 CURVE",
"195 1108 LINE",
"182 1105 OFFCURVE",
"152 1102 OFFCURVE",
"125 1102 CURVE SMOOTH",
"83 1102 OFFCURVE",
"72 1109 OFFCURVE",
"72 1116 CURVE SMOOTH",
"72 1127 OFFCURVE",
"92 1125 OFFCURVE",
"116 1128 CURVE SMOOTH",
"138 1131 OFFCURVE",
"153 1137 OFFCURVE",
"159 1154 CURVE",
"155 1155 LINE",
"157 1137 OFFCURVE",
"175 1128 OFFCURVE",
"198 1128 CURVE SMOOTH",
"277 1128 OFFCURVE",
"310 1144 OFFCURVE",
"310 1219 CURVE SMOOTH",
"310 1265 OFFCURVE",
"292 1304 OFFCURVE",
"256 1304 CURVE SMOOTH",
"222 1304 OFFCURVE",
"201 1267 OFFCURVE",
"201 1236 CURVE SMOOTH",
"201 1202 OFFCURVE",
"224 1192 OFFCURVE",
"246 1192 CURVE SMOOTH",
"256 1192 OFFCURVE",
"267 1194 OFFCURVE",
"275 1198 CURVE",
"274 1232 LINE",
"269 1229 OFFCURVE",
"261 1228 OFFCURVE",
"254 1228 CURVE SMOOTH",
"244 1228 OFFCURVE",
"240 1234 OFFCURVE",
"240 1241 CURVE SMOOTH",
"240 1253 OFFCURVE",
"248 1262 OFFCURVE",
"255 1262 CURVE SMOOTH",
"265 1262 OFFCURVE",
"269 1245 OFFCURVE",
"269 1227 CURVE SMOOTH",
"269 1174 OFFCURVE",
"257 1176 OFFCURVE",
"199 1176 CURVE SMOOTH",
"191 1176 OFFCURVE",
"180 1179 OFFCURVE",
"179 1199 CURVE SMOOTH",
"174 1331 LINE",
"128 1331 LINE",
"133 1197 LINE SMOOTH",
"134 1176 OFFCURVE",
"119 1175 OFFCURVE",
"105 1174 CURVE SMOOTH",
"72 1171 OFFCURVE",
"20 1163 OFFCURVE",
"20 1116 CURVE SMOOTH",
"20 1079 OFFCURVE",
"53 1058 OFFCURVE",
"118 1058 CURVE SMOOTH"
);
},
{
closed = 1;
nodes = (
"241 1316 OFFCURVE",
"251 1326 OFFCURVE",
"251 1337 CURVE SMOOTH",
"251 1348 OFFCURVE",
"241 1358 OFFCURVE",
"230 1358 CURVE SMOOTH",
"219 1358 OFFCURVE",
"210 1348 OFFCURVE",
"210 1337 CURVE SMOOTH",
"210 1326 OFFCURVE",
"219 1316 OFFCURVE",
"230 1316 CURVE SMOOTH"
);
},
{
closed = 1;
nodes = (
"292 1316 OFFCURVE",
"301 1326 OFFCURVE",
"301 1337 CURVE SMOOTH",
"301 1350 OFFCURVE",
"292 1358 OFFCURVE",
"281 1358 CURVE SMOOTH",
"270 1358 OFFCURVE",
"261 1348 OFFCURVE",
"261 1337 CURVE SMOOTH",
"261 1326 OFFCURVE",
"270 1316 OFFCURVE",
"281 1316 CURVE SMOOTH"
);
}
);
width = 334;
},
{
anchors = (
{
name = bottom;
position = "{185, 0}";
},
{
name = top;
position = "{169, 1360}";
}
);
guideLines = (
{
position = "{474, 629}";
}
);
layerId = "E1555194-BAFD-4DCC-A026-E2F9BA1917F2";
paths = (
{
closed = 1;
nodes = (
"153 1031 OFFCURVE",
"186 1035 OFFCURVE",
"199 1038 CURVE",
"201 1090 LINE",
"188 1087 OFFCURVE",
"158 1084 OFFCURVE",
"131 1084 CURVE SMOOTH",
"89 1084 OFFCURVE",
"78 1091 OFFCURVE",
"78 1098 CURVE SMOOTH",
"78 1109 OFFCURVE",
"98 1107 OFFCURVE",
"122 1110 CURVE SMOOTH",
"144 1113 OFFCURVE",
"159 1119 OFFCURVE",
"165 1136 CURVE",
"161 1143 LINE",
"163 1121 OFFCURVE",
"181 1110 OFFCURVE",
"205 1110 CURVE SMOOTH",
"293 1110 OFFCURVE",
"330 1127 OFFCURVE",
"330 1207 CURVE SMOOTH",
"330 1255 OFFCURVE",
"310 1295 OFFCURVE",
"271 1295 CURVE SMOOTH",
"235 1295 OFFCURVE",
"213 1256 OFFCURVE",
"213 1224 CURVE SMOOTH",
"213 1190 OFFCURVE",
"238 1180 OFFCURVE",
"261 1180 CURVE SMOOTH",
"271 1180 OFFCURVE",
"282 1182 OFFCURVE",
"290 1186 CURVE",
"289 1220 LINE",
"284 1217 OFFCURVE",
"276 1216 OFFCURVE",
"269 1216 CURVE SMOOTH",
"260 1216 OFFCURVE",
"257 1222 OFFCURVE",
"257 1229 CURVE SMOOTH",
"257 1240 OFFCURVE",
"264 1248 OFFCURVE",
"270 1248 CURVE SMOOTH",
"280 1248 OFFCURVE",
"284 1232 OFFCURVE",
"284 1215 CURVE SMOOTH",
"284 1162 OFFCURVE",
"270 1164 OFFCURVE",
"205 1164 CURVE",
"199 1164 OFFCURVE",
"191 1167 OFFCURVE",
"190 1187 CURVE SMOOTH",
"185 1319 LINE",
"128 1319 LINE",
"133 1185 LINE SMOOTH",
"134 1164 OFFCURVE",
"120 1163 OFFCURVE",
"105 1162 CURVE SMOOTH",
"73 1159 OFFCURVE",
"20 1152 OFFCURVE",
"20 1099 CURVE SMOOTH",
"20 1055 OFFCURVE",
"56 1031 OFFCURVE",
"125 1031 CURVE SMOOTH"
);
},
{
closed = 1;
nodes = (
"254 1305 OFFCURVE",
"266 1318 OFFCURVE",
"266 1331 CURVE SMOOTH",
"266 1344 OFFCURVE",
"254 1357 OFFCURVE",
"241 1357 CURVE SMOOTH",
"227 1357 OFFCURVE",
"216 1344 OFFCURVE",
"216 1331 CURVE SMOOTH",
"216 1318 OFFCURVE",
"227 1305 OFFCURVE",
"241 1305 CURVE SMOOTH"
);
},
{
closed = 1;
nodes = (
"316 1305 OFFCURVE",
"327 1318 OFFCURVE",
"327 1331 CURVE SMOOTH",
"327 1347 OFFCURVE",
"316 1357 OFFCURVE",
"303 1357 CURVE SMOOTH",
"289 1357 OFFCURVE",
"278 1344 OFFCURVE",
"278 1331 CURVE SMOOTH",
"278 1318 OFFCURVE",
"289 1305 OFFCURVE",
"303 1305 CURVE SMOOTH"
);
}
);
width = 354;
},
{
anchors = (
{
name = bottom;
position = "{194, 0}";
},
{
name = top;
position = "{178, 1360}";
}
);
layerId = "8594390A-478C-48BC-BAB2-0B8797A53DFB";
paths = (
{
closed = 1;
nodes = (
"152 1015 OFFCURVE",
"184 1019 OFFCURVE",
"197 1022 CURVE",
"199 1075 LINE",
"186 1072 OFFCURVE",
"157 1069 OFFCURVE",
"127 1069 CURVE SMOOTH",
"95 1069 OFFCURVE",
"80 1075 OFFCURVE",
"80 1083 CURVE SMOOTH",
"80 1094 OFFCURVE",
"93 1095 OFFCURVE",
"117 1098 CURVE SMOOTH",
"137 1100 OFFCURVE",
"158 1110 OFFCURVE",
"163 1126 CURVE",
"159 1127 LINE",
"161 1109 OFFCURVE",
"185 1098 OFFCURVE",
"222 1098 CURVE SMOOTH",
"317 1098 OFFCURVE",
"348 1112 OFFCURVE",
"348 1197 CURVE SMOOTH",
"348 1240 OFFCURVE",
"332 1296 OFFCURVE",
"280 1296 CURVE SMOOTH",
"230 1296 OFFCURVE",
"211 1245 OFFCURVE",
"211 1216 CURVE SMOOTH",
"211 1185 OFFCURVE",
"231 1166 OFFCURVE",
"260 1166 CURVE SMOOTH",
"280 1166 OFFCURVE",
"291 1168 OFFCURVE",
"299 1172 CURVE",
"298 1216 LINE",
"293 1213 OFFCURVE",
"285 1212 OFFCURVE",
"278 1212 CURVE SMOOTH",
"266 1212 OFFCURVE",
"261 1218 OFFCURVE",
"261 1225 CURVE SMOOTH",
"261 1239 OFFCURVE",
"270 1249 OFFCURVE",
"279 1249 CURVE SMOOTH",
"291 1249 OFFCURVE",
"297 1230 OFFCURVE",
"297 1205 CURVE SMOOTH",
"297 1152 OFFCURVE",
"287 1154 OFFCURVE",
"233 1154 CURVE SMOOTH",
"203 1154 OFFCURVE",
"188 1157 OFFCURVE",
"187 1177 CURVE SMOOTH",
"182 1309 LINE",
"128 1309 LINE",
"133 1177 LINE SMOOTH",
"134 1160 OFFCURVE",
"120 1156 OFFCURVE",
"91 1152 CURVE SMOOTH",
"61 1148 OFFCURVE",
"20 1135 OFFCURVE",
"20 1083 CURVE SMOOTH",
"20 1040 OFFCURVE",
"54 1015 OFFCURVE",
"121 1015 CURVE SMOOTH"
);
},
{
closed = 1;
nodes = (
"265 1310 OFFCURVE",
"276 1321 OFFCURVE",
"276 1334 CURVE SMOOTH",
"276 1347 OFFCURVE",
"265 1358 OFFCURVE",
"252 1358 CURVE SMOOTH",
"239 1358 OFFCURVE",
"227 1347 OFFCURVE",
"227 1334 CURVE SMOOTH",
"227 1321 OFFCURVE",
"239 1310 OFFCURVE",
"252 1310 CURVE SMOOTH"
);
},
{
closed = 1;
nodes = (
"321 1310 OFFCURVE",
"333 1321 OFFCURVE",
"333 1334 CURVE SMOOTH",
"333 1347 OFFCURVE",
"321 1358 OFFCURVE",
"308 1358 CURVE SMOOTH",
"295 1358 OFFCURVE",
"284 1347 OFFCURVE",
"284 1334 CURVE SMOOTH",
"284 1321 OFFCURVE",
"295 1310 OFFCURVE",
"308 1310 CURVE SMOOTH"
);
}
);
width = 372;
}
);
unicode = 06D7;
}
{
glyphname = "rhombusStopabove-ar";
layers = (
{
anchors = (
{
name = _top;
position = "{118, 458}";
},
{
name = top;
position = "{118, 799}";
}
);
layerId = "9B455188-434F-489F-9A18-4C18DBE88840";
paths = (
{
closed = 1;
nodes = (
"217 704 LINE",
"118 802 LINE",
"17 702 LINE",
"116 605 LINE"
);
},
{
closed = 1;
nodes = (
"74 701 LINE",
"118 746 LINE",
"160 703 LINE",
"116 659 LINE"
);
}
);
width = 235;
},
{
anchors = (
{
name = _top;
position = "{156, 458}";
},
{
name = top;
position = "{157, 901}";
}
);
layerId = "A7E21968-E455-4749-BB19-379F5EDC3B9B";
paths = (
{
closed = 1;
nodes = (
"296 750 LINE",
"157 887 LINE",
"17 747 LINE",
"154 612 LINE"
);
},
{
closed = 1;
nodes = (
"120 746 LINE",
"157 785 LINE",
"192 748 LINE",
"155 711 LINE"
);
}
);
width = 314;
},
{
anchors = (
{
name = _top;
position = "{94, 458}";
},
{
name = top;
position = "{92, 759}";
}
);
layerId = "D3B47D5E-6A85-4361-9DF6-638C8B7E2782";
paths = (
{
closed = 1;
nodes = (
"168 685 LINE",
"92 760 LINE",
"17 683 LINE",
"92 610 LINE"
);
},
{
closed = 1;
nodes = (
"42 684 LINE",
"93 736 LINE",
"144 686 LINE",
"92 634 LINE"
);
}
);
width = 186;
},
{
anchors = (
{
name = _top;
position = "{136, 458}";
},
{
name = top;
position = "{140, 853}";
}
);
layerId = "08F1692B-9525-48D2-9816-1987B1C44D50";
paths = (
{
closed = 1;
nodes = (
"262 732 LINE",
"140 853 LINE",
"17 729 LINE",
"137 610 LINE"
);
},
{
closed = 1;
nodes = (
"100 728 LINE",
"140 769 LINE",
"178 730 LINE",
"138 690 LINE"
);
}
);
width = 280;
},
{
anchors = (
{
name = _top;
position = "{102, 458}";
},
{
name = top;
position = "{100, 759}";
}
);
layerId = "A2AC38AA-6CC4-4B2B-B5AB-64A49772F2D3";
paths = (
{
closed = 1;
nodes = (
"184 676 LINE",
"100 759 LINE",
"17 674 LINE",
"100 593 LINE"
);
},
{
closed = 1;
nodes = (
"44 675 LINE",
"101 733 LINE",
"158 677 LINE",
"100 619 LINE"
);
}
);
width = 202;
},
{
anchors = (
{
name = _top;
position = "{130, 458}";
},
{
name = top;
position = "{130, 815}";
}
);
layerId = "6D0603BE-7277-4DA4-8C59-7934AF28E45B";
paths = (
{
closed = 1;
nodes = (
"242 704 LINE",
"130 815 LINE",
"17 702 LINE",
"128 592 LINE"
);
},
{
closed = 1;
nodes = (
"87 700 LINE",
"130 744 LINE",
"171 702 LINE",
"128 659 LINE"
);
}
);
width = 260;
},
{
anchors = (
{
name = _top;
position = "{152, 458}";
},
{
name = top;
position = "{153, 865}";
}
);
layerId = "E1555194-BAFD-4DCC-A026-E2F9BA1917F2";
paths = (
{
closed = 1;
nodes = (
"287 732 LINE",
"153 865 LINE",
"17 729 LINE",
"150 598 LINE"
);
},
{
closed = 1;
nodes = (
"109 728 LINE",
"153 773 LINE",
"195 730 LINE",
"151 686 LINE"
);
}
);
width = 305;
},
{
anchors = (
{
name = _top;
position = "{170, 458}";
},
{
name = top;
position = "{171, 901}";
}
);
layerId = "8594390A-478C-48BC-BAB2-0B8797A53DFB";
paths = (
{
closed = 1;
nodes = (
"324 750 LINE",
"171 901 LINE",
"17 747 LINE",
"168 598 LINE"
);
},
{
closed = 1;
nodes = (
"130 746 LINE",
"171 788 LINE",
"210 748 LINE",
"169 707 LINE"
);
}
);
width = 342;
}
);
unicode = 06EB;
}
{
glyphname = "rounddotabove-ar";
layers = (
{
anchors = (
{
name = _top;
position = "{79, 458}";
},
{
name = top;
position = "{79, 749}";
}
);
layerId = "9B455188-434F-489F-9A18-4C18DBE88840";
paths = (
{
closed = 1;
nodes = (
"112 627 OFFCURVE",
"138 653 OFFCURVE",
"138 686 CURVE SMOOTH",
"138 720 OFFCURVE",
"112 745 OFFCURVE",
"79 745 CURVE SMOOTH",
"46 745 OFFCURVE",
"20 720 OFFCURVE",
"20 686 CURVE SMOOTH",
"20 653 OFFCURVE",
"46 627 OFFCURVE",
"79 627 CURVE SMOOTH"
);
}
);
width = 158;
},
{
anchors = (
{
name = _top;
position = "{104, 467}";
},
{
name = top;
position = "{104, 808}";
}
);
layerId = "A7E21968-E455-4749-BB19-379F5EDC3B9B";
paths = (
{
closed = 1;
nodes = (
"153 629 OFFCURVE",
"189 666 OFFCURVE",
"189 714 CURVE SMOOTH",
"189 763 OFFCURVE",
"153 799 OFFCURVE",
"104 799 CURVE SMOOTH",
"56 799 OFFCURVE",
"20 763 OFFCURVE",
"20 714 CURVE SMOOTH",
"20 666 OFFCURVE",
"56 629 OFFCURVE",
"104 629 CURVE SMOOTH"
);
}
);
width = 209;
},
{
anchors = (
{
name = _top;
position = "{52, 458}";
},
{
name = top;
position = "{50, 721}";
}
);
layerId = "D3B47D5E-6A85-4361-9DF6-638C8B7E2782";
paths = (
{
closed = 1;
nodes = (
"67 656 OFFCURVE",
"80 670 OFFCURVE",
"80 687 CURVE SMOOTH",
"80 704 OFFCURVE",
"67 718 OFFCURVE",
"50 718 CURVE SMOOTH",
"33 718 OFFCURVE",
"20 704 OFFCURVE",
"20 687 CURVE SMOOTH",
"20 670 OFFCURVE",
"33 656 OFFCURVE",
"50 656 CURVE SMOOTH"
);
}
);
width = 128;
},
{
anchors = (
{
name = _top;
position = "{94, 464}";
},
{
name = top;
position = "{94, 786}";
}
);
layerId = "08F1692B-9525-48D2-9816-1987B1C44D50";
paths = (
{
closed = 1;
nodes = (
"137 629 OFFCURVE",
"169 662 OFFCURVE",
"169 704 CURVE SMOOTH",
"169 747 OFFCURVE",
"137 779 OFFCURVE",
"94 779 CURVE SMOOTH",
"52 779 OFFCURVE",
"20 747 OFFCURVE",
"20 704 CURVE SMOOTH",
"20 662 OFFCURVE",
"52 629 OFFCURVE",
"94 629 CURVE SMOOTH"
);
}
);
width = 189;
},
{
anchors = (
{
name = _top;
position = "{52, 458}";
},
{
name = top;
position = "{50, 721}";
}
);
layerId = "A2AC38AA-6CC4-4B2B-B5AB-64A49772F2D3";
paths = (
{
closed = 1;
nodes = (
"67 656 OFFCURVE",
"80 670 OFFCURVE",
"80 687 CURVE SMOOTH",
"80 704 OFFCURVE",
"67 718 OFFCURVE",
"50 718 CURVE SMOOTH",
"33 718 OFFCURVE",
"20 704 OFFCURVE",
"20 687 CURVE SMOOTH",
"20 670 OFFCURVE",
"33 656 OFFCURVE",
"50 656 CURVE SMOOTH"
);
}
);
width = 100;
},
{
anchors = (
{
name = _top;
position = "{86, 458}";
},
{
name = top;
position = "{85, 762}";
}
);
layerId = "6D0603BE-7277-4DA4-8C59-7934AF28E45B";
paths = (
{
closed = 1;
nodes = (
"121 622 OFFCURVE",
"150 651 OFFCURVE",
"150 687 CURVE SMOOTH",
"150 724 OFFCURVE",
"121 752 OFFCURVE",
"85 752 CURVE SMOOTH",
"49 752 OFFCURVE",
"20 724 OFFCURVE",
"20 687 CURVE SMOOTH",
"20 651 OFFCURVE",
"49 622 OFFCURVE",
"85 622 CURVE SMOOTH"
);
}
);
width = 170;
},
{
anchors = (
{
name = _top;
position = "{102, 458}";
},
{
name = top;
position = "{102, 796}";
}
);
layerId = "E1555194-BAFD-4DCC-A026-E2F9BA1917F2";
paths = (
{
closed = 1;
nodes = (
"147 622 OFFCURVE",
"183 659 OFFCURVE",
"183 705 CURVE SMOOTH",
"183 753 OFFCURVE",
"147 788 OFFCURVE",
"102 788 CURVE SMOOTH",
"55 788 OFFCURVE",
"20 753 OFFCURVE",
"20 705 CURVE SMOOTH",
"20 659 OFFCURVE",
"55 622 OFFCURVE",
"102 622 CURVE SMOOTH"
);
}
);
width = 203;
},
{
anchors = (
{
name = _top;
position = "{113, 467}";
},
{
name = top;
position = "{113, 818}";
}
);
layerId = "8594390A-478C-48BC-BAB2-0B8797A53DFB";
paths = (
{
closed = 1;
nodes = (
"166 623 OFFCURVE",
"206 663 OFFCURVE",
"206 716 CURVE SMOOTH",
"206 770 OFFCURVE",
"166 809 OFFCURVE",
"113 809 CURVE SMOOTH",
"60 809 OFFCURVE",
"20 770 OFFCURVE",
"20 716 CURVE SMOOTH",
"20 663 OFFCURVE",
"60 623 OFFCURVE",
"113 623 CURVE SMOOTH"
);
}
);
width = 226;
}
);
unicode = 06EC;
}
{
glyphname = "sadLamAlefMaksuraabove-ar";
layers = (
{
anchors = (
{
name = _stop;
position = "{210, 1030}";
}
);
guideLines = (
{
position = "{187, 696}";
}
);
layerId = "9B455188-434F-489F-9A18-4C18DBE88840";
paths = (
{
closed = 1;
nodes = (
"137 1073 OFFCURVE",
"166 1078 OFFCURVE",
"179 1081 CURVE",
"181 1119 LINE",
"169 1116 OFFCURVE",
"140 1114 OFFCURVE",
"116 1114 CURVE SMOOTH",
"78 1114 OFFCURVE",
"68 1120 OFFCURVE",
"68 1128 CURVE SMOOTH",
"68 1137 OFFCURVE",
"86 1135 OFFCURVE",
"108 1138 CURVE SMOOTH",
"128 1140 OFFCURVE",
"141 1147 OFFCURVE",
"148 1161 CURVE",
"143 1162 LINE",
"145 1147 OFFCURVE",
"161 1138 OFFCURVE",
"182 1138 CURVE SMOOTH",
"195 1138 OFFCURVE",
"214 1140 OFFCURVE",
"223 1162 CURVE",
"220 1172 LINE",
"220 1135 OFFCURVE",
"270 1135 OFFCURVE",
"303 1135 CURVE SMOOTH",
"351 1135 OFFCURVE",
"396 1156 OFFCURVE",
"396 1204 CURVE SMOOTH",
"396 1235 OFFCURVE",
"377 1258 OFFCURVE",
"346 1258 CURVE SMOOTH",
"304 1258 OFFCURVE",
"272 1217 OFFCURVE",
"250 1170 CURVE",
"288 1160 LINE",
"297 1178 OFFCURVE",
"317 1213 OFFCURVE",
"340 1213 CURVE SMOOTH",
"350 1213 OFFCURVE",
"353 1206 OFFCURVE",
"353 1201 CURVE SMOOTH",
"353 1183 OFFCURVE",
"332 1177 OFFCURVE",
"293 1177 CURVE SMOOTH",
"252 1177 OFFCURVE",
"241 1183 OFFCURVE",
"241 1198 CURVE SMOOTH",
"241 1203 OFFCURVE",
"243 1213 OFFCURVE",
"246 1223 CURVE",
"211 1227 LINE",
"204 1199 OFFCURVE",
"201 1182 OFFCURVE",
"183 1182 CURVE SMOOTH",
"177 1182 OFFCURVE",
"166 1184 OFFCURVE",
"165 1203 CURVE SMOOTH",
"160 1324 LINE",
"119 1324 LINE",
"123 1201 LINE SMOOTH",
"124 1182 OFFCURVE",
"110 1181 OFFCURVE",
"98 1180 CURVE SMOOTH",
"68 1177 OFFCURVE",
"20 1171 OFFCURVE",
"20 1128 CURVE SMOOTH",
"20 1094 OFFCURVE",
"50 1073 OFFCURVE",
"110 1073 CURVE SMOOTH"
);
}
);
width = 419;
},
{
anchors = (
{
name = _stop;
position = "{245, 1030}";
}
);
layerId = "A7E21968-E455-4749-BB19-379F5EDC3B9B";
paths = (
{
closed = 1;
nodes = (
"174 1177 OFFCURVE",
"203 1181 OFFCURVE",
"215 1184 CURVE",
"217 1232 LINE",
"205 1229 OFFCURVE",
"179 1227 OFFCURVE",
"151 1227 CURVE SMOOTH",
"113 1227 OFFCURVE",
"100 1235 OFFCURVE",
"100 1242 CURVE SMOOTH",
"100 1252 OFFCURVE",
"120 1250 OFFCURVE",
"145 1253 CURVE SMOOTH",
"163 1255 OFFCURVE",
"180 1262 OFFCURVE",
"184 1277 CURVE",
"180 1277 LINE",
"182 1261 OFFCURVE",
"199 1253 OFFCURVE",
"220 1253 CURVE SMOOTH",
"232 1253 OFFCURVE",
"251 1257 OFFCURVE",
"260 1278 CURVE",
"256 1287 LINE",
"260 1250 OFFCURVE",
"310 1250 OFFCURVE",
"340 1250 CURVE SMOOTH",
"401 1250 OFFCURVE",
"445 1267 OFFCURVE",
"445 1319 CURVE SMOOTH",
"445 1353 OFFCURVE",
"426 1379 OFFCURVE",
"389 1379 CURVE SMOOTH",
"339 1379 OFFCURVE",
"301 1325 OFFCURVE",
"279 1277 CURVE",
"335 1275 LINE",
"343 1293 OFFCURVE",
"362 1327 OFFCURVE",
"382 1327 CURVE SMOOTH",
"391 1327 OFFCURVE",
"395 1322 OFFCURVE",
"395 1317 CURVE SMOOTH",
"395 1306 OFFCURVE",
"382 1301 OFFCURVE",
"326 1301 CURVE SMOOTH",
"298 1301 OFFCURVE",
"283 1307 OFFCURVE",
"283 1320 CURVE SMOOTH",
"283 1325 OFFCURVE",
"285 1334 OFFCURVE",
"287 1342 CURVE",
"243 1348 LINE",
"236 1319 OFFCURVE",
"230 1304 OFFCURVE",
"220 1304 CURVE SMOOTH",
"211 1304 OFFCURVE",
"207 1307 OFFCURVE",
"206 1325 CURVE SMOOTH",
"201 1427 LINE",
"152 1427 LINE",
"157 1328 LINE SMOOTH",
"158 1306 OFFCURVE",
"145 1301 OFFCURVE",
"120 1298 CURVE SMOOTH",
"88 1295 OFFCURVE",
"45 1287 OFFCURVE",
"45 1238 CURVE SMOOTH",
"45 1203 OFFCURVE",
"70 1177 OFFCURVE",
"146 1177 CURVE SMOOTH"
);
}
);
width = 490;
},
{
anchors = (
{
name = _stop;
position = "{208, 1030}";
}
);
guideLines = (
{
position = "{191, 696}";
}
);
layerId = "D3B47D5E-6A85-4361-9DF6-638C8B7E2782";
paths = (
{
closed = 1;
nodes = (
"132 1073 OFFCURVE",
"164 1077 OFFCURVE",
"177 1080 CURVE",
"177 1098 LINE",
"164 1095 OFFCURVE",
"138 1091 OFFCURVE",
"105 1091 CURVE SMOOTH",
"72 1091 OFFCURVE",
"36 1097 OFFCURVE",
"36 1115 CURVE SMOOTH",
"36 1134 OFFCURVE",
"70 1134 OFFCURVE",
"93 1136 CURVE SMOOTH",
"115 1138 OFFCURVE",
"130 1145 OFFCURVE",
"136 1162 CURVE",
"132 1163 LINE",
"134 1145 OFFCURVE",
"151 1136 OFFCURVE",
"172 1136 CURVE SMOOTH",
"186 1136 OFFCURVE",
"212 1140 OFFCURVE",
"222 1164 CURVE",
"218 1173 LINE",
"218 1133 OFFCURVE",
"273 1133 OFFCURVE",
"303 1133 CURVE SMOOTH",
"347 1133 OFFCURVE",
"393 1154 OFFCURVE",
"393 1189 CURVE SMOOTH",
"393 1211 OFFCURVE",
"376 1228 OFFCURVE",
"350 1228 CURVE SMOOTH",
"313 1228 OFFCURVE",
"279 1187 OFFCURVE",
"260 1142 CURVE",
"278 1142 LINE",
"295 1183 OFFCURVE",
"325 1211 OFFCURVE",
"349 1211 CURVE SMOOTH",
"365 1211 OFFCURVE",
"375 1200 OFFCURVE",
"375 1186 CURVE SMOOTH",
"375 1164 OFFCURVE",
"337 1151 OFFCURVE",
"293 1151 CURVE SMOOTH",
"254 1151 OFFCURVE",
"231 1159 OFFCURVE",
"231 1173 CURVE SMOOTH",
"231 1178 OFFCURVE",
"233 1188 OFFCURVE",
"236 1200 CURVE",
"221 1203 LINE",
"211 1164 OFFCURVE",
"206 1154 OFFCURVE",
"171 1154 CURVE SMOOTH",
"155 1154 OFFCURVE",
"142 1158 OFFCURVE",
"141 1177 CURVE SMOOTH",
"136 1309 LINE",
"118 1309 LINE",
"123 1177 LINE SMOOTH",
"124 1158 OFFCURVE",
"110 1155 OFFCURVE",
"93 1154 CURVE SMOOTH",
"65 1152 OFFCURVE",
"20 1149 OFFCURVE",
"20 1114 CURVE SMOOTH",
"20 1082 OFFCURVE",
"67 1073 OFFCURVE",
"101 1073 CURVE SMOOTH"
);
}
);
width = 416;
},
{
anchors = (
{
name = _stop;
position = "{211, 1030}";
}
);
layerId = "08F1692B-9525-48D2-9816-1987B1C44D50";
paths = (
{
closed = 1;
nodes = (
"140 1123 OFFCURVE",
"169 1127 OFFCURVE",
"181 1130 CURVE",
"183 1176 LINE",
"171 1174 OFFCURVE",
"144 1171 OFFCURVE",
"120 1171 CURVE SMOOTH",
"82 1171 OFFCURVE",
"72 1177 OFFCURVE",
"72 1184 CURVE SMOOTH",
"72 1194 OFFCURVE",
"90 1192 OFFCURVE",
"112 1194 CURVE SMOOTH",
"131 1197 OFFCURVE",
"145 1203 OFFCURVE",
"150 1218 CURVE",
"147 1224 LINE",
"149 1204 OFFCURVE",
"165 1194 OFFCURVE",
"186 1194 CURVE SMOOTH",
"198 1194 OFFCURVE",
"216 1197 OFFCURVE",
"225 1219 CURVE",
"222 1228 LINE",
"222 1192 OFFCURVE",
"273 1192 OFFCURVE",
"304 1192 CURVE SMOOTH",
"353 1192 OFFCURVE",
"399 1215 OFFCURVE",
"399 1264 CURVE SMOOTH",
"399 1295 OFFCURVE",
"379 1319 OFFCURVE",
"347 1319 CURVE SMOOTH",
"307 1319 OFFCURVE",
"278 1283 OFFCURVE",
"254 1230 CURVE",
"292 1216 LINE",
"301 1237 OFFCURVE",
"320 1270 OFFCURVE",
"341 1270 CURVE SMOOTH",
"349 1270 OFFCURVE",
"351 1267 OFFCURVE",
"351 1260 CURVE SMOOTH",
"351 1244 OFFCURVE",
"331 1237 OFFCURVE",
"295 1237 CURVE SMOOTH",
"259 1237 OFFCURVE",
"247 1244 OFFCURVE",
"247 1258 CURVE SMOOTH",
"247 1264 OFFCURVE",
"249 1273 OFFCURVE",
"251 1284 CURVE",
"209 1291 LINE",
"202 1262 OFFCURVE",
"200 1243 OFFCURVE",
"186 1243 CURVE SMOOTH",
"181 1243 OFFCURVE",
"174 1246 OFFCURVE",
"173 1264 CURVE SMOOTH",
"168 1383 LINE",
"117 1383 LINE",
"122 1262 LINE SMOOTH",
"123 1243 OFFCURVE",
"110 1242 OFFCURVE",
"96 1241 CURVE SMOOTH",
"67 1239 OFFCURVE",
"20 1232 OFFCURVE",
"20 1185 CURVE SMOOTH",
"20 1145 OFFCURVE",
"52 1123 OFFCURVE",
"114 1123 CURVE SMOOTH"
);
}
);
width = 422;
},
{
anchors = (
{
name = _stop;
position = "{218, 1030}";
}
);
guideLines = (
{
position = "{201, 696}";
}
);
layerId = "A2AC38AA-6CC4-4B2B-B5AB-64A49772F2D3";
paths = (
{
closed = 1;
nodes = (
"142 1073 OFFCURVE",
"174 1077 OFFCURVE",
"187 1080 CURVE",
"187 1098 LINE",
"174 1095 OFFCURVE",
"148 1091 OFFCURVE",
"115 1091 CURVE SMOOTH",
"72 1091 OFFCURVE",
"36 1097 OFFCURVE",
"36 1115 CURVE SMOOTH",
"36 1134 OFFCURVE",
"80 1134 OFFCURVE",
"103 1136 CURVE SMOOTH",
"125 1138 OFFCURVE",
"140 1145 OFFCURVE",
"146 1162 CURVE",
"142 1163 LINE",
"144 1145 OFFCURVE",
"161 1136 OFFCURVE",
"184 1136 CURVE SMOOTH",
"198 1136 OFFCURVE",
"226 1140 OFFCURVE",
"236 1164 CURVE",
"232 1173 LINE",
"232 1133 OFFCURVE",
"289 1133 OFFCURVE",
"319 1133 CURVE SMOOTH",
"367 1133 OFFCURVE",
"413 1154 OFFCURVE",
"413 1189 CURVE SMOOTH",
"413 1211 OFFCURVE",
"396 1228 OFFCURVE",
"368 1228 CURVE SMOOTH",
"329 1228 OFFCURVE",
"295 1187 OFFCURVE",
"276 1142 CURVE",
"294 1142 LINE",
"311 1183 OFFCURVE",
"341 1211 OFFCURVE",
"367 1211 CURVE SMOOTH",
"385 1211 OFFCURVE",
"395 1200 OFFCURVE",
"395 1186 CURVE SMOOTH",
"395 1164 OFFCURVE",
"357 1151 OFFCURVE",
"309 1151 CURVE SMOOTH",
"268 1151 OFFCURVE",
"245 1159 OFFCURVE",
"245 1173 CURVE SMOOTH",
"245 1178 OFFCURVE",
"247 1188 OFFCURVE",
"250 1200 CURVE",
"235 1203 LINE",
"225 1164 OFFCURVE",
"220 1154 OFFCURVE",
"183 1154 CURVE SMOOTH",
"165 1154 OFFCURVE",
"152 1157 OFFCURVE",
"151 1177 CURVE SMOOTH",
"146 1309 LINE",
"128 1309 LINE",
"133 1177 LINE SMOOTH",
"134 1157 OFFCURVE",
"120 1155 OFFCURVE",
"103 1154 CURVE SMOOTH",
"75 1152 OFFCURVE",
"20 1149 OFFCURVE",
"20 1114 CURVE SMOOTH",
"20 1082 OFFCURVE",
"67 1073 OFFCURVE",
"111 1073 CURVE SMOOTH"
);
}
);
width = 436;
},
{
anchors = (
{
name = _stop;
position = "{228, 1030}";
}
);
guideLines = (
{
position = "{207, 696}";
}
);
layerId = "6D0603BE-7277-4DA4-8C59-7934AF28E45B";
paths = (
{
closed = 1;
nodes = (
"148 1072 OFFCURVE",
"180 1076 OFFCURVE",
"193 1079 CURVE",
"195 1122 LINE",
"182 1119 OFFCURVE",
"152 1116 OFFCURVE",
"125 1116 CURVE SMOOTH",
"83 1116 OFFCURVE",
"72 1123 OFFCURVE",
"72 1130 CURVE SMOOTH",
"72 1141 OFFCURVE",
"92 1139 OFFCURVE",
"116 1142 CURVE SMOOTH",
"138 1145 OFFCURVE",
"153 1151 OFFCURVE",
"159 1168 CURVE",
"155 1169 LINE",
"157 1151 OFFCURVE",
"175 1142 OFFCURVE",
"198 1142 CURVE SMOOTH",
"212 1142 OFFCURVE",
"232 1145 OFFCURVE",
"242 1169 CURVE",
"238 1179 LINE",
"238 1139 OFFCURVE",
"295 1139 OFFCURVE",
"330 1139 CURVE SMOOTH",
"382 1139 OFFCURVE",
"432 1162 OFFCURVE",
"432 1214 CURVE SMOOTH",
"432 1247 OFFCURVE",
"411 1273 OFFCURVE",
"376 1273 CURVE SMOOTH",
"331 1273 OFFCURVE",
"297 1229 OFFCURVE",
"272 1176 CURVE",
"313 1166 LINE",
"324 1186 OFFCURVE",
"346 1223 OFFCURVE",
"372 1223 CURVE SMOOTH",
"381 1223 OFFCURVE",
"385 1218 OFFCURVE",
"385 1211 CURVE SMOOTH",
"385 1193 OFFCURVE",
"362 1185 OFFCURVE",
"320 1185 CURVE SMOOTH",
"275 1185 OFFCURVE",
"262 1193 OFFCURVE",
"262 1208 CURVE SMOOTH",
"262 1213 OFFCURVE",
"264 1223 OFFCURVE",
"267 1235 CURVE",
"230 1241 LINE",
"222 1209 OFFCURVE",
"217 1190 OFFCURVE",
"199 1190 CURVE SMOOTH",
"191 1190 OFFCURVE",
"180 1194 OFFCURVE",
"179 1213 CURVE SMOOTH",
"174 1345 LINE",
"128 1345 LINE",
"133 1211 LINE SMOOTH",
"134 1191 OFFCURVE",
"119 1189 OFFCURVE",
"105 1188 CURVE SMOOTH",
"72 1185 OFFCURVE",
"20 1177 OFFCURVE",
"20 1130 CURVE SMOOTH",
"20 1093 OFFCURVE",
"53 1072 OFFCURVE",
"118 1072 CURVE SMOOTH"
);
}
);
width = 455;
},
{
anchors = (
{
name = _stop;
position = "{232, 1030}";
}
);
guideLines = (
{
position = "{200, 696}";
}
);
layerId = "E1555194-BAFD-4DCC-A026-E2F9BA1917F2";
paths = (
{
closed = 1;
nodes = (
"153 1122 OFFCURVE",
"186 1126 OFFCURVE",
"199 1129 CURVE",
"201 1181 LINE",
"188 1178 OFFCURVE",
"158 1175 OFFCURVE",
"131 1175 CURVE SMOOTH",
"89 1175 OFFCURVE",
"78 1182 OFFCURVE",
"78 1189 CURVE SMOOTH",
"78 1200 OFFCURVE",
"98 1198 OFFCURVE",
"122 1201 CURVE SMOOTH",
"144 1204 OFFCURVE",
"159 1210 OFFCURVE",
"165 1227 CURVE",
"161 1234 LINE",
"163 1212 OFFCURVE",
"181 1201 OFFCURVE",
"205 1201 CURVE SMOOTH",
"218 1201 OFFCURVE",
"238 1204 OFFCURVE",
"248 1228 CURVE",
"244 1238 LINE",
"244 1198 OFFCURVE",
"301 1198 OFFCURVE",
"336 1198 CURVE SMOOTH",
"390 1198 OFFCURVE",
"441 1224 OFFCURVE",
"441 1278 CURVE SMOOTH",
"441 1313 OFFCURVE",
"419 1339 OFFCURVE",
"383 1339 CURVE SMOOTH",
"339 1339 OFFCURVE",
"307 1299 OFFCURVE",
"280 1241 CURVE",
"322 1225 LINE",
"332 1248 OFFCURVE",
"353 1285 OFFCURVE",
"377 1285 CURVE SMOOTH",
"385 1285 OFFCURVE",
"388 1281 OFFCURVE",
"388 1274 CURVE SMOOTH",
"388 1256 OFFCURVE",
"365 1248 OFFCURVE",
"326 1248 CURVE SMOOTH",
"286 1248 OFFCURVE",
"272 1256 OFFCURVE",
"272 1272 CURVE SMOOTH",
"272 1278 OFFCURVE",
"274 1288 OFFCURVE",
"277 1300 CURVE",
"230 1308 LINE",
"222 1276 OFFCURVE",
"220 1255 OFFCURVE",
"205 1255 CURVE SMOOTH",
"199 1255 OFFCURVE",
"191 1258 OFFCURVE",
"190 1278 CURVE SMOOTH",
"185 1410 LINE",
"128 1410 LINE",
"133 1276 LINE SMOOTH",
"134 1255 OFFCURVE",
"120 1254 OFFCURVE",
"105 1253 CURVE SMOOTH",
"73 1250 OFFCURVE",
"20 1243 OFFCURVE",
"20 1190 CURVE SMOOTH",
"20 1146 OFFCURVE",
"56 1122 OFFCURVE",
"125 1122 CURVE SMOOTH"
);
}
);
width = 464;
},
{
anchors = (
{
name = _stop;
position = "{242, 1030}";
}
);
layerId = "8594390A-478C-48BC-BAB2-0B8797A53DFB";
paths = (
{
closed = 1;
nodes = (
"162 1156 OFFCURVE",
"194 1160 OFFCURVE",
"207 1163 CURVE",
"209 1216 LINE",
"196 1213 OFFCURVE",
"167 1210 OFFCURVE",
"137 1210 CURVE SMOOTH",
"95 1210 OFFCURVE",
"80 1219 OFFCURVE",
"80 1227 CURVE SMOOTH",
"80 1238 OFFCURVE",
"103 1236 OFFCURVE",
"130 1239 CURVE SMOOTH",
"150 1241 OFFCURVE",
"168 1249 OFFCURVE",
"173 1265 CURVE",
"169 1266 LINE",
"171 1248 OFFCURVE",
"189 1239 OFFCURVE",
"212 1239 CURVE SMOOTH",
"226 1239 OFFCURVE",
"247 1243 OFFCURVE",
"257 1267 CURVE",
"252 1276 LINE",
"256 1236 OFFCURVE",
"311 1236 OFFCURVE",
"344 1236 CURVE SMOOTH",
"412 1236 OFFCURVE",
"460 1254 OFFCURVE",
"460 1312 CURVE SMOOTH",
"460 1349 OFFCURVE",
"439 1378 OFFCURVE",
"398 1378 CURVE SMOOTH",
"343 1378 OFFCURVE",
"302 1318 OFFCURVE",
"277 1265 CURVE",
"339 1263 LINE",
"348 1283 OFFCURVE",
"369 1320 OFFCURVE",
"391 1320 CURVE SMOOTH",
"401 1320 OFFCURVE",
"405 1315 OFFCURVE",
"405 1309 CURVE SMOOTH",
"405 1297 OFFCURVE",
"391 1292 OFFCURVE",
"329 1292 CURVE SMOOTH",
"298 1292 OFFCURVE",
"282 1299 OFFCURVE",
"282 1313 CURVE SMOOTH",
"282 1318 OFFCURVE",
"284 1328 OFFCURVE",
"286 1337 CURVE",
"238 1344 LINE",
"230 1312 OFFCURVE",
"224 1295 OFFCURVE",
"213 1295 CURVE SMOOTH",
"203 1295 OFFCURVE",
"198 1298 OFFCURVE",
"197 1318 CURVE SMOOTH",
"192 1430 LINE",
"138 1430 LINE",
"143 1322 LINE SMOOTH",
"144 1297 OFFCURVE",
"130 1292 OFFCURVE",
"103 1289 CURVE SMOOTH",
"67 1285 OFFCURVE",
"20 1276 OFFCURVE",
"20 1223 CURVE SMOOTH",
"20 1184 OFFCURVE",
"47 1156 OFFCURVE",
"131 1156 CURVE SMOOTH"
);
}
);
width = 483;
}
);
unicode = 06D6;
}
{
glyphname = "sajdah-ar";
layers = (
{
layerId = "9B455188-434F-489F-9A18-4C18DBE88840";
paths = (
{
closed = 1;
nodes = (
"543 0 LINE",
"542 81 LINE",
"498 105 OFFCURVE",
"486 123 OFFCURVE",
"486 201 CURVE",
"486 384 LINE",
"547 416 OFFCURVE",
"568 450 OFFCURVE",
"568 517 CURVE",
"568 624 OFFCURVE",
"430 687 OFFCURVE",
"302 714 CURVE",
"186 690 OFFCURVE",
"40 627 OFFCURVE",
"40 514 CURVE",
"40 447 OFFCURVE",
"63 415 OFFCURVE",
"123 383 CURVE",
"123 201 LINE",
"121 123 OFFCURVE",
"108 102 OFFCURVE",
"64 78 CURVE",
"63 0 LINE"
);
},
{
closed = 1;
nodes = (
"181 99 OFFCURVE",
"189 147 OFFCURVE",
"189 207 CURVE",
"189 423 LINE",
"148 445 OFFCURVE",
"119 470 OFFCURVE",
"119 516 CURVE",
"119 583 OFFCURVE",
"218 627 OFFCURVE",
"302 644 CURVE",
"388 627 OFFCURVE",
"491 579 OFFCURVE",
"491 513 CURVE",
"491 467 OFFCURVE",
"461 446 OFFCURVE",
"419 424 CURVE",
"419 206 LINE",
"419 128 OFFCURVE",
"425 92 OFFCURVE",
"458 64 CURVE",
"147 64 LINE"
);
}
);
width = 608;
},
{
layerId = "A7E21968-E455-4749-BB19-379F5EDC3B9B";
paths = (
{
closed = 1;
nodes = (
"543 0 LINE",
"542 81 LINE",
"498 105 OFFCURVE",
"486 123 OFFCURVE",
"486 201 CURVE",
"486 384 LINE",
"547 416 OFFCURVE",
"568 450 OFFCURVE",
"568 517 CURVE",
"568 624 OFFCURVE",
"430 687 OFFCURVE",
"302 714 CURVE",
"186 690 OFFCURVE",
"40 627 OFFCURVE",
"40 514 CURVE",
"40 447 OFFCURVE",
"63 415 OFFCURVE",
"123 383 CURVE",
"123 201 LINE",
"121 123 OFFCURVE",
"108 102 OFFCURVE",
"64 78 CURVE",
"63 0 LINE"
);
},
{
closed = 1;
nodes = (
"181 99 OFFCURVE",
"189 147 OFFCURVE",
"189 207 CURVE",
"189 423 LINE",
"148 445 OFFCURVE",
"119 470 OFFCURVE",
"119 516 CURVE",
"119 583 OFFCURVE",
"218 627 OFFCURVE",
"302 644 CURVE",
"388 627 OFFCURVE",
"491 579 OFFCURVE",
"491 513 CURVE",
"491 467 OFFCURVE",
"461 446 OFFCURVE",
"419 424 CURVE",
"419 206 LINE",
"419 128 OFFCURVE",
"425 92 OFFCURVE",
"458 64 CURVE",
"147 64 LINE"
);
}
);
width = 608;
},
{
guideLines = (
{
position = "{94, 391}";
}
);
layerId = "D3B47D5E-6A85-4361-9DF6-638C8B7E2782";
paths = (
{
closed = 1;
nodes = (
"465 0 LINE",
"464 31 LINE",
"420 55 OFFCURVE",
"408 83 OFFCURVE",
"408 161 CURVE SMOOTH",
"407 409 LINE",
"450 431 OFFCURVE",
"478 469 OFFCURVE",
"478 517 CURVE SMOOTH",
"478 598 OFFCURVE",
"378 648 OFFCURVE",
"269 674 CURVE",
"160 648 OFFCURVE",
"60 598 OFFCURVE",
"60 517 CURVE SMOOTH",
"60 469 OFFCURVE",
"88 431 OFFCURVE",
"131 409 CURVE",
"130 161 LINE SMOOTH",
"130 83 OFFCURVE",
"118 55 OFFCURVE",
"74 31 CURVE",
"73 0 LINE"
);
},
{
closed = 1;
nodes = (
"143 52 OFFCURVE",
"154 83 OFFCURVE",
"154 166 CURVE SMOOTH",
"155 422 LINE",
"113 443 OFFCURVE",
"86 476 OFFCURVE",
"86 517 CURVE SMOOTH",
"86 572 OFFCURVE",
"156 622 OFFCURVE",
"268 648 CURVE",
"380 622 OFFCURVE",
"452 572 OFFCURVE",
"452 517 CURVE SMOOTH",
"452 476 OFFCURVE",
"425 443 OFFCURVE",
"383 422 CURVE",
"384 166 LINE SMOOTH",
"384 83 OFFCURVE",
"395 52 OFFCURVE",
"432 24 CURVE",
"106 24 LINE"
);
}
);
width = 538;
},
{
layerId = "08F1692B-9525-48D2-9816-1987B1C44D50";
paths = (
{
closed = 1;
nodes = (
"538 0 LINE",
"537 78 LINE",
"493 102 OFFCURVE",
"481 121 OFFCURVE",
"481 199 CURVE",
"481 385 LINE",
"541 417 OFFCURVE",
"563 451 OFFCURVE",
"563 517 CURVE",
"563 622 OFFCURVE",
"427 685 OFFCURVE",
"300 712 CURVE",
"184 688 OFFCURVE",
"41 625 OFFCURVE",
"41 514 CURVE",
"41 448 OFFCURVE",
"64 416 OFFCURVE",
"123 385 CURVE",
"123 199 LINE",
"121 121 OFFCURVE",
"108 99 OFFCURVE",
"64 75 CURVE",
"63 0 LINE"
);
},
{
closed = 1;
nodes = (
"179 96 OFFCURVE",
"187 143 OFFCURVE",
"187 205 CURVE",
"187 423 LINE",
"146 445 OFFCURVE",
"117 470 OFFCURVE",
"117 516 CURVE",
"117 582 OFFCURVE",
"214 627 OFFCURVE",
"300 644 CURVE",
"387 627 OFFCURVE",
"489 579 OFFCURVE",
"489 513 CURVE",
"489 468 OFFCURVE",
"459 446 OFFCURVE",
"417 424 CURVE",
"417 204 LINE",
"417 125 OFFCURVE",
"423 90 OFFCURVE",
"456 62 CURVE",
"145 62 LINE"
);
}
);
width = 604;
},
{
guideLines = (
{
position = "{94, 391}";
}
);
layerId = "A2AC38AA-6CC4-4B2B-B5AB-64A49772F2D3";
paths = (
{
closed = 1;
nodes = (
"465 0 LINE",
"464 31 LINE",
"420 55 OFFCURVE",
"408 83 OFFCURVE",
"408 161 CURVE SMOOTH",
"407 409 LINE",
"450 431 OFFCURVE",
"478 469 OFFCURVE",
"478 517 CURVE SMOOTH",
"478 598 OFFCURVE",
"378 648 OFFCURVE",
"269 674 CURVE",
"160 648 OFFCURVE",
"60 598 OFFCURVE",
"60 517 CURVE SMOOTH",
"60 469 OFFCURVE",
"88 431 OFFCURVE",
"131 409 CURVE",
"130 161 LINE SMOOTH",
"130 83 OFFCURVE",
"118 55 OFFCURVE",
"74 31 CURVE",
"73 0 LINE"
);
},
{
closed = 1;
nodes = (
"143 52 OFFCURVE",
"154 83 OFFCURVE",
"154 166 CURVE SMOOTH",
"155 422 LINE",
"113 443 OFFCURVE",
"86 476 OFFCURVE",
"86 517 CURVE SMOOTH",
"86 572 OFFCURVE",
"156 622 OFFCURVE",
"268 648 CURVE",
"380 622 OFFCURVE",
"452 572 OFFCURVE",
"452 517 CURVE SMOOTH",
"452 476 OFFCURVE",
"425 443 OFFCURVE",
"383 422 CURVE",
"384 166 LINE SMOOTH",
"384 83 OFFCURVE",
"395 52 OFFCURVE",
"432 24 CURVE",
"106 24 LINE"
);
}
);
width = 538;
},
{
layerId = "6D0603BE-7277-4DA4-8C59-7934AF28E45B";
paths = (
{
closed = 1;
nodes = (
"543 0 LINE",
"542 81 LINE",
"498 105 OFFCURVE",
"486 123 OFFCURVE",
"486 201 CURVE",
"486 384 LINE",
"547 416 OFFCURVE",
"568 450 OFFCURVE",
"568 517 CURVE",
"568 624 OFFCURVE",
"430 687 OFFCURVE",
"302 714 CURVE",
"186 690 OFFCURVE",
"40 627 OFFCURVE",
"40 514 CURVE",
"40 447 OFFCURVE",
"63 415 OFFCURVE",
"123 383 CURVE",
"123 201 LINE",
"121 123 OFFCURVE",
"108 102 OFFCURVE",
"64 78 CURVE",
"63 0 LINE"
);
},
{
closed = 1;
nodes = (
"181 99 OFFCURVE",
"189 147 OFFCURVE",
"189 207 CURVE",
"189 423 LINE",
"148 445 OFFCURVE",
"119 470 OFFCURVE",
"119 516 CURVE",
"119 583 OFFCURVE",
"218 627 OFFCURVE",
"302 644 CURVE",
"388 627 OFFCURVE",
"491 579 OFFCURVE",
"491 513 CURVE",
"491 467 OFFCURVE",
"461 446 OFFCURVE",
"419 424 CURVE",
"419 206 LINE",
"419 128 OFFCURVE",
"425 92 OFFCURVE",
"458 64 CURVE",
"147 64 LINE"
);
}
);
width = 608;
},
{
layerId = "E1555194-BAFD-4DCC-A026-E2F9BA1917F2";
paths = (
{
closed = 1;
nodes = (
"543 0 LINE",
"542 81 LINE",
"498 105 OFFCURVE",
"486 123 OFFCURVE",
"486 201 CURVE",
"486 384 LINE",
"547 416 OFFCURVE",
"568 450 OFFCURVE",
"568 517 CURVE",
"568 624 OFFCURVE",
"430 687 OFFCURVE",
"302 714 CURVE",
"186 690 OFFCURVE",
"40 627 OFFCURVE",
"40 514 CURVE",
"40 447 OFFCURVE",
"63 415 OFFCURVE",
"123 383 CURVE",
"123 201 LINE",
"121 123 OFFCURVE",
"108 102 OFFCURVE",
"64 78 CURVE",
"63 0 LINE"
);
},
{
closed = 1;
nodes = (
"181 99 OFFCURVE",
"189 147 OFFCURVE",
"189 207 CURVE",
"189 423 LINE",
"148 445 OFFCURVE",
"119 470 OFFCURVE",
"119 516 CURVE",
"119 583 OFFCURVE",
"218 627 OFFCURVE",
"302 644 CURVE",
"388 627 OFFCURVE",
"491 579 OFFCURVE",
"491 513 CURVE",
"491 467 OFFCURVE",
"461 446 OFFCURVE",
"419 424 CURVE",
"419 206 LINE",
"419 128 OFFCURVE",
"425 92 OFFCURVE",
"458 64 CURVE",
"147 64 LINE"
);
}
);
width = 608;
},
{
layerId = "8594390A-478C-48BC-BAB2-0B8797A53DFB";
paths = (
{
closed = 1;
nodes = (
"543 0 LINE",
"542 81 LINE",
"498 105 OFFCURVE",
"486 123 OFFCURVE",
"486 201 CURVE SMOOTH",
"486 384 LINE",
"547 416 OFFCURVE",
"568 450 OFFCURVE",
"568 517 CURVE SMOOTH",
"568 624 OFFCURVE",
"430 687 OFFCURVE",
"302 714 CURVE",
"186 690 OFFCURVE",
"40 627 OFFCURVE",
"40 514 CURVE SMOOTH",
"40 447 OFFCURVE",
"63 415 OFFCURVE",
"123 383 CURVE",
"123 201 LINE SMOOTH",
"121 123 OFFCURVE",
"108 102 OFFCURVE",
"64 78 CURVE",
"63 0 LINE"
);
},
{
closed = 1;
nodes = (
"181 99 OFFCURVE",
"189 147 OFFCURVE",
"189 207 CURVE SMOOTH",
"189 423 LINE",
"148 445 OFFCURVE",
"119 470 OFFCURVE",
"119 516 CURVE SMOOTH",
"119 583 OFFCURVE",
"218 627 OFFCURVE",
"302 644 CURVE",
"388 627 OFFCURVE",
"491 579 OFFCURVE",
"491 513 CURVE SMOOTH",
"491 467 OFFCURVE",
"461 446 OFFCURVE",
"419 424 CURVE",
"419 206 LINE SMOOTH",
"419 128 OFFCURVE",
"425 92 OFFCURVE",
"458 64 CURVE",
"147 64 LINE"
);
}
);
width = 608;
}
);
unicode = 06E9;
}
